<?xml version="1.0" standalone="no"?>
<!DOCTYPE svg PUBLIC "-//W3C//DTD SVG 20010904//EN"
 "http://www.w3.org/TR/2001/REC-SVG-20010904/DTD/svg10.dtd">
<svg version="1.0" xmlns="http://www.w3.org/2000/svg"
 width="1000.000000pt" height="1000.000000pt" viewBox="0 0 1000.000000 1000.000000"
 preserveAspectRatio="xMidYMid meet">

<g transform="translate(0.000000,1000.000000) scale(0.100000,-0.100000)"
fill="#000000" stroke="none">
<path d="M7261 8974 c-1 -32 2 -44 12 -44 8 0 22 -10 31 -22 11 -17 10 -10 -4
25 -11 27 -20 55 -20 62 0 8 -4 16 -8 19 -5 3 -9 -15 -11 -40z"/>
<path d="M2707 8975 c-21 -44 -21 -44 1 -39 11 4 18 17 19 40 2 18 2 34 0 34
-2 0 -11 -16 -20 -35z"/>
<path d="M2665 8971 c-3 -5 -1 -12 5 -16 5 -3 10 1 10 9 0 18 -6 21 -15 7z"/>
<path d="M7350 8970 c0 -5 5 -10 11 -10 5 0 7 5 4 10 -3 6 -8 10 -11 10 -2 0
-4 -4 -4 -10z"/>
<path d="M3235 8959 c-27 -6 -71 -17 -97 -25 -26 -9 -53 -12 -60 -8 -7 4 -10
3 -6 -1 5 -5 -15 -21 -43 -37 -27 -16 -52 -35 -55 -43 -3 -8 4 -28 16 -45 28
-39 9 -39 -23 0 -14 17 -28 27 -30 23 -3 -5 16 -30 43 -57 l47 -48 29 18 c34
21 203 154 257 201 l37 33 -32 -1 c-18 -1 -55 -5 -83 -10z"/>
<path d="M6677 8937 c77 -68 257 -207 270 -207 7 0 31 23 54 52 45 58 47 50
-22 101 l-24 19 28 -16 c15 -9 39 -24 54 -33 15 -10 24 -13 20 -6 -14 23 -114
73 -133 66 -11 -4 -15 -3 -11 4 4 6 1 11 -6 10 -34 -1 -48 4 -41 15 4 7 3 8
-4 4 -6 -4 -45 0 -86 9 -41 8 -89 15 -106 15 l-30 0 37 -33z"/>
<path d="M3008 8900 c-20 -11 -39 -24 -43 -29 -4 -8 77 32 94 46 13 10 -19 -1
-51 -17z"/>
<path d="M2656 8865 c-9 -26 -7 -32 5 -12 6 10 9 21 6 23 -2 3 -7 -2 -11 -11z"/>
<path d="M3320 8790 c-13 -28 -28 -54 -33 -57 -5 -3 -5 2 1 12 8 16 3 22 -40
42 l-50 23 -52 -36 c-28 -21 -104 -79 -168 -131 -70 -56 -123 -91 -129 -87 -7
4 -9 3 -6 -3 7 -11 -68 -80 -181 -168 -67 -52 -77 -74 -15 -33 57 37 131 65
203 78 150 27 300 106 389 207 49 55 116 174 109 194 -2 6 -15 -12 -28 -41z"/>
<path d="M6650 8804 c0 -23 74 -132 128 -187 60 -62 158 -126 232 -152 46 -17
212 -57 242 -58 9 -1 14 -5 12 -9 -3 -4 2 -8 11 -8 22 0 96 -51 89 -61 -3 -5
-7 -9 -10 -9 -3 0 -3 4 1 9 3 6 -3 9 -12 9 -10 -1 -40 6 -68 14 -107 34 -105
35 -105 -19 0 -71 -7 -78 -66 -61 -48 13 -49 14 -54 58 -5 45 -5 45 -43 43
-31 -2 -81 -19 -176 -60 -10 -5 -12 -2 -6 8 5 8 4 11 0 6 -5 -4 -10 -14 -11
-22 -2 -12 13 -15 76 -15 95 0 148 -10 315 -57 130 -37 213 -46 248 -27 16 9
12 16 -33 63 -54 56 -60 67 -32 57 16 -6 3 6 -113 100 -27 22 -50 44 -50 50 0
13 -27 49 -45 59 -8 4 -1 -7 15 -26 17 -18 21 -27 10 -19 -40 28 -64 53 -60
61 3 4 0 11 -6 15 -8 4 -9 3 -5 -4 14 -23 -8 -11 -58 31 -182 154 -316 241
-316 206 0 -6 -4 -7 -10 -4 -5 3 -10 1 -10 -5 0 -6 -4 -8 -10 -5 -5 3 -10 2
-10 -4 0 -6 -7 -8 -15 -5 -33 13 11 -62 84 -142 31 -33 26 -30 -15 11 -33 34
-74 86 -92 116 -17 29 -32 49 -32 43z m750 -576 c0 -16 -4 -28 -10 -28 -5 0
-10 19 -10 43 0 31 3 38 10 27 5 -8 10 -27 10 -42z"/>
<path d="M2700 8629 c0 -8 -16 -49 -34 -92 -19 -43 -28 -73 -21 -67 17 14 70
158 61 167 -3 3 -6 0 -6 -8z"/>
<path d="M7301 8595 c0 -5 6 -21 14 -35 8 -14 14 -20 14 -15 0 6 -6 21 -14 35
-8 14 -14 21 -14 15z"/>
<path d="M7661 8568 c11 -40 11 -47 1 -30 -6 9 -22 5 -64 -18 -60 -32 -60 -32
-88 22 -27 55 -20 20 10 -45 16 -37 30 -72 30 -79 0 -9 22 -14 69 -16 62 -3
70 -1 76 16 11 36 -21 182 -40 182 -2 0 1 -15 6 -32z"/>
<path d="M7240 8583 c0 -21 22 -73 31 -73 5 0 2 17 -6 37 -17 40 -25 52 -25
36z"/>
<path d="M2736 8555 c-9 -26 -7 -32 5 -12 6 10 9 21 6 23 -2 3 -7 -2 -11 -11z"/>
<path d="M2802 8530 c-12 -12 -22 -24 -22 -27 0 -4 11 4 25 17 23 22 29 30 22
30 -2 0 -13 -9 -25 -20z"/>
<path d="M2307 8518 c-9 -38 -17 -144 -9 -123 6 17 16 20 67 20 l60 0 33 65
c21 41 26 56 13 40 -11 -14 -21 -28 -21 -33 0 -4 -21 3 -47 17 -77 38 -90 40
-96 14z"/>
<path d="M7331 8525 c0 -5 6 -21 14 -35 8 -14 14 -20 14 -15 0 6 -6 21 -14 35
-8 14 -14 21 -14 15z"/>
<path d="M2480 8485 c0 -7 101 -57 106 -53 2 2 -21 16 -51 31 -30 15 -55 25
-55 22z"/>
<path d="M2165 8455 c4 -22 3 -26 -4 -15 -6 8 -12 12 -14 10 -8 -9 -57 -214
-52 -219 3 -2 5 3 5 11 0 17 28 28 74 28 l29 0 -5 73 c-3 39 -13 88 -22 107
-16 34 -16 34 -11 5z"/>
<path d="M7310 8450 c0 -6 -6 -8 -12 -4 -7 4 -4 -3 8 -15 19 -21 61 -21 48 0
-10 16 -44 31 -44 19z m25 -20 c3 -6 -1 -7 -9 -4 -18 7 -21 14 -7 14 6 0 13
-4 16 -10z"/>
<path d="M7812 8424 c-6 -23 -15 -68 -18 -100 l-6 -59 47 0 c48 0 48 0 63 -43
8 -24 16 -42 17 -40 7 7 -69 257 -76 252 -4 -2 -9 4 -11 13 -2 11 -8 2 -16
-23z"/>
<path d="M2634 8428 l-19 -23 25 20 c14 11 27 21 29 22 2 2 0 3 -6 3 -5 0 -18
-10 -29 -22z"/>
<path d="M2625 8394 l-30 -26 33 22 c17 12 32 23 32 26 0 7 -4 5 -35 -22z"/>
<path d="M7355 8390 c3 -5 11 -10 16 -10 6 0 7 5 4 10 -3 6 -11 10 -16 10 -6
0 -7 -4 -4 -10z"/>
<path d="M2710 8370 c-9 -6 -10 -10 -3 -10 6 0 15 5 18 10 8 12 4 12 -15 0z"/>
<path d="M2795 8372 c-11 -2 -42 -11 -70 -19 -27 -9 -57 -17 -66 -18 -19 -1
-37 -15 -94 -75 -38 -39 -42 -46 -27 -54 32 -18 116 -11 221 19 57 17 97 31
88 33 -11 2 -18 21 -24 60 -7 50 -11 57 -28 54z m-188 -154 c-2 -13 -4 -3 -4
22 0 25 2 35 4 23 2 -13 2 -33 0 -45z"/>
<path d="M2945 8332 c-4 -28 -12 -53 -18 -55 -7 -2 2 -3 18 0 30 4 219 24 242
26 7 0 10 4 7 9 -8 13 -85 50 -92 44 -3 -3 1 -6 8 -6 7 0 11 -2 8 -5 -7 -7
-39 5 -34 14 2 3 -8 6 -22 7 -15 0 -46 4 -68 8 l-42 8 -7 -50z m234 -18 c14
-12 -19 -1 -35 12 -18 14 -18 14 6 3 14 -6 27 -13 29 -15z"/>
<path d="M7267 8369 c7 -7 15 -10 18 -7 3 3 -2 9 -12 12 -14 6 -15 5 -6 -5z"/>
<path d="M7496 8360 l-58 -5 56 -28 56 -27 11 27 c5 14 6 29 2 32 -4 3 -34 4
-67 1z"/>
<path d="M2430 8327 l0 -27 43 21 c23 12 43 23 45 24 2 2 -17 5 -42 7 -44 3
-46 2 -46 -25z"/>
<path d="M2550 8340 c-12 -12 -19 -24 -16 -28 4 -3 16 4 28 16 12 12 19 24 16
28 -4 3 -16 -4 -28 -16z"/>
<path d="M7410 8345 c7 -8 17 -15 22 -15 6 0 5 7 -2 15 -7 8 -17 15 -22 15 -6
0 -5 -7 2 -15z"/>
<path d="M7420 8310 c0 -5 10 -15 23 -21 22 -12 22 -12 3 10 -21 23 -26 26
-26 11z"/>
<path d="M2555 8300 c-3 -6 1 -7 9 -4 18 7 21 14 7 14 -6 0 -13 -4 -16 -10z"/>
<path d="M3055 8270 c-101 -9 -176 -25 -295 -62 -117 -36 -191 -39 -250 -10
l-43 21 -51 -45 c-28 -24 -89 -89 -136 -144 -92 -109 -106 -117 -201 -108
l-49 5 -9 -36 c-24 -97 -24 -99 19 -121 22 -11 41 -20 44 -20 2 0 14 16 26 35
12 19 27 34 33 32 7 -1 11 6 11 15 -1 10 2 16 6 13 5 -3 43 37 85 90 42 52 89
103 104 114 28 20 28 20 136 1 184 -34 290 -22 455 49 82 35 280 156 280 170
0 10 -67 10 -165 1z"/>
<path d="M2878 8263 c7 -3 16 -2 19 1 4 3 -2 6 -13 5 -11 0 -14 -3 -6 -6z"/>
<path d="M6780 8256 c18 -23 210 -117 221 -110 8 4 9 3 5 -5 -5 -7 16 -22 61
-42 156 -70 301 -85 467 -49 l90 20 24 -23 c14 -12 58 -63 98 -114 41 -50 80
-95 86 -99 7 -5 -5 14 -28 41 -38 46 -66 88 -50 74 17 -15 145 -183 143 -188
-4 -13 20 -8 56 10 41 21 44 33 26 104 l-11 43 -59 -5 c-35 -4 -70 -1 -88 6
-16 7 -60 49 -98 94 -80 96 -192 210 -201 204 -93 -50 -149 -51 -308 -4 -163
48 -226 58 -344 56 -77 -1 -98 -4 -90 -13z m920 -236 c17 -22 29 -40 27 -40
-3 0 -20 18 -37 40 -17 22 -29 40 -27 40 3 0 20 -18 37 -40z"/>
<path d="M2081 8204 c0 -11 3 -14 6 -6 3 7 2 16 -1 19 -3 4 -6 -2 -5 -13z"/>
<path d="M7683 8205 c-3 -9 -3 -18 -1 -21 3 -3 8 4 11 16 6 23 -1 27 -10 5z"/>
<path d="M8086 8155 c16 -39 18 -57 4 -35 -8 13 -19 10 -76 -18 -61 -31 -66
-32 -61 -13 3 12 1 21 -3 21 -5 0 -11 14 -15 31 -4 17 -9 28 -12 26 -3 -3 7
-44 22 -91 14 -48 23 -91 20 -96 -3 -6 -34 -10 -68 -11 l-62 0 33 -16 c17 -9
32 -20 32 -24 0 -4 12 -4 28 0 15 4 32 6 38 4 6 -2 14 6 17 18 5 19 11 21 74
17 l68 -3 0 65 c0 64 -27 160 -45 160 -5 0 -2 -16 6 -35z"/>
<path d="M2316 8154 c-7 -18 25 -27 42 -11 12 12 10 15 -12 19 -15 3 -27 0
-30 -8z"/>
<path d="M7632 8149 c2 -6 8 -10 13 -10 5 0 11 4 13 10 2 6 -4 11 -13 11 -9 0
-15 -5 -13 -11z"/>
<path d="M2061 8134 c0 -11 3 -14 6 -6 3 7 2 16 -1 19 -3 4 -6 -2 -5 -13z"/>
<path d="M1881 8090 c-15 -52 -26 -160 -14 -144 4 7 36 15 70 19 50 6 64 4 68
-7 4 -9 21 -15 41 -16 19 -1 39 -4 45 -7 5 -4 16 1 25 9 14 15 11 16 -35 16
-47 0 -51 2 -51 23 0 13 7 46 15 72 8 27 12 51 9 54 -3 3 -7 -5 -11 -17 -7
-28 -13 -28 -74 3 -27 14 -54 23 -59 20 -4 -3 -10 0 -12 6 -2 7 -10 -7 -17
-31z"/>
<path d="M2170 7960 c-8 -5 -12 -11 -9 -14 2 -3 11 -1 19 4 8 5 12 11 9 14 -2
3 -11 1 -19 -4z"/>
<path d="M7802 7958 c3 -7 13 -15 24 -17 16 -3 17 -1 5 13 -16 19 -34 21 -29
4z"/>
<path d="M2381 7919 c5 -3 -8 -11 -29 -18 -47 -16 -142 -80 -142 -95 0 -16 62
-76 78 -76 7 0 43 15 80 34 76 38 259 102 321 112 23 4 45 12 51 19 9 11 6 12
-11 8 -12 -4 -20 -2 -17 3 4 5 -6 10 -20 10 -15 1 -55 5 -88 9 -58 7 -62 6
-69 -14 -8 -26 -21 -27 -28 -1 -4 17 -13 19 -70 17 -36 -1 -61 -4 -56 -8z"/>
<path d="M7320 7915 c-25 -8 -52 -13 -60 -10 -8 2 -22 0 -30 -6 -12 -8 -10 -9
8 -4 12 3 22 2 22 -3 0 -5 20 -13 45 -17 65 -9 152 -39 289 -98 l119 -51 34
39 c18 21 33 44 33 51 0 7 -16 22 -35 34 -19 12 -35 24 -35 27 0 3 11 -2 25
-11 75 -49 80 -51 68 -35 -18 23 -111 71 -123 64 -5 -3 -10 -2 -10 4 0 6 -7 7
-17 4 -10 -4 -14 -2 -10 4 5 7 -1 9 -15 5 -11 -3 -19 -1 -16 4 3 5 -23 10 -58
12 -59 3 -65 1 -73 -20 l-8 -22 -14 22 c-16 26 -68 29 -139 7z"/>
<path d="M2248 7871 c-25 -16 -49 -35 -53 -41 -4 -7 5 -4 21 7 16 11 45 30 64
42 19 11 30 21 24 21 -5 0 -31 -13 -56 -29z"/>
<path d="M2645 7845 c-132 -34 -183 -54 -360 -141 -147 -72 -165 -79 -222 -79
-55 -1 -64 -4 -83 -28 -13 -16 -19 -34 -16 -45 4 -11 -12 -58 -39 -116 -26
-54 -44 -100 -41 -103 2 -3 27 43 55 101 l51 106 138 0 c92 0 158 5 197 15
121 32 267 121 397 245 71 67 72 69 43 69 -16 0 -70 -11 -120 -24z"/>
<path d="M7241 7834 c39 -40 63 -46 28 -6 -16 18 -12 16 13 -7 20 -19 36 -38
35 -44 -3 -14 106 -101 183 -147 124 -74 266 -106 417 -95 l91 7 17 -29 c9
-15 13 -19 9 -8 -4 11 -7 31 -7 45 1 13 -8 37 -19 53 -19 26 -25 28 -59 23
-48 -8 -96 8 -269 91 -203 97 -316 137 -424 147 l-49 5 34 -35z m130 -91 c13
-16 12 -17 -3 -4 -10 7 -18 15 -18 17 0 8 8 3 21 -13z"/>
<path d="M1775 7797 c17 -62 18 -61 -30 -80 -44 -19 -45 -20 -46 -65 -1 -26
-5 -58 -9 -72 -7 -21 -8 -18 -11 20 -1 25 -2 51 -2 58 1 7 -16 22 -38 32 -47
24 -49 24 -50 3 0 -16 -1 -16 -8 1 -10 25 -38 -72 -47 -163 l-7 -63 71 4 70 4
6 -29 c3 -16 6 -44 6 -63 0 -33 17 -55 29 -37 3 6 29 22 56 36 l50 26 -64 1
-64 0 6 51 c4 29 8 54 11 56 2 3 32 7 65 10 70 7 70 8 59 116 -4 40 -17 89
-33 120 -14 28 -23 44 -20 34z"/>
<path d="M7768 7760 c-21 -20 -38 -40 -38 -43 0 -19 30 -2 67 36 52 54 26 60
-29 7z"/>
<path d="M8206 7775 c-9 -26 -7 -32 5 -12 6 10 9 21 6 23 -2 3 -7 -2 -11 -11z"/>
<path d="M8096 7710 c-15 -33 -26 -65 -24 -72 2 -6 17 19 32 56 34 86 29 96
-8 16z"/>
<path d="M8405 7726 c17 -40 19 -59 5 -36 -8 12 -15 11 -54 -8 -45 -21 -46
-23 -47 -69 -1 -49 -3 -46 -20 44 -9 47 -13 53 -50 67 -22 9 -41 16 -43 16
-10 0 -27 -72 -32 -135 l-6 -70 62 -1 c33 -1 63 -4 66 -7 2 -2 7 -27 11 -56
l6 -51 -66 0 c-52 0 -68 4 -76 18 -9 15 -10 15 -11 1 0 -10 25 -29 63 -49 34
-19 64 -37 65 -42 2 -4 9 -8 17 -8 14 0 25 43 25 101 l0 39 71 0 71 0 -5 78
c-4 73 -37 185 -57 197 -5 3 -3 -10 5 -29z"/>
<path d="M1880 7726 c0 -11 40 -86 45 -86 3 0 -4 19 -16 43 -23 45 -29 54 -29
43z"/>
<path d="M2059 7681 c-33 -33 -32 -41 5 -41 38 0 45 13 23 41 -11 14 -13 14
-28 0z"/>
<path d="M7898 7676 c-20 -28 -15 -36 23 -36 36 0 45 16 23 41 -22 24 -25 24
-46 -5z"/>
<path d="M7951 7697 c2 -1 12 -9 22 -16 14 -12 17 -11 17 3 0 10 -8 16 -22 16
-12 0 -19 -1 -17 -3z"/>
<path d="M2000 7668 c0 -17 3 -19 9 -9 5 7 15 17 22 22 10 6 8 9 -8 9 -17 0
-23 -6 -23 -22z"/>
<path d="M1945 7670 c-13 -6 -15 -9 -5 -9 8 0 22 4 30 9 18 12 2 12 -25 0z"/>
<path d="M3175 7530 c55 -55 102 -100 105 -100 2 0 -40 45 -95 100 -55 55
-102 100 -105 100 -2 0 40 -45 95 -100z"/>
<path d="M3210 7525 l105 -105 660 2 660 3 -642 2 -643 3 2 26 c3 28 41 63 93
86 76 33 2295 40 2295 7 0 -5 11 -9 24 -9 13 0 29 -7 36 -15 7 -8 23 -15 37
-15 13 0 26 -7 29 -15 4 -8 17 -15 30 -15 21 0 24 -5 24 -35 0 -26 -4 -35 -17
-36 -10 0 20 -8 67 -18 89 -19 193 -66 293 -133 l59 -38 46 39 c26 21 70 64
99 94 43 47 49 58 37 68 -12 10 -13 9 -7 -7 7 -18 6 -18 -17 -1 -14 10 -46 32
-72 49 -27 17 -48 33 -48 35 0 5 38 -16 96 -53 l29 -18 -19 22 c-22 25 -164
97 -174 88 -3 -3 1 -6 8 -6 7 0 11 -2 8 -5 -9 -10 -38 7 -31 18 3 5 1 7 -5 3
-6 -3 -46 5 -89 19 -193 61 -115 58 -1663 62 l-1415 4 105 -106z"/>
<path d="M1955 7610 c3 -5 8 -10 11 -10 2 0 4 5 4 10 0 6 -5 10 -11 10 -5 0
-7 -4 -4 -10z"/>
<path d="M8020 7611 c0 -17 15 -19 35 -5 18 13 18 14 -8 14 -15 0 -27 -4 -27
-9z"/>
<path d="M1936 7565 c-9 -26 -7 -32 5 -12 6 10 9 21 6 23 -2 3 -7 -2 -11 -11z"/>
<path d="M8051 7555 c0 -5 6 -21 14 -35 8 -14 14 -20 14 -15 0 6 -6 21 -14 35
-8 14 -14 21 -14 15z"/>
<path d="M8057 7445 c9 -19 18 -33 21 -31 4 5 -26 66 -33 66 -3 0 3 -16 12
-35z"/>
<path d="M7661 7448 c-30 -3 -61 -4 -70 -1 -14 4 -14 3 -1 -6 8 -6 11 -11 5
-11 -5 0 26 -15 71 -33 45 -18 121 -59 170 -91 l89 -58 37 42 c24 27 36 50 34
64 -4 30 -101 88 -134 79 -16 -4 -23 -2 -18 5 4 6 -2 8 -16 4 -11 -3 -19 -1
-16 4 7 11 -74 12 -151 2z m277 -48 c28 -17 52 -33 52 -35 0 -3 -26 9 -57 27
-67 37 -69 38 -57 38 5 0 33 -14 62 -30z"/>
<path d="M1830 7441 c0 -5 5 -13 10 -16 6 -3 10 -2 10 4 0 5 -4 13 -10 16 -5
3 -10 2 -10 -4z"/>
<path d="M2200 7438 c-36 -4 -71 -6 -78 -3 -8 3 -10 0 -6 -7 5 -8 0 -9 -15 -5
-24 6 -68 -10 -116 -43 -43 -29 -27 -25 36 10 30 16 59 30 64 29 6 0 -8 -9
-30 -21 -55 -28 -77 -49 -70 -66 4 -12 3 -12 -9 -3 -9 8 -16 9 -21 2 -3 -6 12
-30 34 -53 l40 -43 38 21 c21 12 71 40 111 64 40 24 110 58 154 76 66 26 77
34 57 38 -52 10 -127 12 -189 4z"/>
<path d="M5223 7423 c97 -2 257 -2 355 0 97 1 17 2 -178 2 -195 0 -275 -1
-177 -2z"/>
<path d="M8116 7417 c3 -10 9 -15 12 -12 3 3 0 11 -7 18 -10 9 -11 8 -5 -6z"/>
<path d="M2370 7391 c-113 -42 -172 -74 -321 -176 -167 -114 -207 -135 -258
-135 -34 0 -44 5 -64 33 -13 17 -30 47 -37 65 -13 34 -24 35 -78 8 l-23 -12
35 -53 c20 -29 36 -55 36 -58 0 -10 -41 46 -76 104 -19 31 -34 53 -34 49 0
-17 62 -124 90 -155 29 -31 30 -31 60 -16 l30 16 0 -38 c0 -48 13 -71 32 -56
7 6 45 13 83 17 191 16 344 105 502 289 95 112 121 147 106 147 -4 -1 -42 -14
-83 -29z"/>
<path d="M4673 7413 c9 -2 23 -2 30 0 6 3 -1 5 -18 5 -16 0 -22 -2 -12 -5z"/>
<path d="M4973 7413 c9 -2 25 -2 35 0 9 3 1 5 -18 5 -19 0 -27 -2 -17 -5z"/>
<path d="M5833 7413 c9 -2 25 -2 35 0 9 3 1 5 -18 5 -19 0 -27 -2 -17 -5z"/>
<path d="M4765 7390 c28 -10 59 -19 70 -19 11 0 -7 9 -40 19 -76 25 -96 25
-30 0z"/>
<path d="M8146 7402 c-7 -12 19 -35 34 -30 7 2 3 11 -8 21 -11 10 -23 14 -26
9z"/>
<path d="M1815 7389 c-4 -6 -5 -12 -2 -15 7 -7 37 7 37 17 0 13 -27 11 -35 -2z"/>
<path d="M3192 7287 c-62 -62 -110 -116 -106 -120 10 -10 1502 -9 1506 1 5 13
214 122 233 122 20 0 247 -115 240 -122 -2 -2 150 -4 338 -4 228 1 367 -3 417
-12 146 -24 281 -114 349 -233 17 -30 31 -50 31 -46 0 16 -44 93 -78 137 -26
34 -27 37 -6 15 16 -17 41 -46 55 -65 l26 -34 106 54 c82 42 107 60 107 75 0
27 -89 135 -148 181 -72 55 -218 122 -307 142 -70 15 -140 17 -540 17 -417 0
-464 -2 -505 -18 -24 -10 -52 -25 -62 -34 -17 -15 -19 -15 -37 1 -11 10 -47
26 -81 37 -58 18 -99 19 -744 19 l-681 0 -113 -113z m2869 -214 c13 -16 12
-17 -3 -4 -10 7 -18 15 -18 17 0 8 8 3 21 -13z"/>
<path d="M7576 7367 c18 -34 222 -247 237 -247 4 0 5 5 1 12 -4 7 -3 8 5 4 6
-4 9 -11 6 -16 -11 -18 115 -88 209 -115 32 -10 94 -20 137 -24 75 -6 78 -6
88 17 6 12 11 29 11 37 0 19 14 19 30 0 7 -8 16 -15 21 -15 12 0 97 122 118
171 34 80 32 106 -3 34 -19 -38 -35 -65 -35 -60 -1 6 -21 18 -45 27 l-45 17
-11 -35 c-7 -19 -23 -48 -37 -64 -52 -62 -126 -36 -356 125 -148 104 -249 156
-309 161 l-38 2 16 -31z m38 -17 c15 -23 57 -74 94 -114 59 -64 57 -63 -13 9
-44 46 -88 97 -98 114 -26 45 -14 38 17 -9z"/>
<path d="M7985 7293 c-48 -51 -53 -63 -31 -63 18 0 83 74 83 95 0 22 -3 20
-52 -32z"/>
<path d="M1384 7271 c4 -6 3 -11 -2 -11 -6 0 -8 -9 -5 -20 3 -11 10 -17 15
-14 5 3 7 12 4 20 -3 8 0 11 10 7 22 -8 17 5 -7 18 -15 8 -19 8 -15 0z"/>
<path d="M1326 7200 c-20 -69 -23 -93 -30 -204 -3 -56 -2 -67 3 -36 5 25 9 39
9 33 1 -9 19 -13 50 -13 l48 0 17 -72 c10 -40 17 -78 17 -84 0 -6 8 -29 17
-50 9 -22 16 -43 15 -47 -2 -5 3 -24 9 -42 l12 -34 70 36 c51 25 72 31 77 23
7 -12 70 231 70 270 0 24 -27 33 -35 13 -13 -36 -45 -195 -45 -228 0 -63 -17
-37 -24 38 -11 115 -15 138 -36 202 -23 68 -46 108 -36 63 3 -14 9 -34 12 -45
5 -14 4 -15 -4 -3 -9 12 -18 11 -59 -9 -46 -21 -49 -25 -45 -54 10 -69 -9 -14
-28 79 -22 115 -35 163 -54 199 -13 25 -14 24 -30 -35z"/>
<path d="M8632 7244 c-5 -11 -22 -77 -37 -149 -16 -71 -31 -133 -34 -137 -8
-9 -79 17 -112 41 l-27 20 -15 -57 c-9 -31 -19 -92 -23 -134 -8 -89 -20 -103
-21 -25 -1 70 -43 201 -66 205 -24 5 -22 -13 15 -165 27 -110 34 -130 46 -121
11 10 17 7 30 -9 17 -21 100 -68 108 -60 2 2 7 18 10 35 l7 32 -62 0 c-48 0
-61 3 -61 15 0 12 13 15 60 15 33 0 60 4 60 10 0 6 5 9 11 8 10 -3 19 28 54
180 5 19 12 22 59 22 51 0 54 2 59 27 11 59 -18 229 -43 257 -5 4 -12 0 -18
-10z m-76 -331 c-10 -10 -19 5 -10 18 6 11 8 11 12 0 2 -7 1 -15 -2 -18z"/>
<path d="M1720 7155 c0 -18 8 -18 40 0 l25 14 -32 1 c-23 0 -33 -5 -33 -15z"/>
<path d="M8161 7146 c-30 -31 -20 -46 30 -46 46 0 51 16 16 48 l-23 22 -23
-24z"/>
<path d="M8211 7167 c2 -2 16 -10 30 -20 26 -15 27 -15 32 3 4 17 0 20 -31 20
-19 0 -33 -1 -31 -3z"/>
<path d="M1776 7138 c-23 -33 -20 -38 23 -38 48 0 55 8 31 38 -23 28 -35 28
-54 0z"/>
<path d="M4820 6855 c0 -197 4 -305 10 -305 6 0 10 108 10 305 0 197 -4 305
-10 305 -6 0 -10 -108 -10 -305z"/>
<path d="M6450 7021 c35 -70 70 -226 70 -305 0 -119 9 -112 -137 -104 -75 4
-129 12 -133 18 -4 6 -10 -13 -13 -43 -4 -30 -14 -70 -22 -90 -17 -42 -19 -61
-5 -52 6 3 10 1 10 -4 0 -6 50 -36 110 -66 61 -30 110 -60 110 -66 0 -6 -5
-19 -10 -30 -6 -10 -8 -19 -5 -19 8 0 61 111 78 165 23 71 43 215 46 328 1 20
41 23 118 8 26 -5 70 -12 97 -14 l49 -5 -6 92 c-6 89 -36 213 -50 209 -4 -1
-62 -29 -128 -63 -67 -34 -124 -58 -128 -53 -4 4 -15 29 -25 54 -9 25 -23 54
-32 65 -8 10 -5 -1 6 -25z"/>
<path d="M7826 6935 c3 -6 24 -21 48 -34 25 -12 75 -48 112 -80 110 -93 100
-89 139 -51 42 41 43 57 8 88 -28 23 -9 16 37 -15 22 -15 23 -15 10 0 -8 8
-42 32 -74 51 -43 26 -66 34 -84 29 -16 -4 -23 -2 -18 5 4 6 -2 8 -16 4 -11
-3 -19 -1 -16 4 4 5 -28 9 -72 9 -48 0 -76 -4 -74 -10z m244 -30 c17 -9 30
-18 30 -21 0 -4 -59 23 -69 32 -10 9 13 3 39 -11z"/>
<path d="M2033 6929 c-74 -12 -153 -44 -193 -78 l-35 -29 40 -41 c21 -23 43
-41 48 -41 5 0 37 22 71 49 33 26 94 70 134 96 39 26 72 50 72 51 0 7 -83 2
-137 -7z"/>
<path d="M1848 6881 c-25 -16 -49 -35 -54 -43 -4 -7 1 -6 12 4 10 9 39 28 64
42 25 14 40 26 34 26 -5 0 -31 -13 -56 -29z"/>
<path d="M2172 6866 c-12 -25 -20 -46 -18 -46 9 0 47 71 44 81 -2 5 -13 -10
-26 -35z"/>
<path d="M2156 6874 c-4 -10 -13 -14 -26 -11 -28 7 -147 -80 -269 -195 -147
-139 -212 -158 -309 -93 -28 20 -52 40 -52 46 0 6 5 7 12 3 7 -4 8 -3 4 5 -4
6 -11 9 -16 6 -4 -3 -17 7 -27 21 l-19 26 -47 -23 c-26 -13 -47 -26 -47 -30 0
-4 16 -31 35 -60 33 -50 13 -35 -28 21 -17 24 -17 24 0 -10 32 -63 210 -229
190 -177 -6 17 25 12 59 -10 17 -11 31 -9 99 18 131 50 216 100 281 164 65 65
130 167 118 186 -4 7 -3 9 4 5 10 -6 28 30 24 47 -1 4 5 21 14 38 8 17 13 33
11 35 -3 3 -7 -3 -11 -12z"/>
<path d="M7810 6862 c0 -15 90 -166 132 -220 76 -99 224 -201 338 -233 25 -7
51 -17 58 -23 9 -7 16 -6 20 1 12 20 58 26 73 10 12 -12 26 -3 101 66 69 63
95 95 123 150 38 75 49 130 12 60 l-22 -42 -44 19 c-59 27 -73 25 -98 -14 -12
-19 -42 -48 -67 -65 -91 -63 -163 -35 -349 132 -145 131 -188 161 -217 152
-11 -3 -20 -10 -20 -15 0 -14 48 -99 87 -154 19 -26 30 -45 24 -41 -16 9 -84
112 -115 173 -25 49 -36 63 -36 44z m205 -272 c10 -11 16 -20 13 -20 -3 0 -13
9 -23 20 -10 11 -16 20 -13 20 3 0 13 -9 23 -20z"/>
<path d="M8306 6727 c3 -10 9 -15 12 -12 3 3 0 11 -7 18 -10 9 -11 8 -5 -6z"/>
<path d="M1577 6657 c-19 -24 -32 -48 -29 -53 30 -42 128 -58 171 -28 l23 16
-32 33 c-29 30 -72 53 -68 36 3 -10 -22 -51 -32 -51 -5 0 -2 16 6 36 23 56 3
62 -39 11z"/>
<path d="M8346 6683 c-6 -14 -5 -15 5 -6 7 7 10 15 7 18 -3 3 -9 -2 -12 -12z"/>
<path d="M8373 6668 c2 -13 8 -32 12 -43 6 -14 -2 -10 -28 14 l-37 35 -34 -40
c-40 -46 -35 -57 33 -74 45 -10 50 -9 89 16 23 15 42 33 42 39 0 13 -62 75
-74 75 -5 0 -6 -10 -3 -22z"/>
<path d="M1187 6608 c-5 -15 23 -78 35 -78 4 0 8 -6 8 -14 0 -23 16 -27 33 -8
15 16 13 20 -30 55 -25 20 -42 37 -38 37 5 0 17 -7 27 -17 10 -9 20 -14 22
-12 2 2 -9 14 -24 27 -20 15 -30 18 -33 10z"/>
<path d="M8778 6602 c-16 -9 -28 -21 -28 -26 0 -5 8 -2 18 6 9 8 26 20 37 26
11 6 16 11 10 11 -5 0 -22 -7 -37 -17z"/>
<path d="M8806 6555 c-41 -88 -78 -177 -73 -181 2 -2 14 21 26 51 18 44 27 55
46 55 21 0 24 5 27 63 2 34 3 63 2 65 -1 1 -13 -22 -28 -53z"/>
<path d="M1158 6594 c-14 -13 -8 -39 11 -51 10 -6 37 -57 61 -112 48 -111 64
-132 24 -30 -43 109 -89 201 -96 193z"/>
<path d="M8772 6567 c-20 -21 -21 -37 -2 -37 8 0 32 51 27 56 -2 2 -13 -7 -25
-19z"/>
<path d="M8727 6534 c-8 -9 11 -44 24 -44 6 0 9 10 7 22 -3 22 -19 34 -31 22z"/>
<path d="M4705 6420 c-74 -76 -105 -114 -98 -121 17 -17 439 -8 455 10 7 8 8
11 2 8 -6 -3 -59 43 -120 104 -60 60 -113 109 -119 109 -6 0 -60 -50 -120
-110z"/>
<path d="M1153 6450 c0 -30 2 -43 4 -27 2 15 2 39 0 55 -2 15 -4 2 -4 -28z"/>
<path d="M1980 6408 c-25 -4 -51 -6 -58 -3 -8 3 -10 0 -6 -7 5 -7 -2 -9 -22
-5 -16 3 -23 4 -17 1 7 -3 -13 -19 -46 -35 -32 -16 -66 -38 -76 -49 -19 -20
-18 -22 23 -62 l41 -42 86 85 c47 46 90 84 95 84 4 0 12 4 17 9 5 5 2 6 -7 2
-8 -4 -6 0 4 8 26 21 19 24 -34 14z"/>
<path d="M7968 6406 c3 -6 7 -15 7 -21 1 -5 5 -9 11 -8 6 1 50 -36 99 -83 48
-46 91 -84 95 -84 4 0 28 22 53 50 l46 50 -33 25 c-44 33 -101 56 -122 48 -12
-5 -15 -3 -9 6 6 10 2 11 -15 6 -16 -5 -20 -4 -15 5 5 9 2 10 -12 6 -10 -3
-40 -2 -66 3 -34 6 -45 5 -39 -3z m292 -99 c0 -5 -13 1 -30 13 -39 27 -39 34
0 12 16 -9 30 -21 30 -25z"/>
<path d="M1800 6366 c-25 -13 -54 -34 -65 -47 l-20 -24 20 16 c11 9 45 31 75
48 64 36 56 41 -10 7z"/>
<path d="M1579 6338 l-1 -33 -8 30 c-5 18 -7 -11 -5 -75 3 -72 1 -91 -4 -60
l-8 45 -1 -45 c-3 -70 14 -116 56 -150 l37 -30 -48 0 c-41 0 -47 3 -47 21 0
11 -4 17 -10 14 -11 -7 -13 3 -11 53 1 35 -34 138 -51 148 -6 4 -5 -3 2 -16
14 -26 19 -21 -57 -59 -79 -39 -83 -24 -5 20 69 39 55 51 -18 14 -28 -14 -55
-23 -60 -20 -5 3 -19 33 -31 66 -12 33 -24 58 -26 55 -12 -12 126 -306 174
-371 15 -20 15 -20 9 1 -5 17 1 24 33 38 37 17 40 17 60 0 66 -58 58 -56 80
-20 12 18 21 38 21 45 0 6 6 11 13 11 6 1 -1 8 -18 17 -59 31 -91 74 -70 95 8
8 11 238 3 238 -5 0 -9 -15 -9 -32z"/>
<path d="M8403 6260 c1 -63 7 -118 12 -122 15 -11 -5 -38 -53 -73 -45 -33 -53
-46 -22 -38 11 3 36 23 55 44 35 39 35 39 29 112 -4 39 -10 99 -15 132 -6 50
-7 41 -6 -55z"/>
<path d="M8716 6345 c-9 -26 -7 -32 5 -12 6 10 9 21 6 23 -2 3 -7 -2 -11 -11z"/>
<path d="M6454 6274 c-14 -18 -31 -32 -37 -31 -7 1 -11 -4 -9 -12 10 -49 -223
-207 -378 -256 -58 -18 -160 -74 -160 -87 0 -12 192 -106 231 -113 26 -5 61 3
147 33 163 58 251 111 358 217 76 75 98 104 133 176 22 47 41 92 41 100 -1 8
-14 -14 -30 -48 -16 -35 -31 -63 -35 -63 -3 0 -1 9 5 19 14 26 13 34 -3 28 -8
-3 -34 4 -58 15 -37 17 -64 24 -112 27 -5 1 -5 5 -2 11 4 6 -1 7 -11 3 -10 -3
-15 -2 -12 3 4 5 -5 10 -18 10 -17 1 -32 -8 -50 -32z"/>
<path d="M8675 6240 c-10 -23 -22 -43 -26 -46 -5 -3 -31 7 -59 21 -28 14 -56
23 -62 19 -6 -4 16 -21 53 -40 77 -40 63 -45 -16 -7 -50 25 -55 30 -50 53 l5
25 -14 -26 c-8 -14 -21 -56 -29 -95 -9 -38 -16 -61 -16 -51 -1 9 -5 17 -11 17
-5 0 -10 -23 -10 -51 l0 -52 -55 7 c-61 7 -68 -1 -36 -43 l19 -24 36 21 c46
27 62 27 105 1 18 -11 34 -19 35 -17 14 18 112 212 131 259 29 68 29 92 0 29z
m-205 -185 c0 -8 -4 -15 -10 -15 -5 0 -10 7 -10 15 0 8 5 15 10 15 6 0 10 -7
10 -15z"/>
<path d="M6049 6243 c-1 -5 -1 -11 0 -15 2 -14 -98 -58 -165 -74 -67 -15 -346
-33 -526 -34 -59 0 -99 -4 -104 -11 -3 -6 37 -51 95 -106 l101 -94 92 -4 c51
-1 104 -5 118 -8 14 -3 51 -11 82 -18 l57 -13 61 43 c33 23 96 56 140 72 80
29 193 82 218 102 20 16 -125 159 -151 151 -13 -4 -17 -2 -13 5 4 6 5 11 2 11
-3 0 -7 -3 -7 -7z m-684 -233 c55 -55 97 -100 95 -100 -3 0 -50 45 -105 100
-55 55 -97 100 -95 100 3 0 50 -45 105 -100z"/>
<path d="M1989 6195 l-14 -35 -54 25 -54 26 -32 -31 c-17 -17 -35 -27 -39 -23
-4 4 -4 0 -1 -9 6 -15 -9 -33 -30 -33 -5 0 -10 -9 -10 -20 0 -11 -6 -19 -12
-17 -7 1 -12 -1 -10 -6 3 -9 -62 -90 -120 -151 -38 -38 -47 -43 -75 -37 -51
10 -93 50 -142 135 -41 72 -86 119 -86 92 0 -6 -7 -7 -17 -4 -10 4 -14 2 -10
-4 4 -7 0 -9 -10 -7 -10 3 -26 -1 -37 -9 -18 -13 -18 -15 2 -54 12 -22 34 -55
49 -74 15 -18 22 -30 16 -25 -7 4 -13 3 -13 -3 0 -12 35 -33 42 -25 3 2 11 -4
19 -13 13 -17 13 -17 -6 -3 -20 15 -20 15 -1 -8 11 -12 26 -20 33 -18 7 3 12
0 10 -7 -1 -7 6 -11 15 -11 10 1 16 -3 15 -8 -1 -5 24 -24 56 -43 55 -33 71
-35 45 -5 -11 12 -10 12 5 0 14 -10 21 -10 29 -2 19 19 49 14 55 -8 5 -19 6
-19 25 5 11 14 36 34 57 44 71 37 161 113 211 179 45 61 118 208 107 218 -2 3
-10 -11 -18 -31z m-19 -43 c0 -5 -7 -17 -15 -28 -14 -18 -14 -17 -4 9 12 27
19 34 19 19z"/>
<path d="M5990 6210 c-9 -6 -10 -10 -3 -10 6 0 15 5 18 10 8 12 4 12 -15 0z"/>
<path d="M8376 6195 c8 -37 14 -45 14 -19 0 10 -5 26 -10 34 -8 11 -9 7 -4
-15z"/>
<path d="M8080 6187 c-25 -12 -47 -23 -49 -24 -2 -1 11 -28 28 -60 18 -32 25
-49 16 -38 -9 11 -28 41 -41 68 -13 26 -27 47 -30 47 -14 0 63 -123 88 -141
15 -11 28 -25 28 -30 0 -5 13 -22 28 -37 15 -15 19 -20 8 -12 -12 8 -8 1 8
-18 17 -17 37 -31 45 -30 9 2 15 -3 14 -9 -2 -7 31 -35 72 -63 41 -28 75 -55
75 -61 0 -6 7 -3 16 5 16 17 44 22 44 8 0 -12 42 -34 49 -25 3 5 38 24 76 42
121 59 246 209 270 326 4 19 -5 9 -24 -30 -16 -33 -30 -53 -30 -44 -1 10 -22
25 -57 39 -63 26 -57 29 -101 -55 -14 -27 -36 -65 -49 -85 -26 -39 -89 -80
-122 -80 -25 0 -74 39 -66 52 4 6 2 8 -4 5 -5 -4 -24 13 -40 38 -17 25 -42 55
-57 67 -14 11 -24 26 -21 33 3 8 -2 19 -10 25 -8 7 -14 9 -14 5 0 -4 -7 -2
-15 5 -18 15 -20 34 -2 24 8 -5 7 -2 -2 9 -8 10 -16 15 -19 12 -3 -3 -19 8
-36 24 l-31 29 -45 -21z m299 -391 c-3 -3 -11 5 -18 17 -13 21 -12 21 5 5 10
-10 16 -20 13 -22z"/>
<path d="M8351 6098 c-18 -21 -29 -38 -25 -38 19 0 74 41 74 54 0 28 -15 23
-49 -16z"/>
<path d="M1594 6115 c-8 -19 7 -34 59 -61 38 -21 34 -5 -13 41 -35 34 -40 36
-46 20z"/>
<path d="M1542 6095 c0 -16 2 -22 5 -12 2 9 2 23 0 30 -3 6 -5 -1 -5 -18z"/>
<path d="M3108 6106 c3 -5 -3 -6 -14 -2 -10 4 28 -41 86 -99 57 -58 109 -105
115 -105 5 0 -35 46 -90 103 l-100 102 100 -97 100 -98 455 0 454 -1 101 102
c55 56 94 98 88 95 -7 -4 -13 -4 -13 1 0 4 -290 8 -644 8 -389 0 -642 -4 -638
-9z m1282 -9 c0 -1 -44 -45 -97 -97 l-98 -95 95 98 c88 90 100 102 100 94z"/>
<path d="M1190 6086 c0 -17 60 -113 82 -132 23 -19 23 -19 6 1 -9 11 -33 47
-52 79 -20 33 -36 56 -36 52z"/>
<path d="M8431 5956 c-14 -15 -21 -32 -18 -40 8 -20 47 -21 73 -2 19 15 18 15
-7 41 l-25 26 -23 -25z"/>
<path d="M1517 5952 c-22 -24 -21 -38 1 -48 21 -9 42 -6 60 8 10 9 8 16 -9 35
-27 28 -31 28 -52 5z"/>
<path d="M8860 5920 c-8 -5 -10 -10 -5 -10 6 0 -14 -14 -44 -30 -71 -39 -121
-78 -121 -94 0 -7 13 -25 29 -40 l29 -28 49 69 c86 123 112 152 43 48 -35 -52
-42 -65 -37 -65 2 0 25 32 51 70 25 39 43 70 39 69 -20 -3 -27 2 -13 11 8 5
11 10 5 10 -5 0 -17 -5 -25 -10z"/>
<path d="M1117 5898 c-16 -12 -15 -15 9 -43 l25 -30 -17 30 -17 30 26 -30 c28
-32 35 -51 15 -39 -8 4 -10 3 -5 -2 5 -5 14 -9 19 -9 6 0 13 -6 16 -14 3 -9 0
-11 -9 -6 -8 5 -11 4 -6 -1 5 -5 14 -9 19 -9 6 0 13 -6 16 -14 3 -9 0 -11 -9
-6 -8 5 -11 4 -6 -1 5 -5 14 -9 20 -9 5 0 12 -6 15 -14 3 -9 0 -11 -8 -6 -9 6
-9 3 -1 -14 13 -24 23 -28 15 -6 -4 9 0 15 8 15 15 0 58 52 58 69 0 6 -18 23
-40 37 -22 15 -40 29 -40 31 0 6 19 -5 57 -33 34 -26 48 -31 37 -13 -9 14
-104 74 -129 81 -11 3 -27 9 -35 12 -9 4 -23 1 -33 -6z m88 -28 c3 -6 -1 -7
-9 -4 -18 7 -21 14 -7 14 6 0 13 -4 16 -10z"/>
<path d="M8770 5879 c-30 -16 -66 -42 -80 -56 -14 -15 -16 -20 -5 -11 11 9 51
35 90 57 81 47 77 55 -5 10z"/>
<path d="M1976 5889 c5 -9 -1 -10 -22 -5 -16 4 -24 3 -17 -2 9 -5 1 -12 -25
-21 -20 -7 -54 -24 -75 -38 -22 -13 -41 -22 -44 -20 -2 3 14 15 36 28 23 12
39 25 36 27 -2 3 -23 -7 -46 -22 -22 -15 -38 -30 -35 -33 3 -4 -1 -14 -10 -24
-14 -16 -13 -20 19 -55 24 -27 38 -35 48 -28 8 5 17 9 21 9 3 0 10 4 15 9 5 5
3 6 -4 2 -19 -11 -16 9 4 25 15 12 16 12 8 -1 -8 -13 -7 -13 8 -1 18 15 23 26
7 16 -17 -10 -11 12 7 26 14 12 16 12 8 0 -5 -9 -4 -12 3 -7 6 4 9 12 6 19 -2
7 6 22 18 33 l23 19 -20 -25 -20 -25 22 18 c12 11 19 25 17 32 -3 7 0 16 7 21
8 5 10 3 4 -7 -8 -12 -6 -12 8 0 13 10 15 17 6 27 -14 17 -23 18 -13 3z"/>
<path d="M5465 5891 c-25 -11 -225 -214 -225 -229 0 -7 53 -12 164 -14 145 -3
163 -1 153 12 -11 13 -10 13 7 0 11 -8 198 -374 415 -812 218 -438 387 -789
377 -780 -18 16 -18 16 -7 -5 13 -26 34 -33 116 -36 136 -5 695 4 694 11 -1 4
-53 57 -116 117 l-114 110 -157 6 c-106 5 -171 12 -201 23 -53 20 -82 21 -75
3 3 -8 -10 -20 -31 -30 -52 -25 -56 -21 -10 8 22 13 34 25 26 25 -11 0 -10 3
3 13 17 12 17 14 2 20 -9 4 -16 1 -16 -6 0 -9 -2 -9 -8 0 -5 8 -13 9 -22 3 -8
-6 -19 -10 -25 -10 -5 0 5 9 22 20 21 12 31 25 27 34 -6 15 -44 18 -44 3 0 -4
-4 -6 -9 -3 -5 4 -12 0 -14 -6 -4 -10 -6 -10 -6 -1 -1 7 -8 10 -18 7 -10 -4
-3 3 15 15 18 12 30 26 27 31 -3 6 1 7 10 4 11 -5 14 -2 9 10 -4 11 -12 15
-23 10 -9 -3 -22 -7 -28 -7 -7 0 -13 -4 -13 -9 0 -5 -4 -7 -9 -4 -5 4 -11 1
-13 -6 -3 -8 -6 -7 -10 4 -5 11 4 21 33 33 41 19 44 22 31 42 -6 9 -18 7 -50
-7 -45 -20 -54 -15 -22 13 11 9 20 14 20 11 0 -3 7 2 16 11 22 22 4 40 -30 31
-14 -3 -29 -6 -32 -5 -4 0 -11 -5 -15 -13 -7 -10 -9 -10 -9 0 0 7 16 20 35 29
32 15 45 40 29 56 -4 3 -19 0 -35 -8 -34 -18 -39 -18 -39 -3 0 6 2 9 5 6 3 -3
17 4 29 15 32 28 23 48 -16 40 -24 -5 -30 -3 -26 8 3 8 12 13 21 13 10 -1 14
5 11 19 -5 29 -9 30 -43 13 -16 -9 -34 -16 -38 -16 -4 1 9 10 30 21 34 18 36
22 26 42 -7 12 -13 23 -14 25 -2 2 -21 -6 -44 -17 -58 -30 -64 -25 -9 7 46 27
49 37 23 70 -2 2 -26 -8 -54 -22 -71 -36 -77 -32 -9 7 56 32 60 41 33 75 -2 2
-26 -8 -54 -22 -28 -15 -51 -24 -51 -21 0 2 23 16 51 30 50 26 61 51 21 49
-12 0 -19 3 -16 8 7 11 -3 10 -29 -2 -20 -9 -20 -9 -4 2 52 36 50 34 38 56 -6
12 -17 22 -24 22 -8 0 -8 -3 1 -9 11 -7 10 -9 -3 -14 -11 -5 -14 -3 -9 5 5 8
1 9 -12 5 -14 -5 -12 -2 6 12 18 14 22 23 14 31 -7 7 -32 1 -85 -21 -41 -17
-85 -35 -99 -40 -24 -9 -24 -9 -5 7 11 8 52 32 90 51 84 42 77 37 69 56 -3 9
-13 14 -22 10 -13 -4 -14 -2 -4 4 10 8 11 15 1 36 -10 22 -15 24 -31 16 -11
-6 -22 -8 -26 -5 -3 3 -1 6 4 6 5 0 15 4 22 9 19 12 -5 61 -27 54 -12 -4 -13
-3 -3 4 19 14 -4 63 -27 56 -12 -4 -13 -3 -2 5 10 8 11 14 1 32 -7 13 -15 18
-19 13 -3 -6 -15 -7 -26 -3 -19 7 -19 7 3 14 23 8 26 14 14 32 -8 12 -42 15
-42 3 0 -8 -26 -6 -35 3 -4 3 3 9 15 13 14 4 19 12 15 22 -5 14 -3 14 11 2 15
-12 17 -12 12 1 -3 10 -15 14 -34 13 -48 -4 -54 -6 -54 -15 0 -5 -4 -6 -10 -3
-5 3 -10 1 -10 -6 0 -7 -3 -9 -7 -6 -7 8 20 36 52 55 14 8 16 11 5 12 -8 0
-21 10 -29 21 -13 22 -8 31 23 42 12 4 -1 27 -15 27 -6 0 -8 -3 -6 -7 8 -13
-53 -9 -61 3 -4 6 -13 13 -21 16 -9 2 -3 9 17 17 33 14 40 25 22 36 -5 3 -10
2 -10 -4 0 -6 -7 -7 -17 -4 -9 4 -14 2 -11 -3 4 -5 -7 -10 -23 -11 -46 -3 -59
-6 -59 -13 0 -3 -9 -6 -20 -7 -11 -1 -20 3 -20 8 0 6 5 7 10 4 6 -3 10 -1 10
4 0 6 -7 11 -15 11 -27 0 13 34 88 75 76 42 82 57 42 109 -19 25 -40 37 -83
49 -71 19 -200 29 -227 18z"/>
<path d="M8008 5894 c-9 -18 -2 -39 12 -39 8 0 15 -8 15 -17 0 -10 7 -23 15
-30 12 -11 12 -10 0 7 -14 19 -14 19 3 6 10 -8 16 -20 13 -27 -3 -7 3 -18 12
-26 16 -12 16 -11 2 7 -14 19 -14 19 3 6 9 -7 16 -20 15 -27 -2 -7 0 -12 3
-11 4 1 16 -7 28 -17 21 -19 21 -19 42 0 37 33 43 53 22 76 l-18 21 30 -19
c26 -16 28 -16 16 -1 -17 21 -69 53 -101 61 -17 5 -13 0 13 -14 52 -28 47 -34
-8 -8 -24 12 -41 26 -38 31 3 5 -4 6 -17 2 -17 -5 -21 -4 -15 6 6 9 3 10 -10
5 -10 -4 -21 -2 -25 5 -4 6 -9 7 -12 3z"/>
<path d="M3193 5779 c-62 -62 -110 -116 -107 -120 6 -10 1286 -12 1322 -3 12
4 22 11 22 16 0 5 -4 7 -8 4 -5 -3 -57 44 -118 105 l-109 109 -445 0 -445 0
-112 -111z"/>
<path d="M1890 5870 c-8 -5 -10 -10 -5 -10 6 0 17 5 25 10 8 5 11 10 5 10 -5
0 -17 -5 -25 -10z"/>
<path d="M5792 5861 c-24 -6 -24 -6 -4 -24 19 -17 20 -17 24 8 3 14 5 25 4 24
0 -1 -12 -4 -24 -8z"/>
<path d="M5820 5763 c0 -4 7 -28 16 -53 19 -54 627 -1290 632 -1285 2 1 -134
280 -302 620 l-305 616 111 55 111 54 -132 0 c-72 0 -131 -3 -131 -7z"/>
<path d="M1569 5735 c-4 -5 -4 -56 -1 -113 4 -85 7 -100 17 -85 7 10 15 34 19
53 4 24 3 29 -3 15 -7 -17 -9 -15 -15 15 -3 19 -7 55 -8 80 -2 25 -6 41 -9 35z"/>
<path d="M8418 5724 c-5 -4 -8 -19 -9 -33 0 -24 -1 -24 -9 -6 -7 17 -9 16 -9
-10 -1 -16 -4 -41 -7 -55 -4 -20 -3 -22 5 -10 9 12 11 10 11 -13 0 -16 -4 -26
-10 -22 -5 3 -10 0 -10 -8 0 -8 7 -17 15 -21 8 -3 15 -13 15 -23 -1 -17 -1
-17 -11 0 -10 18 -12 18 -31 0 -11 -10 -24 -26 -30 -36 -8 -16 -7 -18 12 -12
17 6 21 4 14 -6 -7 -12 -5 -12 9 -1 9 8 15 19 14 25 -1 6 5 11 13 12 11 0 17
19 23 75 8 84 6 156 -5 144z"/>
<path d="M8760 5710 c-6 -11 -8 -20 -6 -20 3 0 10 9 16 20 6 11 8 20 6 20 -3
0 -10 -9 -16 -20z"/>
<path d="M5816 5657 c3 -10 9 -15 12 -12 3 3 0 11 -7 18 -10 9 -11 8 -5 -6z"/>
<path d="M8720 5640 c-6 -11 -8 -20 -6 -20 3 0 10 9 16 20 6 11 8 20 6 20 -3
0 -10 -9 -16 -20z"/>
<path d="M1950 5563 c-23 -59 -43 -91 -34 -57 4 15 -3 22 -30 32 -20 7 -37 12
-38 11 -2 -1 -13 3 -25 9 -19 11 -24 8 -48 -34 -15 -25 -29 -43 -32 -41 -3 3
11 33 31 66 44 76 39 80 -9 5 -21 -33 -34 -63 -30 -73 3 -11 -3 -25 -15 -36
-11 -10 -20 -23 -20 -30 0 -24 -58 -92 -92 -108 -71 -34 -142 12 -250 160 -33
46 -62 83 -65 83 -2 0 -27 -10 -54 -21 -58 -25 -60 -37 -18 -105 31 -48 121
-151 127 -146 2 2 10 -5 18 -15 7 -10 14 -14 14 -10 0 4 10 -1 22 -13 27 -25
172 -82 176 -69 2 5 8 6 14 3 5 -3 12 3 15 15 6 24 4 24 37 12 21 -9 33 -3 91
40 82 63 145 141 194 244 35 72 57 135 48 135 -2 0 -14 -26 -27 -57z"/>
<path d="M8846 5550 c-15 -38 -30 -70 -33 -70 -3 0 -3 6 0 13 3 9 -15 21 -54
37 -33 13 -61 21 -62 19 -2 -2 -14 -19 -26 -37 -12 -18 -26 -30 -31 -27 -5 3
-18 -9 -30 -27 l-22 -33 26 30 c14 17 26 25 26 20 0 -6 -19 -31 -42 -56 -24
-25 -34 -34 -23 -20 l20 26 -27 -24 c-15 -13 -25 -27 -23 -31 11 -18 -82 -70
-126 -70 -32 0 -77 37 -115 94 -19 28 -51 75 -70 104 -30 45 -39 53 -57 47
-12 -3 -31 -7 -42 -9 -60 -10 -64 -26 -23 -93 11 -18 17 -33 14 -33 -3 0 -17
20 -32 45 -14 25 -29 44 -32 41 -7 -8 57 -112 101 -161 38 -45 167 -151 167
-138 0 3 -8 16 -17 27 -15 18 -14 18 8 -2 14 -12 29 -19 32 -15 4 3 20 -8 35
-25 19 -21 32 -28 38 -22 6 6 40 18 76 28 162 45 288 170 352 351 34 95 28
103 -8 11z m-695 -167 c13 -16 12 -17 -3 -4 -10 7 -18 15 -18 17 0 8 8 3 21
-13z m49 -58 c13 -14 21 -25 18 -25 -2 0 -15 11 -28 25 -13 14 -21 25 -18 25
2 0 15 -11 28 -25z"/>
<path d="M5581 5605 c0 -5 96 -201 214 -435 118 -234 214 -420 214 -415 0 6
-96 201 -214 435 -118 234 -214 421 -214 415z"/>
<path d="M8684 5578 c-9 -18 -24 -44 -32 -58 -14 -24 -13 -24 3 -5 19 23 58
95 50 95 -2 0 -12 -15 -21 -32z"/>
<path d="M8226 5533 c20 -38 46 -77 58 -88 12 -11 28 -35 35 -53 13 -32 36
-58 25 -28 -4 10 7 21 34 35 58 30 57 36 -5 33 -35 -3 -53 0 -49 6 3 6 -2 8
-12 5 -24 -6 -46 21 -39 47 3 11 1 18 -3 15 -5 -3 -23 17 -41 45 -18 27 -34
50 -36 50 -2 0 13 -30 33 -67z"/>
<path d="M1140 5545 c0 -5 5 -17 10 -25 5 -8 10 -10 10 -5 0 6 -5 17 -10 25
-5 8 -10 11 -10 5z"/>
<path d="M1340 5515 c29 -48 109 -155 117 -155 3 0 -1 8 -8 19 -8 10 -36 50
-63 87 -61 85 -77 102 -46 49z"/>
<path d="M8040 5545 c0 -5 5 -17 10 -25 5 -8 10 -10 10 -5 0 6 -5 17 -10 25
-5 8 -10 11 -10 5z"/>
<path d="M1591 5522 c-8 -15 -7 -23 7 -35 22 -19 83 -50 88 -44 2 2 -14 12
-36 22 -22 10 -45 24 -51 31 -8 9 -1 9 21 -2 42 -21 46 -14 11 20 -28 27 -30
27 -40 8z"/>
<path d="M1160 5492 c0 -19 80 -129 121 -167 l43 -40 -46 51 c-25 28 -61 77
-78 108 -31 54 -40 65 -40 48z"/>
<path d="M1548 5473 c-8 -29 13 -56 66 -86 l44 -24 10 22 c14 30 8 35 -49 35
-45 0 -49 2 -55 28 -3 15 -7 31 -8 37 -1 5 -5 0 -8 -12z"/>
<path d="M4606 5473 c-4 -4 43 -57 104 -118 l110 -111 -2 -364 -3 -365 -105
-5 -105 -5 103 -53 c57 -29 102 -58 102 -66 0 -8 -5 -27 -11 -43 -6 -16 -6
-24 -1 -18 30 31 35 98 39 510 l4 420 105 105 c58 59 102 109 98 113 -9 9
-429 9 -438 0z m219 -203 c5 0 57 46 115 103 l105 102 -105 -107 c-57 -60
-109 -108 -115 -108 -6 0 -58 48 -115 108 l-105 107 105 -102 c58 -57 110
-103 115 -103z"/>
<path d="M8401 5383 c-34 -41 -29 -59 19 -64 25 -2 80 19 80 31 0 3 -15 21
-34 39 l-33 32 -32 -38z"/>
<path d="M1520 5375 l-33 -34 43 -20 c39 -18 45 -18 67 -4 30 20 29 23 -10 61
l-33 32 -34 -35z"/>
<path d="M1982 5358 c-23 -12 -57 -35 -75 -51 l-32 -28 35 24 c54 38 99 59
112 51 6 -4 8 -3 4 4 -3 5 0 13 6 15 7 3 9 6 3 6 -5 0 -29 -9 -53 -21z"/>
<path d="M2032 5338 c-29 -47 -112 -214 -111 -224 0 -5 12 16 28 46 15 30 46
90 70 133 42 77 51 106 13 45z"/>
<path d="M7966 5362 c-2 -4 11 -32 30 -62 18 -30 35 -59 38 -65 2 -5 17 3 32
18 l29 28 -35 31 -35 31 40 -24 c33 -19 37 -20 25 -5 -21 26 -72 46 -100 39
-16 -4 -21 -3 -16 5 4 7 5 12 2 12 -3 0 -7 -4 -10 -8z"/>
<path d="M7940 5335 c0 -49 11 -74 33 -77 13 -2 31 -19 44 -43 20 -36 131
-307 147 -362 9 -29 10 -29 75 7 30 17 57 26 60 21 4 -5 19 -3 36 5 17 8 22
12 13 9 -23 -6 -23 6 4 138 19 93 20 109 8 117 -10 6 -17 1 -26 -19 -17 -40
-34 -126 -34 -171 0 -21 -4 -42 -10 -45 -6 -4 -10 16 -11 52 0 52 -37 176 -38
131 -1 -10 -4 -17 -8 -16 -5 2 -34 -8 -66 -21 -32 -13 -59 -22 -61 -20 -2 2
-22 48 -45 103 -23 54 -60 126 -81 160 -37 57 -40 59 -40 31z m290 -270 c0 -6
-97 -55 -107 -55 -4 1 17 14 47 30 61 32 60 32 60 25z"/>
<path d="M1959 5322 c-69 -45 -77 -58 -49 -87 13 -14 27 -25 31 -25 6 0 79
124 79 135 0 11 -18 4 -61 -23z"/>
<path d="M1160 5229 c0 -8 13 -28 30 -44 16 -15 27 -31 25 -35 -2 -4 10 -20
28 -36 l32 -29 -25 30 c-14 17 14 -10 62 -60 l86 -90 41 39 c22 22 38 43 35
48 -3 4 2 11 12 15 43 16 -181 152 -227 138 -15 -5 -19 -4 -14 4 5 8 -1 10
-21 5 -19 -5 -25 -4 -20 4 5 8 1 10 -9 5 -10 -3 -21 0 -26 8 -7 12 -9 11 -9
-2z m140 -39 c8 -5 11 -10 5 -10 -5 0 -17 5 -25 10 -8 5 -10 10 -5 10 6 0 17
-5 25 -10z m100 -56 c0 -2 -9 0 -20 6 -11 6 -20 13 -20 16 0 2 9 0 20 -6 11
-6 20 -13 20 -16z m80 -57 c0 -9 -56 28 -66 44 -3 6 10 0 30 -13 20 -13 36
-27 36 -31z"/>
<path d="M8786 5218 c5 -7 -2 -9 -19 -6 -16 3 -24 1 -20 -5 4 -6 -2 -8 -15 -5
-12 4 -20 3 -17 -1 2 -5 -7 -13 -21 -20 -35 -16 -44 -13 -14 5 l25 15 -25 -7
c-35 -9 -104 -49 -121 -71 -13 -17 -13 -17 6 -2 11 9 36 24 55 33 19 9 26 11
16 4 -11 -7 -33 -25 -50 -40 l-31 -27 35 -35 c36 -35 77 -52 72 -28 -1 7 35
50 80 95 46 46 54 52 18 15 -35 -37 -62 -68 -59 -68 2 0 38 35 79 77 41 43 71
75 67 71 -5 -3 -22 -2 -38 2 -20 6 -27 5 -23 -2z"/>
<path d="M1620 5157 c0 -13 11 -80 25 -147 24 -119 25 -150 4 -120 -9 13 -10
12 -6 -2 3 -9 -3 -24 -15 -35 -39 -35 -61 -74 -49 -86 22 -22 125 -28 163 -10
39 19 39 34 0 75 -29 30 -39 35 -54 27 -10 -5 -23 -7 -30 -3 -6 4 1 12 18 19
23 10 32 10 44 0 17 -13 89 -55 95 -55 2 0 7 17 10 38 4 20 19 64 35 97 43 91
61 138 55 143 -3 3 -5 1 -5 -4 0 -5 -9 -24 -20 -41 l-20 -33 -55 27 c-48 24
-57 26 -66 13 -8 -11 -9 -7 -5 15 l6 30 -15 -28 c-9 -15 -19 -56 -22 -92 -7
-76 -18 -85 -21 -17 -1 26 -10 83 -20 127 -13 59 -21 81 -35 83 -12 3 -17 -3
-17 -21z"/>
<path d="M8830 5083 c-19 -56 -72 -174 -77 -169 -3 2 0 13 6 24 9 17 4 22 -39
42 -49 23 -50 23 -71 4 -12 -10 -23 -17 -26 -16 -3 2 -8 0 -11 -4 -4 -4 -1 -4
6 0 6 4 12 3 12 -3 0 -11 -19 -25 -35 -26 -5 -1 -9 -6 -7 -13 3 -18 -120 -137
-167 -162 -22 -11 -67 -23 -98 -26 -54 -6 -61 -4 -100 25 -28 20 -53 52 -73
91 -17 33 -32 60 -34 60 -2 0 -28 -11 -59 -24 -30 -14 -58 -22 -63 -18 -13 13
6 -32 39 -87 18 -30 57 -80 88 -113 51 -55 57 -58 82 -49 26 10 28 9 33 -19 4
-16 10 -27 15 -24 13 7 12 4 -16 -71 -31 -82 -17 -79 15 4 l24 60 71 16 c172
39 205 54 288 133 88 84 158 207 203 352 16 54 11 66 -6 13z m-786 -277 c16
-27 23 -46 17 -42 -11 7 -51 79 -51 92 0 10 2 7 34 -50z m65 -100 c-2 -2 -13
8 -23 22 l-19 27 24 -22 c12 -12 21 -24 18 -27z m51 -51 c19 -19 32 -35 29
-35 -3 0 -20 16 -39 35 -19 19 -32 35 -29 35 3 0 20 -16 39 -35z"/>
<path d="M1325 5020 c10 -11 20 -20 23 -20 3 0 -3 9 -13 20 -10 11 -20 20 -23
20 -3 0 3 -9 13 -20z"/>
<path d="M8720 5005 c48 -26 60 -29 60 -17 0 8 -79 42 -95 42 -6 -1 10 -12 35
-25z"/>
<path d="M1180 5015 c0 -5 5 -17 10 -25 5 -8 10 -10 10 -5 0 6 -5 17 -10 25
-5 8 -10 11 -10 5z"/>
<path d="M1273 4987 c-24 -12 -43 -25 -43 -29 0 -15 41 -91 77 -143 20 -27 26
-41 15 -30 -12 11 -44 58 -72 105 -57 97 -68 99 -15 3 65 -119 127 -189 218
-246 15 -10 78 -31 140 -47 86 -23 117 -35 135 -55 13 -16 23 -21 23 -13 1 7
3 30 4 51 2 44 11 55 27 39 21 -21 38 -13 96 49 70 75 108 135 133 208 25 72
19 75 -10 5 -13 -30 -25 -53 -28 -50 -3 2 0 13 5 23 9 16 3 20 -49 37 -33 10
-61 17 -62 15 -2 -2 -12 -26 -23 -54 -11 -27 -26 -49 -32 -47 -7 1 -11 -1 -11
-5 3 -21 -4 -31 -40 -51 -69 -39 -166 -24 -232 35 -21 19 -37 38 -34 43 2 4
-9 20 -25 35 -17 16 -30 25 -30 20 0 -4 -9 0 -20 10 -12 10 -19 24 -16 31 3 7
-2 18 -10 24 -8 7 -14 9 -14 4 0 -4 -15 6 -32 23 l-33 31 -42 -21z m197 -132
c13 -14 21 -25 18 -25 -2 0 -15 11 -28 25 -13 14 -21 25 -18 25 2 0 15 -11 28
-25z"/>
<path d="M1627 4929 c4 -13 8 -18 11 -10 2 7 -1 18 -6 23 -8 8 -9 4 -5 -13z"/>
<path d="M8328 4863 c-13 -12 -20 -13 -30 -5 -10 8 -21 1 -47 -30 -30 -36 -32
-41 -18 -55 24 -25 92 -32 140 -16 63 21 64 27 22 75 -47 52 -47 52 -67 31z"/>
<path d="M2140 4860 c-8 -5 -10 -10 -5 -10 6 0 17 5 25 10 8 5 11 10 5 10 -5
0 -17 -5 -25 -10z"/>
<path d="M2168 4825 c-25 -64 -78 -237 -78 -257 0 -10 -6 -21 -14 -24 -15 -6
-116 41 -128 59 -10 16 -30 -64 -26 -108 l3 -40 59 -3 c38 -2 64 -8 70 -18 9
-12 15 4 30 71 l19 85 60 0 60 0 -6 88 c-4 48 -13 109 -20 137 l-13 49 -16
-39z"/>
<path d="M7841 4808 c25 -64 25 -64 44 -48 21 18 14 59 -14 81 -44 35 -53 25
-30 -33z"/>
<path d="M7791 4803 c-6 -26 -12 -84 -14 -128 l-2 -80 56 -3 56 -3 17 -77 c20
-82 35 -122 36 -89 0 14 10 17 64 17 l63 0 6 36 c7 40 -8 133 -23 148 -7 7
-10 6 -10 -2 0 -7 -26 -25 -57 -40 -32 -15 -60 -31 -62 -36 -2 -5 -18 37 -36
95 -17 57 -40 122 -50 144 -10 22 -19 43 -19 47 -4 25 -16 12 -25 -29z"/>
<path d="M2127 4822 c-21 -23 -22 -42 -3 -42 8 0 17 12 20 26 9 34 3 39 -17
16z"/>
<path d="M6010 4737 c0 -11 300 -607 305 -607 5 0 -292 599 -301 609 -2 2 -4
1 -4 -2z"/>
<path d="M1775 4560 c4 -17 22 -69 41 -116 20 -48 33 -93 30 -101 -3 -8 -1
-11 4 -8 6 4 9 23 8 43 -2 25 1 36 10 35 15 -4 15 -4 1 36 -9 25 -15 30 -30
26 -18 -6 -24 3 -20 33 1 6 -3 12 -9 12 -5 0 -10 9 -10 19 0 27 -10 51 -22 51
-5 0 -7 -13 -3 -30z m85 -127 c0 -18 -17 -16 -24 3 -8 22 4 40 15 23 5 -8 9
-20 9 -26z"/>
<path d="M1800 4586 c0 -12 41 -98 45 -95 6 7 -29 99 -37 99 -5 0 -8 -2 -8 -4z"/>
<path d="M8163 4528 c-13 -34 -21 -63 -19 -65 2 -2 11 18 21 44 10 27 22 52
26 58 15 16 10 -24 -6 -48 -8 -13 -16 -32 -18 -42 -2 -11 -6 -27 -9 -35 -30
-89 -31 -93 -14 -105 14 -11 14 -14 2 -24 -18 -15 -6 -54 26 -88 26 -28 36
-28 67 -4 l24 18 -39 47 c-21 25 -43 46 -49 46 -37 1 -36 17 8 131 25 63 43
117 40 122 -2 4 -12 7 -21 7 -12 0 -24 -19 -39 -62z"/>
<path d="M1313 4555 c0 -8 4 -12 9 -9 4 3 11 -2 14 -10 3 -9 9 -14 13 -12 6 4
94 -60 256 -188 l87 -69 45 46 c35 35 44 49 38 64 -5 10 -7 21 -7 25 6 27
-195 133 -230 122 -12 -3 -18 -2 -15 3 4 6 -4 8 -20 5 -14 -3 -24 -1 -21 4 3
5 -28 10 -70 12 -42 2 -82 8 -88 13 -7 5 -11 4 -11 -6z m323 -71 c18 -14 18
-14 -6 -3 -31 14 -36 19 -24 19 6 0 19 -7 30 -16z m99 -60 c14 -9 24 -19 21
-21 -3 -3 -22 8 -43 23 -74 54 -63 53 22 -2z"/>
<path d="M8600 4548 c-30 -5 -74 -10 -97 -11 -22 -1 -37 -5 -31 -8 14 -9 -40
-21 -55 -13 -7 4 -9 3 -4 -1 4 -5 -16 -21 -44 -37 -68 -37 -119 -76 -119 -91
1 -17 67 -87 83 -87 6 0 68 45 137 99 69 55 127 98 130 97 3 -1 21 13 40 31
19 18 30 32 25 32 -6 -1 -35 -6 -65 -11z"/>
<path d="M8684 4513 c-15 -38 -19 -41 -48 -37 -27 3 -47 -9 -142 -84 -62 -48
-132 -104 -156 -124 -69 -59 -204 -128 -259 -135 -62 -7 -90 10 -125 80 -15
28 -28 53 -29 55 -2 2 -16 -3 -32 -11 -15 -8 -34 -12 -40 -10 -7 3 -13 2 -13
-2 0 -10 41 -88 63 -119 12 -16 15 -26 9 -22 -7 4 -32 42 -57 84 -51 87 -61
89 -15 3 27 -49 104 -151 84 -111 -5 12 -4 12 6 3 10 -9 18 -8 37 4 l24 16 -7
-44 c-3 -24 -19 -66 -34 -94 -15 -27 -38 -68 -50 -90 l-22 -40 25 27 c14 15
27 24 31 21 3 -3 24 24 47 61 l41 66 62 0 c252 1 431 129 568 408 34 67 58
125 54 129 -3 4 -13 -12 -22 -34z"/>
<path d="M6630 4425 c-52 -52 -92 -96 -89 -99 19 -19 132 -39 244 -43 l130 -5
70 71 c38 39 74 71 79 71 6 0 -21 -33 -59 -72 -39 -40 -19 -24 43 37 61 60
112 112 112 114 0 3 -4 1 -9 -4 -16 -16 -427 -3 -423 13 1 6 1 12 -1 12 -1 0
-45 -43 -97 -95z m500 52 c0 -2 -15 -16 -32 -33 l-33 -29 29 33 c28 30 36 37
36 29z"/>
<path d="M8330 4479 c-30 -16 -64 -39 -75 -51 -11 -12 -13 -17 -5 -11 8 7 47
30 85 52 81 47 77 55 -5 10z"/>
<path d="M1317 4470 c3 -11 9 -22 13 -25 5 -3 6 4 3 15 -3 11 -9 22 -13 25 -5
3 -6 -4 -3 -15z"/>
<path d="M1345 4480 c-3 -5 6 -32 20 -60 14 -28 23 -55 20 -61 -4 -5 -1 -8 7
-7 7 2 12 -5 12 -14 -1 -10 3 -15 9 -11 6 4 8 0 4 -10 -3 -9 -1 -19 5 -23 7
-5 8 -2 3 6 -6 9 -4 11 4 6 7 -5 10 -14 7 -21 -3 -8 3 -19 12 -27 16 -12 16
-11 2 7 -14 19 -14 19 3 6 9 -7 16 -20 15 -27 -4 -16 68 -104 85 -104 6 0 -11
24 -38 53 l-50 52 52 -49 c29 -27 50 -53 47 -57 -6 -10 48 -50 102 -77 63 -32
155 -52 237 -52 l75 0 41 -66 c23 -36 45 -63 50 -60 9 6 26 -22 22 -37 -1 -5
3 -6 9 -2 7 4 4 18 -10 39 -22 37 -25 51 -9 40 8 -4 8 0 0 15 -13 24 -23 28
-15 6 12 -30 -6 -14 -31 28 -25 44 -35 117 -15 117 6 0 19 -9 30 -20 l20 -20
50 75 c45 69 78 141 94 205 3 14 -9 -6 -27 -45 -19 -38 -35 -65 -38 -60 -2 6
-22 18 -44 26 l-40 15 -16 -40 c-8 -23 -21 -40 -27 -39 -6 2 -9 -3 -6 -11 8
-21 -36 -46 -81 -46 -22 0 -60 9 -84 20 -39 18 -42 22 -30 38 13 15 12 16 -3
3 -27 -20 -83 12 -233 135 -158 129 -199 156 -221 147 -12 -4 -15 -3 -10 5 4
7 5 12 2 12 -3 0 -7 -4 -11 -10z m725 -587 c0 -4 -18 20 -40 54 -22 34 -40 66
-40 70 0 4 18 -20 40 -54 22 -34 40 -66 40 -70z"/>
<path d="M3180 4385 c58 -58 107 -105 109 -105 2 0 -4 9 -14 20 -10 11 -14 20
-8 20 5 0 18 -9 28 -20 18 -20 27 -21 684 -19 629 1 670 3 730 21 l64 20 -84
84 -84 84 -764 0 -765 0 104 -105z m5 15 c44 -44 77 -80 75 -80 -3 0 -41 36
-85 80 -44 44 -77 80 -75 80 3 0 41 -36 85 -80z"/>
<path d="M1360 4390 c6 -11 13 -20 16 -20 2 0 0 9 -6 20 -6 11 -13 20 -16 20
-2 0 0 -9 6 -20z"/>
<path d="M7608 4383 c7 -3 16 -2 19 1 4 3 -2 6 -13 5 -11 0 -14 -3 -6 -6z"/>
<path d="M1814 4353 c4 -8 -11 -32 -39 -62 l-46 -49 27 -21 c38 -30 50 -27 80
25 l27 45 -24 25 c-13 14 -22 28 -21 31 2 2 0 8 -4 11 -4 4 -4 1 0 -5z"/>
<path d="M1911 4344 c0 -11 3 -14 6 -6 3 7 2 16 -1 19 -3 4 -6 -2 -5 -13z"/>
<path d="M8197 4354 c-2 -3 16 -25 41 -49 58 -59 64 -54 7 6 -24 26 -46 45
-48 43z"/>
<path d="M1922 4279 c6 -16 12 -29 13 -27 6 6 -8 58 -16 58 -4 0 -3 -14 3 -31z"/>
<path d="M2434 4288 c4 -15 2 -30 -4 -33 -6 -3 -7 1 -4 9 4 10 1 16 -7 16 -24
0 -42 -17 -36 -34 4 -9 3 -16 -2 -16 -5 0 -12 -36 -15 -80 -4 -45 -11 -78 -17
-75 -5 4 -9 15 -9 26 0 14 -14 26 -47 40 -30 13 -49 16 -51 10 -2 -6 -9 -11
-17 -11 -13 0 -25 -43 -25 -94 l0 -31 67 0 68 0 11 -50 c10 -43 12 -46 13 -17
l1 32 72 0 71 0 -6 93 c-6 85 -30 182 -57 224 -10 15 -10 14 -6 -9z"/>
<path d="M7790 4305 c0 -5 5 -17 10 -25 5 -8 10 -10 10 -5 0 6 -5 17 -10 25
-5 8 -10 11 -10 5z"/>
<path d="M4730 4287 c-19 -9 -203 -13 -725 -15 l-700 -3 -112 -112 c-62 -61
-113 -115 -113 -119 0 -5 448 -8 995 -8 547 0 995 2 995 3 0 2 -59 62 -130
133 -137 135 -157 147 -210 121z"/>
<path d="M8066 4291 c-4 -7 -5 -15 -2 -18 9 -9 19 4 14 18 -4 11 -6 11 -12 0z"/>
<path d="M7546 4275 c-9 -26 -7 -32 5 -12 6 10 9 21 6 23 -2 3 -7 -2 -11 -11z"/>
<path d="M7560 4250 c0 -5 -7 -10 -15 -10 -21 0 -44 -89 -47 -180 l-3 -75 68
-3 c65 -3 67 -4 68 -30 0 -24 1 -25 9 -7 5 11 9 32 9 47 1 26 3 27 69 30 l67
3 3 57 c2 39 -2 66 -13 85 l-16 28 6 -30 c4 -21 3 -26 -4 -15 -8 12 -17 11
-60 -10 -41 -19 -51 -28 -51 -48 0 -47 -13 -13 -26 69 -7 45 -19 86 -26 90
-18 12 -38 11 -38 -1z m-10 -30 c0 -5 -5 -10 -11 -10 -5 0 -7 5 -4 10 3 6 8
10 11 10 2 0 4 -4 4 -10z"/>
<path d="M7965 4233 c4 -16 8 -29 10 -31 5 -6 61 26 74 42 12 14 7 16 -39 16
-52 0 -52 0 -45 -27z"/>
<path d="M1985 4221 c32 -20 45 -18 45 5 0 10 -11 14 -37 14 l-38 0 30 -19z"/>
<path d="M1896 4198 c-32 -41 -21 -54 39 -50 56 5 67 23 35 58 -31 32 -44 30
-74 -8z"/>
<path d="M8031 4204 c-24 -31 -26 -40 -9 -50 15 -9 68 -9 91 1 17 7 15 11 -14
41 -18 19 -36 34 -40 34 -4 0 -17 -12 -28 -26z"/>
<path d="M7935 4041 c-2 -5 4 -11 15 -14 11 -3 20 -2 20 3 0 12 -28 21 -35 11z"/>
<path d="M2026 4031 c-3 -4 6 -6 19 -3 14 2 25 6 25 8 0 8 -39 4 -44 -5z"/>
<path d="M2675 3930 c-3 -6 1 -7 9 -4 18 7 21 14 7 14 -6 0 -13 -4 -16 -10z"/>
<path d="M1715 3862 c72 -38 180 -97 240 -131 138 -77 161 -78 187 -7 l18 48
-25 24 c-14 13 -26 23 -28 22 -1 0 -29 13 -62 30 -33 17 -56 31 -52 32 4 0 22
-7 38 -16 17 -8 33 -14 35 -11 9 9 -95 47 -112 40 -12 -4 -15 -3 -10 6 6 9 0
10 -20 5 -17 -4 -25 -3 -21 3 4 6 -4 8 -20 5 -14 -3 -23 -1 -20 4 3 5 -57 10
-136 12 l-142 3 130 -69z"/>
<path d="M8140 3914 c-36 -8 -72 -11 -80 -8 -8 3 -11 2 -7 -2 4 -5 -20 -21
-54 -36 -75 -34 -90 -36 -29 -3 55 29 45 33 -11 5 -22 -12 -37 -25 -34 -30 4
-6 -2 -13 -12 -17 -10 -4 -27 -15 -37 -25 -11 -10 -24 -18 -29 -18 -14 0 -1
-67 18 -96 24 -36 35 -33 235 82 41 23 127 70 190 103 l115 61 -100 -1 c-55 0
-129 -7 -165 -15z"/>
<path d="M8422 3908 c-7 -7 -12 -9 -12 -5 0 10 -169 -76 -327 -166 -72 -41
-142 -78 -155 -82 -12 -3 -54 -20 -91 -37 -61 -27 -76 -30 -126 -24 l-58 7
-18 -48 c-11 -29 -45 -79 -86 -125 -38 -42 -69 -79 -69 -82 0 -14 107 64 140
103 l38 44 93 -13 c75 -10 109 -10 166 -1 128 22 282 113 375 223 78 92 184
260 130 206z"/>
<path d="M1565 3900 c41 -72 117 -171 173 -228 71 -72 154 -128 172 -117 6 4
9 1 8 -6 -2 -8 30 -24 82 -42 91 -32 179 -39 281 -23 l57 8 48 -52 c27 -28 58
-56 69 -61 11 -5 31 -17 45 -26 l25 -17 -25 29 c-13 17 -46 53 -73 81 -43 45
-48 54 -38 73 7 12 8 21 2 21 -5 0 -11 -8 -14 -17 -3 -13 -6 -9 -12 12 -16 61
-30 70 -95 67 -47 -3 -71 1 -114 21 -30 14 -67 28 -84 32 -17 3 -81 36 -144
72 -146 84 -329 176 -336 169 -3 -3 -12 0 -20 7 -13 10 -14 9 -7 -3z m134
-155 c22 -26 23 -27 2 -10 -25 21 -111 137 -111 150 0 5 18 -18 41 -51 23 -32
53 -72 68 -89z m122 -122 c13 -16 12 -17 -3 -4 -10 7 -18 15 -18 17 0 8 8 3
21 -13z m629 -226 c-3 -2 -25 20 -50 47 l-44 51 49 -47 c27 -26 47 -49 45 -51z"/>
<path d="M7398 3803 c-1 -5 -19 -15 -39 -24 -33 -16 -36 -22 -54 -98 -10 -45
-22 -84 -26 -87 -4 -2 -33 8 -65 23 -41 20 -58 25 -61 16 -3 -7 -11 -13 -18
-13 -15 0 -23 -27 -32 -111 l-6 -62 48 6 c26 4 58 7 71 7 25 0 50 43 75 130
16 58 32 70 91 70 l48 0 0 38 c0 50 -10 83 -22 76 -6 -4 -8 2 -3 15 6 19 1 30
-7 14z"/>
<path d="M2220 3791 c0 -6 4 -13 10 -16 6 -3 7 1 4 9 -7 18 -14 21 -14 7z"/>
<path d="M2571 3746 c-6 -24 -11 -58 -11 -75 0 -30 0 -30 62 -33 l61 -3 22
-65 c43 -129 35 -120 116 -120 l72 0 -7 76 c-6 68 -44 194 -45 152 -1 -11 -23
-29 -61 -48 -33 -17 -60 -36 -61 -43 -1 -19 -25 52 -39 120 -12 54 -18 64 -44
75 -24 10 -31 9 -34 -1 -3 -10 -6 -10 -12 -1 -4 7 -12 -7 -19 -34z"/>
<path d="M2235 3750 c3 -5 8 -10 11 -10 2 0 4 5 4 10 0 6 -5 10 -11 10 -5 0
-7 -4 -4 -10z"/>
<path d="M7732 3725 c-7 -15 -8 -25 -2 -25 13 0 32 38 21 44 -4 3 -13 -6 -19
-19z"/>
<path d="M2451 3655 c-18 -41 -31 -79 -29 -86 2 -6 18 26 36 71 18 46 31 84
30 86 -2 1 -18 -30 -37 -71z"/>
<path d="M2305 3689 c11 -6 25 -18 31 -25 10 -12 12 -11 17 6 3 11 0 20 -6 20
-7 0 -23 3 -37 6 -23 5 -24 5 -5 -7z"/>
<path d="M7516 3687 c3 -10 9 -15 12 -12 3 3 0 11 -7 18 -10 9 -11 8 -5 -6z"/>
<path d="M7664 3693 c-26 -3 -30 -8 -27 -27 l5 -23 23 23 c34 34 50 30 23 -7
-19 -26 -20 -31 -8 -39 19 -12 97 -13 104 -1 6 9 -69 82 -82 79 -4 0 -21 -3
-38 -5z"/>
<path d="M2226 3656 l-25 -34 23 -6 c28 -7 84 3 92 16 7 11 -34 58 -52 58 -6
0 -23 -15 -38 -34z"/>
<path d="M7530 3656 c0 -11 40 -86 45 -86 3 0 -4 19 -16 43 -23 45 -29 54 -29
43z"/>
<path d="M7593 3627 c-12 -7 -19 -17 -15 -23 5 -8 16 -6 34 6 16 9 25 20 21
23 -9 9 -14 8 -40 -6z"/>
<path d="M6915 3550 c-3 -6 1 -7 9 -4 18 7 21 14 7 14 -6 0 -13 -4 -16 -10z"/>
<path d="M7591 3533 c7 -10 15 -20 16 -22 2 -2 3 5 3 17 0 14 -6 22 -16 22
-14 0 -15 -3 -3 -17z"/>
<path d="M6960 3525 c0 -8 -4 -15 -10 -15 -5 0 -10 -8 -10 -17 0 -10 -16 -63
-35 -118 -18 -55 -32 -101 -31 -103 2 -2 8 11 14 27 10 29 14 31 61 31 l51 0
0 39 c0 52 -11 102 -20 96 -5 -3 -6 5 -2 17 3 15 2 19 -7 14 -8 -6 -10 -1 -5
18 3 14 3 26 0 26 -3 0 -6 -7 -6 -15z"/>
<path d="M3011 3488 c-7 -18 -14 -61 -17 -95 l-6 -63 50 0 c46 0 51 -2 62 -30
27 -65 17 -19 -20 95 -21 66 -39 114 -39 108 -1 -7 -5 -13 -11 -13 -5 0 -7 7
-4 15 4 8 4 15 1 15 -3 0 -10 -15 -16 -32z"/>
<path d="M7401 3418 c-10 -30 -9 -31 4 -14 8 11 15 26 15 33 0 22 -8 14 -19
-19z"/>
<path d="M7229 3332 c-23 -73 -23 -74 -4 -88 29 -22 52 -17 75 16 12 17 26 27
32 24 7 -4 8 -2 4 4 -4 6 1 23 10 37 9 14 15 27 13 28 -2 1 -27 14 -55 28
l-52 26 -23 -75z"/>
<path d="M2684 3368 c-32 -16 -41 -26 -40 -44 0 -12 3 -21 5 -18 5 5 41 -42
41 -53 0 -4 -7 1 -15 11 -8 11 -15 15 -15 9 0 -23 47 -38 88 -28 17 4 22 12
22 40 0 18 -4 36 -9 39 -4 3 -11 19 -14 36 -8 35 -9 35 -63 8z"/>
<path d="M4795 3371 c-38 -11 -83 -24 -98 -30 -16 -6 -33 -8 -39 -5 -7 5 -8 2
-3 -6 6 -10 4 -12 -9 -7 -11 5 -15 3 -10 -5 5 -8 2 -9 -9 -5 -9 3 -16 2 -14
-2 1 -5 -17 -23 -41 -41 -68 -49 -36 -83 35 -36 44 29 153 79 153 70 0 -4 6
-2 13 4 7 6 31 14 53 18 48 8 259 9 294 1 53 -12 65 -16 65 -17 0 -1 11 -3 24
-6 13 -2 64 -25 113 -51 80 -41 91 -44 105 -31 13 14 11 19 -24 44 -68 50 -68
59 0 11 16 -10 30 -17 33 -14 16 15 -117 80 -143 70 -9 -4 -14 -2 -10 3 3 5
-2 10 -11 10 -9 1 -44 9 -77 19 -94 27 -311 30 -400 6z"/>
<path d="M2060 3369 c-25 -5 -51 -7 -58 -4 -7 3 -11 1 -7 -4 3 -5 0 -11 -7
-13 -6 -2 20 -12 58 -23 38 -10 132 -40 209 -68 192 -68 255 -87 269 -81 15 6
36 69 36 107 0 17 -4 25 -13 21 -7 -2 -22 4 -32 14 -22 20 -27 22 -51 22 -8 0
-13 4 -10 9 4 5 -4 7 -16 3 -11 -3 -19 -1 -16 4 7 10 -3 11 -187 18 -71 3
-150 1 -175 -5z"/>
<path d="M7614 3361 c-64 -18 -100 -32 -161 -64 -25 -13 -29 -38 -12 -86 9
-26 16 -31 44 -31 19 0 127 33 242 74 114 40 222 77 240 80 39 9 54 35 16 28
-14 -3 -23 -1 -20 4 3 5 -56 10 -136 11 -114 2 -156 -1 -213 -16z"/>
<path d="M8037 3333 c-4 -3 -20 -8 -37 -9 -29 -4 -253 -78 -384 -128 -38 -14
-92 -30 -120 -35 -28 -5 -80 -16 -116 -26 -55 -15 -72 -15 -118 -5 -32 7 -57
8 -61 3 -35 -52 -78 -95 -143 -145 -43 -32 -78 -61 -78 -63 0 -5 31 5 45 15 6
4 22 10 36 13 14 4 52 27 85 52 32 25 63 44 69 41 298 -114 508 -55 774 218
36 36 63 68 60 71 -3 3 -9 2 -12 -2z"/>
<path d="M1949 3311 c15 -28 109 -103 120 -96 6 3 20 -8 33 -26 31 -42 115
-102 129 -93 8 4 9 3 5 -4 -9 -15 95 -67 171 -87 101 -26 241 -14 347 30 40
17 34 19 146 -63 9 -7 28 -15 41 -17 13 -3 29 -10 34 -17 10 -13 45 -23 45
-14 0 3 -43 37 -95 76 -52 38 -107 88 -121 110 -15 23 -33 39 -40 36 -59 -23
-93 -25 -145 -11 -30 8 -79 20 -109 25 -30 6 -125 35 -210 65 -164 57 -323
105 -346 105 -11 0 -12 -4 -5 -19z"/>
<path d="M4895 3323 c-192 -27 -386 -152 -474 -306 l-33 -58 22 -21 c15 -14
20 -27 16 -42 -17 -61 -15 -65 8 -11 29 68 29 68 16 60 -6 -3 -7 1 -3 10 4 12
8 13 13 4 6 -8 13 -3 23 17 47 91 180 194 317 246 77 29 95 31 190 30 123 -1
153 -4 161 -15 4 -5 18 -10 32 -10 14 -1 23 -5 21 -8 -6 -10 67 -40 78 -33 6
4 8 2 5 -3 -4 -6 4 -18 18 -27 29 -19 39 -20 29 -4 -5 7 -3 8 5 4 7 -5 10 -10
7 -13 -3 -3 25 -39 63 -79 37 -40 81 -97 97 -128 16 -30 30 -53 32 -51 10 10
-68 133 -121 193 -51 56 -53 60 -13 22 26 -25 68 -75 93 -112 39 -58 49 -66
64 -57 18 9 18 11 -1 49 -23 46 -25 54 -7 44 7 -4 9 -3 4 2 -5 5 -14 9 -19 9
-6 0 -13 6 -16 14 -3 9 0 11 9 6 8 -5 11 -4 6 1 -5 5 -12 9 -17 9 -4 0 -29 24
-56 54 -134 150 -365 232 -569 204z"/>
<path d="M6856 3245 c-9 -26 -7 -32 5 -12 6 10 9 21 6 23 -2 3 -7 -2 -11 -11z"/>
<path d="M7293 3233 c-4 -10 -17 -26 -30 -36 -42 -33 -24 -58 40 -56 18 0 40
4 50 7 15 7 13 12 -17 41 -27 27 -33 38 -25 48 9 9 8 13 0 13 -6 0 -15 -8 -18
-17z"/>
<path d="M3517 3234 c-7 -7 79 -180 93 -189 11 -7 58 55 57 77 0 9 -4 15 -8
12 -4 -2 -20 6 -36 19 -15 13 -46 36 -68 50 -22 15 -36 27 -31 27 5 0 31 -16
58 -36 28 -19 52 -33 54 -31 5 4 -96 77 -107 77 -3 0 -9 -3 -12 -6z"/>
<path d="M3486 3164 c-4 -37 -4 -69 -1 -72 3 -3 5 6 5 20 0 36 33 26 61 -18
11 -19 23 -34 25 -34 3 0 -73 159 -81 168 -1 1 -5 -27 -9 -64z"/>
<path d="M6407 3205 c-20 -14 -37 -28 -37 -31 0 -3 14 4 31 16 55 40 41 14
-16 -29 l-56 -43 23 -30 c13 -16 28 -30 33 -30 9 -1 84 136 85 154 0 4 -7 4
-17 1 -11 -4 -14 -3 -9 5 10 17 5 15 -37 -13z"/>
<path d="M6493 3218 c-18 -31 -71 -151 -57 -130 11 14 27 22 46 22 l29 0 -2
60 c-2 64 -3 67 -16 48z"/>
<path d="M2745 3209 c11 -7 23 -16 26 -21 3 -6 9 -3 12 6 4 10 1 16 -7 16 -8
0 -23 3 -33 6 -15 5 -15 3 2 -7z"/>
<path d="M5440 3205 c-19 -23 -1 -40 20 -18 17 17 17 33 1 33 -5 0 -14 -7 -21
-15z"/>
<path d="M2070 3206 c0 -2 8 -10 18 -17 15 -13 16 -12 3 4 -13 16 -21 21 -21
13z"/>
<path d="M2666 3181 c-27 -28 -27 -29 -7 -36 25 -8 78 2 87 16 7 12 -24 49
-41 49 -6 0 -24 -13 -39 -29z"/>
<path d="M4486 3202 c-7 -12 22 -38 31 -28 4 3 0 14 -9 22 -9 10 -18 12 -22 6z"/>
<path d="M7201 3183 c1 -16 3 -21 6 -12 2 9 14 21 26 27 21 10 21 11 -5 11
-24 1 -28 -3 -27 -26z"/>
<path d="M6810 3163 c-40 -76 -40 -76 -100 -45 -38 19 -54 24 -57 15 -7 -20
-23 -15 -17 5 5 15 4 15 -5 1 -10 -16 -30 -130 -31 -174 0 -18 5 -20 47 -16
46 3 50 6 84 60 48 73 112 191 105 191 -3 0 -15 -17 -26 -37z"/>
<path d="M3181 3138 c12 -24 41 -73 65 -110 43 -67 44 -68 89 -68 50 0 49 -1
47 88 -2 53 -21 129 -30 116 -7 -10 -117 -74 -126 -74 -3 0 -17 20 -32 45 -33
57 -41 59 -13 3z"/>
<path d="M7126 3133 c-8 -20 -7 -25 3 -19 5 3 12 -2 15 -11 6 -14 8 -14 21 3
20 26 19 31 -9 36 -16 3 -27 0 -30 -9z"/>
<path d="M6766 3032 c-31 -54 -56 -107 -56 -118 0 -11 13 -27 30 -38 30 -17
30 -17 70 14 22 18 46 39 53 48 7 10 21 22 32 28 19 11 95 139 94 159 0 6 -8
-4 -17 -21 -19 -35 -33 -34 -109 4 l-42 22 -55 -98z m175 15 c-10 -9 -11 -8
-5 6 3 10 9 15 12 12 3 -3 0 -11 -7 -18z"/>
<path d="M2820 3110 c0 -13 11 -13 30 0 12 8 11 10 -7 10 -13 0 -23 -4 -23
-10z"/>
<path d="M3115 3085 c-22 -14 -44 -26 -50 -28 -15 -5 44 -97 96 -149 l48 -48
36 17 c19 9 35 23 35 30 0 15 -72 159 -93 186 -18 22 -24 21 -72 -8z"/>
<path d="M2895 3075 c17 -14 26 -25 21 -25 -5 0 -18 7 -28 17 -10 9 -20 14
-23 11 -3 -3 32 -33 78 -66 100 -72 109 -83 105 -117 l-3 -25 -25 23 c-23 21
-35 23 -170 25 -124 3 -156 0 -225 -19 -44 -12 -90 -22 -102 -23 -11 -1 -19
-5 -15 -10 3 -5 -2 -6 -12 -3 -11 4 -15 3 -10 -4 4 -7 0 -9 -14 -5 -11 4 -23
3 -25 -1 -3 -5 2 -9 11 -10 9 -1 49 -6 87 -12 39 -7 84 -13 100 -15 61 -8 102
-15 215 -34 171 -31 400 -26 400 7 0 4 -23 29 -52 56 -28 26 -47 42 -43 34 8
-12 6 -12 -8 0 -9 7 -14 18 -10 24 3 6 1 7 -6 3 -10 -6 -151 79 -151 91 0 5
14 -3 69 -40 24 -17 41 -25 37 -19 -4 6 -47 39 -96 72 -49 34 -94 68 -100 76
-7 8 -18 14 -24 14 -6 -1 3 -12 19 -25z m80 -59 c11 -8 16 -15 10 -16 -5 0
-23 12 -40 26 -31 26 -6 18 30 -10z"/>
<path d="M6297 3093 c-8 -12 60 -79 70 -69 4 3 -9 23 -29 42 -19 20 -38 32
-41 27z"/>
<path d="M3030 3064 c0 -12 59 -104 67 -104 5 0 3 3 -39 69 -15 25 -28 40 -28
35z"/>
<path d="M3715 3060 c-3 -5 -1 -10 4 -10 6 0 11 5 11 10 0 6 -2 10 -4 10 -3 0
-8 -4 -11 -10z"/>
<path d="M6400 3040 c-6 -11 -8 -20 -6 -20 3 0 10 9 16 20 6 11 8 20 6 20 -3
0 -10 -9 -16 -20z"/>
<path d="M7030 3005 c-37 -27 -56 -32 -44 -13 8 13 -1 8 -64 -34 -23 -16 -40
-33 -37 -38 6 -10 -83 -75 -92 -67 -8 8 -64 -56 -60 -68 8 -23 77 -35 143 -25
35 6 74 8 87 5 12 -3 72 2 132 11 61 9 121 18 135 20 14 2 61 11 105 19 44 8
84 14 90 13 11 -1 78 10 110 19 18 6 17 8 -10 19 -16 7 -38 10 -49 7 -11 -3
-16 -1 -12 5 4 6 -2 8 -16 4 -13 -3 -19 -1 -15 5 5 7 -1 9 -15 5 -11 -3 -19
-1 -16 4 8 12 -16 14 -222 18 -103 2 -180 0 -187 -6 -7 -5 -17 -7 -23 -3 -6 4
-9 1 -8 -6 2 -6 -3 -14 -9 -16 -20 -7 -15 35 5 55 11 11 40 33 65 51 26 18 47
34 47 36 0 7 -2 6 -40 -20z m-50 -29 c0 -7 -82 -57 -86 -53 -2 2 13 16 33 30
36 24 53 32 53 23z"/>
<path d="M4359 2949 c-17 -35 -24 -40 -46 -36 -19 3 -27 0 -30 -14 -3 -11 -9
-19 -14 -19 -5 0 -6 8 -3 18 5 16 5 16 -6 0 -12 -20 -34 -182 -27 -201 3 -6 6
-2 6 11 1 17 7 22 26 22 23 0 25 -4 25 -47 0 -85 11 -152 24 -142 6 5 23 18
38 30 23 17 26 24 18 40 -6 11 -21 19 -35 19 -22 0 -25 5 -26 38 -3 98 11 169
52 260 31 70 30 84 -2 21z"/>
<path d="M5614 2905 c30 -77 50 -185 42 -229 -5 -27 -12 -35 -36 -40 -43 -8
-41 -45 4 -79 l34 -26 6 37 c3 20 6 62 6 93 0 55 1 56 25 51 26 -4 27 -2 28
63 1 47 -15 115 -25 109 -8 -5 -9 -1 -5 10 6 15 4 17 -10 11 -39 -16 -53 -17
-53 -4 0 8 -9 25 -20 39 -18 22 -17 19 4 -35z"/>
<path d="M6470 2858 c-14 -29 -26 -46 -28 -37 -1 8 -28 28 -60 43 l-57 28 -43
-48 c-23 -27 -46 -49 -51 -49 -5 0 -13 -4 -18 -9 -5 -5 -3 -6 5 -2 19 11 14
-9 -8 -29 -11 -10 -20 -14 -20 -10 0 5 -14 -4 -31 -21 l-30 -29 -40 23 c-45
26 -44 26 -59 -8 l-10 -25 5 27 c3 14 7 34 10 45 3 10 -2 2 -11 -17 -20 -43
-45 -194 -33 -198 5 -2 16 -10 23 -18 12 -12 20 -12 54 0 22 8 44 11 48 8 4
-4 4 -1 0 5 -4 7 -2 21 3 30 9 16 10 16 11 -4 l0 -21 40 21 40 22 -43 5 c-41
5 -42 6 -39 40 3 35 49 117 59 106 3 -3 -4 -17 -16 -32 -29 -36 -26 -56 8 -77
42 -25 55 -22 137 29 78 49 128 106 165 188 29 66 19 78 -11 14z"/>
<path d="M3605 2862 c-27 -15 -52 -28 -54 -29 -6 -3 47 -89 63 -103 9 -7 16
-17 16 -22 0 -15 -47 45 -85 108 -41 68 -46 64 -9 -7 26 -52 99 -139 116 -139
17 0 68 -41 63 -50 -3 -5 -19 -4 -35 2 -17 5 -27 14 -24 19 6 10 5 10 -42 14
-17 1 -40 8 -50 14 -17 11 -16 11 6 6 19 -5 22 -4 10 4 -8 6 -23 8 -34 5 -12
-4 -16 -2 -12 5 5 7 1 8 -10 4 -10 -4 -15 -2 -11 4 8 13 -59 44 -79 36 -12 -4
-15 -3 -10 5 5 8 1 10 -10 5 -13 -5 -15 -3 -9 8 6 11 5 12 -6 2 -18 -18 -11
-22 116 -77 143 -63 155 -71 155 -103 0 -24 -1 -25 -17 -11 -10 9 -29 19 -43
24 -25 8 -25 8 -3 13 18 5 -7 19 -110 64 -72 33 -149 70 -170 84 l-37 26 -54
-17 c-75 -24 -240 -16 -466 23 -198 34 -345 47 -335 30 4 -6 13 -8 21 -5 8 3
13 0 11 -7 -1 -7 6 -12 15 -12 9 0 20 -4 25 -9 4 -5 3 -6 -4 -2 -7 4 -13 5
-13 3 0 -12 112 -77 122 -71 6 4 8 3 5 -3 -10 -16 145 -88 242 -113 67 -18
104 -21 180 -18 92 4 99 6 182 51 104 57 152 61 230 21 28 -14 58 -23 66 -20
8 3 11 1 8 -4 -4 -6 7 -10 24 -10 21 0 31 -5 31 -15 0 -8 5 -15 10 -15 6 0 10
-30 10 -70 l0 -70 -45 0 c-39 0 -47 4 -55 24 -5 13 -14 27 -19 31 -6 3 -11 22
-11 42 l0 36 -61 -7 c-33 -4 -90 -16 -125 -27 -35 -11 -70 -17 -77 -13 -6 4
-9 4 -5 -1 4 -4 -18 -23 -50 -42 -31 -19 -62 -40 -69 -46 -19 -19 502 -12 587
8 36 8 77 17 91 20 15 2 37 13 49 23 l23 19 -50 51 c-27 29 -53 49 -58 45 -4
-5 -5 -2 -1 5 5 8 13 9 25 3 12 -7 28 -3 57 13 44 25 47 46 11 83 -11 13 -18
26 -14 29 10 10 55 -69 62 -108 l7 -38 -48 0 -49 -1 35 -19 c44 -24 57 -25 63
-2 3 11 5 9 6 -8 1 -20 9 -28 38 -37 32 -10 41 -9 64 8 14 10 30 15 35 11 4
-4 3 0 -2 8 -6 8 -14 40 -18 70 -3 30 -11 72 -16 93 -9 32 -14 36 -29 27 -10
-5 -21 -6 -25 -3 -3 3 -6 2 -6 -4 0 -6 -14 -16 -30 -23 -29 -12 -33 -11 -60
15 -17 16 -30 25 -30 20 0 -4 -9 0 -20 10 -25 22 -27 43 -2 24 14 -11 14 -10
-2 8 -10 13 -22 20 -26 18 -4 -3 -24 15 -45 40 -20 25 -39 45 -43 44 -4 0 -29
-12 -57 -27z m-125 -147 c14 -8 21 -14 15 -14 -5 0 -21 6 -35 14 -14 8 -20 14
-15 14 6 0 21 -6 35 -14z"/>
<path d="M3257 2833 c18 -9 34 -23 36 -32 3 -9 5 -1 6 17 1 31 0 32 -36 31
l-38 0 32 -16z"/>
<path d="M6680 2844 c1 -24 16 -32 34 -18 11 8 15 14 9 14 -6 0 -18 3 -27 6
-9 3 -16 2 -16 -2z"/>
<path d="M7380 2805 c-47 -7 -139 -22 -205 -34 -120 -20 -282 -35 -364 -33
-24 1 -59 10 -79 22 l-35 21 -44 -31 c-24 -17 -100 -58 -169 -91 -70 -33 -125
-62 -122 -64 10 -10 173 37 230 66 45 23 63 27 78 19 25 -13 33 -13 24 2 -4 7
-3 8 5 4 6 -4 8 -12 5 -18 -5 -8 -1 -9 12 -4 10 4 15 4 11 0 -11 -12 88 -63
156 -80 108 -28 279 -6 407 52 50 23 280 171 280 180 0 8 -106 2 -190 -11z"/>
<path d="M3320 2774 c0 -4 8 -12 17 -19 13 -10 19 -10 30 1 19 19 16 24 -17
24 -16 0 -30 -3 -30 -6z"/>
<path d="M6610 2773 c8 -3 18 -10 21 -15 3 -5 12 -2 19 7 11 13 8 15 -21 14
-19 0 -27 -3 -19 -6z"/>
<path d="M6565 2750 c-3 -5 0 -10 7 -10 7 -1 -4 -10 -25 -21 -22 -11 -45 -18
-53 -15 -9 4 -12 2 -8 -5 4 -8 -1 -9 -17 -4 -16 4 -20 3 -11 -3 10 -7 6 -12
-17 -21 -16 -7 -35 -10 -42 -5 -7 4 -10 3 -6 -3 6 -9 -81 -51 -140 -68 -12 -3
-38 -26 -58 -50 l-36 -45 33 -20 c18 -11 42 -20 53 -20 11 0 42 -7 69 -15 27
-8 68 -14 90 -13 37 1 38 2 9 5 -29 4 -33 8 -34 36 0 18 -2 42 -5 54 -2 12 3
29 11 37 23 22 18 26 -14 10 -16 -8 -32 -21 -35 -29 -8 -21 -26 -19 -26 3 0
37 36 66 155 122 82 39 122 63 122 74 0 18 -12 21 -22 6z"/>
<path d="M6325 2640 c-3 -6 1 -7 9 -4 18 7 21 14 7 14 -6 0 -13 -4 -16 -10z"/>
<path d="M4485 2598 c-44 -16 -88 -30 -99 -32 -11 -2 -29 -14 -39 -29 -20 -25
-20 -26 2 -53 11 -14 21 -32 21 -38 0 -6 -7 -3 -14 7 -9 11 -27 17 -55 17 -39
0 -41 -1 -29 -21 11 -17 22 -20 63 -18 38 2 62 -3 103 -24 29 -15 56 -25 61
-23 5 3 27 52 51 108 23 57 46 107 51 113 32 34 -12 31 -116 -7z"/>
<path d="M5369 2593 c11 -21 36 -77 56 -125 21 -49 39 -88 40 -88 1 0 23 9 48
20 25 11 60 38 77 60 18 22 35 38 40 35 15 -10 -2 34 -20 50 -20 18 -209 85
-241 85 -18 0 -18 -1 0 -37z"/>
<path d="M6529 2553 c-1 -34 -9 -64 -24 -94 l-16 -29 68 -1 c120 -2 413 -4
413 -3 0 1 -29 21 -65 44 -38 25 -71 40 -80 36 -9 -3 -14 -2 -11 3 6 10 -24
25 -32 16 -3 -3 1 -5 8 -5 7 0 11 -2 8 -5 -8 -8 -39 6 -33 15 3 5 -5 6 -17 2
-16 -4 -19 -2 -13 8 5 8 4 11 -2 7 -6 -4 -45 0 -88 8 -99 19 -115 19 -116 -2z
m401 -120 c0 -7 -39 17 -46 28 -3 6 5 3 20 -6 14 -10 26 -19 26 -22z"/>
<path d="M3154 2504 c-18 -14 -18 -14 6 -3 31 14 36 19 24 19 -6 0 -19 -7 -30
-16z"/>
<path d="M3843 2490 c-18 -16 -49 -33 -70 -39 -21 -5 -58 -14 -83 -21 -25 -7
-173 -16 -340 -21 -162 -5 -301 -9 -307 -10 -67 -10 174 -114 335 -145 220
-42 440 11 572 137 l54 51 100 -21 c56 -13 109 -25 120 -28 12 -3 16 -1 12 6
-4 6 0 11 8 11 9 0 16 3 16 8 0 4 -51 18 -112 32 -62 13 -147 34 -188 47 -41
13 -77 23 -80 23 -3 0 -19 -14 -37 -30z"/>
<path d="M4020 2510 c-12 -8 -12 -10 3 -14 9 -4 25 -9 35 -12 9 -3 35 -8 57
-11 22 -2 45 -9 51 -14 6 -5 13 -7 16 -4 2 3 19 1 36 -4 18 -5 32 -6 32 -2 0
4 -28 13 -62 20 -142 29 -158 33 -152 42 7 11 3 11 -16 -1z"/>
<path d="M6045 2504 c-22 -9 -105 -31 -184 -49 -141 -34 -168 -43 -143 -52 6
-3 12 -12 12 -21 0 -13 2 -14 8 -4 7 9 219 62 254 62 5 0 20 -14 35 -31 45
-50 153 -116 238 -145 70 -24 95 -28 200 -27 103 0 132 4 200 26 87 29 333
125 325 127 -3 1 -14 4 -25 7 -11 2 -146 7 -300 9 -205 4 -299 9 -350 21 -104
23 -149 41 -175 68 -27 28 -39 30 -95 9z m6 -91 c13 -16 12 -17 -3 -4 -10 7
-18 15 -18 17 0 8 8 3 21 -13z m60 -50 c13 -16 12 -17 -3 -4 -10 7 -18 15 -18
17 0 8 8 3 21 -13z"/>
<path d="M5851 2480 c-79 -20 -133 -27 -180 -26 -60 3 -68 0 -84 -21 l-18 -23
48 0 c31 0 43 3 34 9 -21 14 5 24 68 27 31 2 67 6 81 9 68 14 170 41 176 48
10 10 5 9 -125 -23z"/>
<path d="M5419 2290 c-20 -38 -32 -67 -27 -64 10 7 71 125 66 129 -2 2 -19
-27 -39 -65z"/>
<path d="M4251 2325 c0 -5 11 -30 24 -55 13 -25 24 -40 24 -35 0 6 -11 30 -24
55 -13 25 -24 41 -24 35z"/>
<path d="M5625 2156 c-95 -199 -96 -199 -163 -48 -46 106 -57 116 -96 87 -10
-8 -23 -12 -29 -8 -6 3 -7 1 -4 -4 9 -14 -19 -37 -34 -27 -7 4 -9 3 -5 -4 6
-10 -28 -23 -145 -56 -89 -25 -81 -40 70 -130 102 -61 120 -63 157 -20 20 24
21 24 63 9 68 -24 105 2 161 114 43 87 111 244 106 248 -1 2 -38 -71 -81 -161z"/>
<path d="M4536 2287 c3 -10 9 -15 12 -12 3 3 0 11 -7 18 -10 9 -11 8 -5 -6z"/>
<path d="M4300 2216 c0 -10 100 -206 105 -206 5 0 -92 199 -101 209 -2 2 -4 1
-4 -3z"/>
<path d="M4499 2105 c-27 -58 -54 -105 -60 -105 -6 0 -6 -8 2 -21 9 -17 8 -20
-3 -14 -7 4 -5 -1 4 -11 16 -16 23 -17 60 -7 24 7 50 15 60 18 11 4 21 -3 34
-24 28 -47 56 -41 180 42 104 69 129 93 102 95 -31 2 -212 62 -222 73 -8 9 -8
10 2 5 18 -10 15 -1 -5 15 -11 10 -14 10 -9 2 4 -7 3 -13 -2 -13 -11 0 -44 35
-38 41 2 2 -9 5 -26 6 -29 2 -32 -2 -79 -102z m121 -166 c0 -18 -10 -8 -25 24
l-16 32 21 -24 c11 -13 20 -27 20 -32z"/>
<path d="M4855 2110 l-30 -8 33 -1 c17 0 32 4 32 9 0 6 -1 9 -2 9 -2 -1 -16
-5 -33 -9z"/>
<path d="M5093 2103 c9 -2 23 -2 30 0 6 3 -1 5 -18 5 -16 0 -22 -2 -12 -5z"/>
<path d="M1545 1581 c-6 -11 12 -24 40 -28 60 -9 471 -1 480 9 7 8 5 9 -7 5
-28 -10 -455 -8 -508 2 -3 1 2 6 10 11 9 6 10 10 3 10 -6 0 -14 -4 -18 -9z"/>
<path d="M8018 1576 c3 -5 -3 -6 -14 -2 -10 4 -15 4 -11 0 4 -4 2 -13 -5 -21
-18 -22 -1 -27 36 -9 19 9 43 16 55 16 12 0 21 6 21 14 0 10 -13 13 -44 12
-24 0 -41 -5 -38 -10z"/>
<path d="M8120 1580 c0 -5 19 -14 43 -21 23 -6 55 -18 70 -26 36 -18 49 -7 20
17 -12 9 -19 20 -16 24 4 3 2 6 -3 7 -74 6 -114 6 -114 -1z"/>
<path d="M2429 1563 c-13 -16 -12 -17 4 -4 9 7 17 15 17 17 0 8 -8 3 -21 -13z"/>
<path d="M3459 1553 l-24 -28 28 24 c15 14 27 26 27 28 0 8 -8 1 -31 -24z"/>
<path d="M6094 1558 l-19 -23 23 19 c21 18 27 26 19 26 -2 0 -12 -10 -23 -22z"/>
<path d="M6804 1558 l-19 -23 23 19 c21 18 27 26 19 26 -2 0 -12 -10 -23 -22z"/>
<path d="M7615 1569 c-47 -10 -405 -12 -431 -3 -14 5 -16 4 -8 -5 7 -8 74 -11
224 -12 163 0 221 -3 248 -14 44 -19 45 -19 39 4 -3 15 -1 18 11 14 10 -5 13
-2 8 6 -5 8 -18 10 -33 6 -16 -4 -22 -2 -18 5 3 5 5 9 3 9 -2 -1 -21 -5 -43
-10z"/>
<path d="M8257 1567 c3 -4 8 -6 11 -3 3 3 11 1 17 -4 9 -7 16 -5 25 5 12 14 9
16 -23 13 -20 -1 -33 -6 -30 -11z"/>
<path d="M2207 1560 c16 -17 179 -18 196 -1 10 11 7 12 -13 5 -31 -9 -138 -9
-171 1 -19 6 -21 5 -12 -5z"/>
<path d="M2637 1560 c15 -16 199 -18 215 -2 8 8 -4 9 -43 4 -65 -7 -120 -6
-157 3 -21 5 -24 4 -15 -5z"/>
<path d="M2967 1560 c16 -17 462 -15 478 2 7 8 5 9 -8 5 -25 -9 -438 -10 -462
-1 -16 5 -18 4 -8 -6z"/>
<path d="M3585 1560 c-3 -5 -5 -10 -3 -11 9 -1 128 -7 158 -8 33 0 61 20 39
28 -6 2 -15 -2 -19 -9 -7 -12 -102 -8 -152 6 -9 3 -19 0 -23 -6z"/>
<path d="M3984 1562 c17 -16 225 -18 240 -1 8 9 4 10 -18 5 -32 -8 -128 -8
-190 -2 -21 3 -35 2 -32 -2z"/>
<path d="M4336 1562 c-3 -5 2 -16 11 -23 11 -9 14 -10 9 -2 -5 10 45 12 229
12 173 -1 233 -4 228 -13 -3 -6 3 -2 15 8 12 11 22 20 22 22 0 1 -15 1 -32 -1
-60 -6 -444 -6 -460 0 -9 4 -19 2 -22 -3z"/>
<path d="M5225 1560 c-3 -6 -5 -10 -3 -11 5 0 122 -7 133 -7 6 0 56 2 111 5
78 3 110 1 139 -11 32 -14 40 -14 57 -2 19 14 19 15 1 24 -10 5 -74 7 -153 4
-187 -7 -180 -7 -232 1 -28 4 -50 3 -53 -3z m430 -10 c3 -6 -1 -7 -9 -4 -18 7
-21 14 -7 14 6 0 13 -4 16 -10z"/>
<path d="M5866 1562 c-11 -19 190 -20 208 -1 8 8 4 9 -14 3 -30 -9 -138 -9
-167 0 -12 4 -24 3 -27 -2z"/>
<path d="M6210 1566 c0 -2 8 -10 18 -17 15 -13 16 -12 3 4 -13 16 -21 21 -21
13z"/>
<path d="M6247 1560 c16 -17 180 -17 196 0 9 10 7 11 -12 5 -33 -10 -140 -10
-171 -1 -20 7 -23 6 -13 -4z"/>
<path d="M6565 1560 c-8 -12 -12 -12 108 -12 66 -1 102 3 110 12 10 10 7 11
-13 5 -31 -10 -148 -10 -177 -1 -12 4 -24 2 -28 -4z"/>
<path d="M8053 1539 c-38 -11 -69 -49 -51 -60 7 -4 16 -5 20 -3 5 3 8 2 7 -3
-4 -23 3 -25 17 -5 23 33 117 32 168 -3 35 -23 47 -22 26 3 -7 9 -7 9 2 2 19
-16 38 -12 38 8 0 11 -19 25 -55 41 -63 27 -126 35 -172 20z"/>
<path d="M1568 1522 c-39 -24 -35 -32 18 -32 25 0 43 4 40 9 -3 5 4 11 17 15
18 5 20 8 7 16 -22 14 -51 12 -82 -8z"/>
<path d="M1733 1533 c-18 -7 -16 -23 2 -23 8 0 15 -6 15 -12 0 -10 30 -12 125
-10 69 2 125 7 125 13 0 5 7 9 15 9 20 0 19 16 -1 24 -19 7 -263 7 -281 -1z"/>
<path d="M2953 1523 c-34 -23 -28 -33 18 -33 24 0 38 4 34 10 -3 6 3 10 14 10
25 0 28 15 5 24 -25 10 -47 6 -71 -11z"/>
<path d="M3110 1530 c-13 -8 -11 -11 7 -16 13 -4 20 -10 17 -15 -3 -5 50 -9
120 -9 69 0 126 4 126 9 0 5 10 11 23 15 51 14 -13 26 -143 26 -74 0 -142 -5
-150 -10z"/>
<path d="M3998 1522 c-39 -24 -35 -32 17 -32 25 0 45 4 45 9 0 5 10 11 23 15
18 5 20 8 7 16 -23 15 -62 12 -92 -8z"/>
<path d="M4390 1530 c-13 -8 -11 -11 7 -16 13 -4 20 -10 17 -15 -3 -5 20 -9
51 -9 35 0 54 4 50 10 -3 6 3 10 14 10 29 0 35 17 8 24 -35 9 -130 7 -147 -4z"/>
<path d="M4623 1533 c-20 -8 -15 -23 8 -23 11 0 17 -4 14 -10 -4 -6 15 -10 50
-10 35 0 54 4 50 10 -3 6 3 10 14 10 29 0 35 17 8 24 -26 7 -127 7 -144 -1z"/>
<path d="M5392 1533 c-17 -7 -5 -23 18 -23 11 0 17 -5 15 -12 -4 -10 14 -13
69 -13 50 0 79 -5 92 -15 16 -14 17 -13 11 4 -6 16 -5 17 7 7 21 -17 33 7 13
26 -25 25 -182 44 -225 26z"/>
<path d="M2185 1510 c-18 -20 -17 -20 13 -20 17 0 38 -3 48 -7 11 -4 15 -3 11
4 -4 6 0 13 8 17 29 11 15 26 -23 26 -26 0 -45 -7 -57 -20z"/>
<path d="M2340 1522 c0 -5 12 -14 26 -20 14 -7 23 -16 19 -21 -3 -5 0 -13 6
-17 7 -4 9 -3 6 3 -4 6 7 13 24 17 l32 6 -26 20 c-25 20 -87 28 -87 12z"/>
<path d="M2616 1511 c-16 -17 -16 -19 1 -25 17 -7 83 22 83 36 0 16 -67 8 -84
-11z"/>
<path d="M2750 1523 c0 -3 7 -14 16 -24 14 -16 8 -35 -76 -241 -51 -122 -97
-234 -102 -248 l-9 -24 -21 32 c-26 41 -56 42 -71 2 -11 -30 -27 -41 -27 -18
0 6 -2 9 -5 6 -3 -3 -3 -12 0 -20 7 -18 58 -28 98 -21 34 7 44 25 132 248 111
282 101 263 148 267 23 2 42 9 45 17 3 8 0 11 -6 8 -5 -4 -15 0 -22 8 -12 15
-100 22 -100 8z"/>
<path d="M3578 1511 c-9 -11 -14 -22 -11 -25 10 -10 83 -7 83 3 0 5 9 13 20
16 36 11 21 25 -28 25 -34 0 -52 -5 -64 -19z"/>
<path d="M4153 1504 c25 -23 34 -25 73 -19 l45 6 -25 20 c-16 13 -40 19 -72
19 l-49 0 28 -26z"/>
<path d="M5226 1514 c-24 -24 -19 -34 17 -34 28 1 77 28 77 44 0 13 -80 5 -94
-10z"/>
<path d="M5858 1511 c-19 -23 -14 -31 21 -31 24 1 71 30 71 44 0 3 -17 6 -38
6 -25 0 -43 -7 -54 -19z"/>
<path d="M6010 1522 c0 -15 40 -42 63 -42 41 0 51 15 23 33 -26 17 -86 23 -86
9z"/>
<path d="M6227 1512 c-24 -27 -21 -32 18 -32 19 0 35 4 35 9 0 5 9 13 20 16
33 11 23 25 -18 25 -25 0 -45 -7 -55 -18z"/>
<path d="M6365 1520 c-3 -5 -2 -10 4 -10 5 0 17 -7 25 -16 12 -12 26 -14 56
-9 l40 7 -24 19 c-26 20 -91 26 -101 9z"/>
<path d="M6558 1511 c-9 -11 -14 -22 -11 -25 10 -10 73 -7 73 3 0 5 9 13 20
16 35 11 22 25 -23 25 -30 0 -48 -6 -59 -19z"/>
<path d="M6732 1505 c27 -25 52 -31 82 -19 28 11 -26 44 -70 44 l-39 0 27 -25z"/>
<path d="M7157 1512 c-10 -10 -14 -22 -10 -25 10 -11 233 -8 233 2 0 5 9 13
20 16 50 16 11 25 -103 25 -107 0 -126 -2 -140 -18z"/>
<path d="M7440 1521 c0 -5 9 -13 20 -16 11 -3 20 -11 20 -16 0 -5 28 -9 63 -9
40 0 70 -5 85 -15 20 -15 21 -15 15 2 -6 15 -4 16 9 5 13 -10 18 -10 24 -1 4
7 -4 22 -20 36 -24 21 -37 23 -122 23 -52 0 -94 -4 -94 -9z"/>
<path d="M3720 1506 c0 -8 9 -18 20 -21 11 -4 27 -19 35 -35 18 -35 19 -44 3
-34 -7 4 -8 3 -4 -5 4 -6 11 -9 15 -6 7 4 261 -395 261 -410 0 -4 -4 -3 -10 0
-15 9 -12 -2 5 -19 12 -11 28 -14 68 -9 28 3 54 7 56 9 6 5 -37 40 -94 78 -45
30 -66 58 -178 240 -70 114 -127 211 -127 216 0 6 -11 10 -25 10 -15 0 -25 -6
-25 -14z"/>
<path d="M2052 1475 c0 -16 2 -22 5 -12 2 9 2 23 0 30 -3 6 -5 -1 -5 -18z"/>
<path d="M2325 1489 c-8 -11 65 -193 73 -184 3 3 -1 17 -8 33 -7 15 -20 43
-28 62 -8 19 -19 43 -24 53 -6 12 -5 23 3 33 7 9 8 14 1 14 -6 0 -14 -5 -17
-11z"/>
<path d="M2699 1486 c8 -10 9 -21 3 -33 -5 -10 -15 -30 -21 -45 -6 -16 -16
-40 -22 -55 -6 -16 -15 -36 -20 -45 -5 -10 -9 -24 -9 -32 0 -7 -7 -19 -15 -26
-8 -7 -12 -16 -9 -21 3 -5 -2 -24 -12 -41 -30 -58 -34 -68 -34 -80 1 -22 17
13 90 193 67 165 75 199 49 199 -9 0 -8 -4 0 -14z"/>
<path d="M3432 1475 c0 -16 2 -22 5 -12 2 9 2 23 0 30 -3 6 -5 -1 -5 -18z"/>
<path d="M4803 1455 c0 -27 2 -38 4 -22 2 15 2 37 0 50 -2 12 -4 0 -4 -28z"/>
<path d="M7911 1469 c0 -19 3 -28 6 -22 7 20 40 -2 47 -31 6 -25 7 -25 36 -8
l30 17 -28 5 c-21 4 -27 11 -27 31 0 20 -4 25 -17 21 -10 -2 -25 1 -33 8 -13
11 -15 8 -14 -21z"/>
<path d="M1680 1396 c0 -52 4 -97 9 -100 5 -4 7 2 4 12 -3 12 4 21 24 29 18 8
20 10 6 7 -22 -5 -23 -3 -23 70 0 44 -4 76 -10 76 -6 0 -10 -38 -10 -94z"/>
<path d="M2659 1473 c-13 -16 -12 -17 4 -4 16 13 21 21 13 21 -2 0 -10 -8 -17
-17z"/>
<path d="M3072 1425 c-1 -38 -5 -81 -9 -93 -5 -22 -4 -23 15 -11 12 7 17 16
12 19 -5 3 -11 39 -13 80 l-3 75 -2 -70z"/>
<path d="M4112 1323 c-2 -172 -2 -173 -24 -173 -21 -1 -21 -2 -5 -11 40 -23
42 -12 37 176 l-6 180 -2 -172z"/>
<path d="M4363 1450 c0 -25 2 -35 4 -22 2 12 2 32 0 45 -2 12 -4 2 -4 -23z"/>
<path d="M4582 1292 c-2 -200 -2 -203 -24 -213 -22 -9 -21 -9 4 -6 15 2 29 0
30 -5 2 -5 12 -2 23 6 20 15 20 15 -2 9 l-23 -5 -3 208 -2 209 -3 -203z"/>
<path d="M5353 1395 c-1 -55 1 -93 4 -85 6 16 23 30 35 30 4 0 5 -7 2 -15 -5
-13 7 -15 74 -15 77 0 132 13 132 32 0 10 -84 -2 -88 -14 -2 -4 -26 -8 -53 -8
-31 0 -48 4 -44 10 3 6 1 10 -5 10 -6 0 -9 4 -6 9 3 4 -6 6 -19 3 -23 -4 -24
-2 -28 69 -3 63 -3 60 -4 -26z"/>
<path d="M5972 1313 c3 -109 10 -188 18 -204 l12 -26 23 21 c18 16 21 25 13
39 -6 12 -17 17 -29 14 -18 -5 -19 2 -19 164 0 119 -3 169 -11 169 -9 0 -10
-49 -7 -177z"/>
<path d="M6342 1345 c-1 -82 -5 -159 -8 -171 -3 -11 -20 -26 -37 -33 l-32 -13
28 -10 c20 -7 27 -15 23 -27 -5 -12 -2 -11 9 3 23 30 26 67 23 241 l-4 160 -2
-150z"/>
<path d="M6680 1290 l-5 -205 -24 1 -24 1 23 -19 c17 -13 25 -16 30 -7 5 7 9
8 11 1 3 -7 12 -5 24 4 l20 16 -20 -4 c-19 -3 -20 4 -25 207 l-5 210 -5 -205z"/>
<path d="M7433 1450 c0 -25 2 -35 4 -22 2 12 2 32 0 45 -2 12 -4 2 -4 -23z"/>
<path d="M7727 1476 c-16 -6 -26 -15 -23 -23 9 -23 -5 -43 -30 -43 -30 0 -30
-10 1 -33 l24 -17 12 40 c8 27 18 40 29 40 17 0 35 37 22 43 -4 2 -20 -1 -35
-7z"/>
<path d="M3702 1282 c-2 -160 -5 -194 -17 -198 -25 -10 -8 -21 25 -16 25 4 28
6 15 16 -12 9 -15 45 -18 201 l-2 190 -3 -193z"/>
<path d="M5660 1445 c0 -14 -9 -24 -27 -31 l-27 -9 26 -17 27 -18 12 35 c8 22
20 35 30 35 18 0 38 19 22 21 -57 6 -63 4 -63 -16z"/>
<path d="M8273 1421 c-13 -11 -23 -22 -23 -25 0 -3 25 -6 55 -6 30 0 55 5 55
10 0 6 -6 10 -14 10 -7 0 -19 7 -26 15 -16 19 -20 19 -47 -4z"/>
<path d="M2018 1410 c-11 -12 -13 -22 -7 -26 15 -9 99 5 99 17 0 6 -4 8 -9 5
-5 -3 -14 1 -21 9 -17 21 -42 19 -62 -5z"/>
<path d="M3407 1412 c-25 -27 -21 -32 21 -32 55 0 69 13 38 33 -32 21 -39 21
-59 -1z"/>
<path d="M8040 1395 c0 -2 10 -10 23 -16 20 -11 21 -11 8 4 -13 16 -31 23 -31
12z"/>
<path d="M3790 1387 c0 -12 213 -352 233 -372 14 -14 9 -5 -111 190 -104 168
-122 195 -122 182z"/>
<path d="M4333 1371 c-13 -11 -23 -22 -23 -25 0 -3 25 -6 55 -6 73 0 73 9 -5
47 -3 1 -15 -6 -27 -16z"/>
<path d="M4773 1371 c-13 -11 -23 -22 -23 -25 0 -10 109 -6 115 4 3 6 0 10 -8
10 -8 0 -20 7 -27 15 -16 20 -30 19 -57 -4z"/>
<path d="M7403 1371 c-28 -24 -20 -31 34 -31 49 0 54 10 18 34 -29 19 -25 19
-52 -3z"/>
<path d="M7941 1361 c-23 -42 34 -80 197 -130 56 -17 102 -36 102 -41 0 -5 9
-2 20 7 44 38 17 60 -120 98 -52 14 -116 39 -142 55 -45 27 -48 28 -57 11z"/>
<path d="M8027 1374 c-20 -20 8 -35 125 -64 45 -12 94 -28 109 -35 23 -12 29
-12 39 0 9 11 6 17 -17 30 -15 9 -20 14 -10 11 9 -3 25 -9 35 -12 9 -3 4 2
-11 11 -16 9 -36 13 -49 9 -12 -3 -18 -2 -15 3 4 6 -4 8 -20 5 -17 -3 -24 -1
-19 6 4 6 -1 8 -13 5 -16 -4 -96 15 -137 33 -5 2 -13 1 -17 -2z"/>
<path d="M5659 1353 c-8 -9 -34 -25 -59 -36 l-45 -20 33 -14 c19 -8 42 -11 51
-8 24 7 91 70 91 85 0 10 -3 10 -14 1 -10 -8 -16 -9 -21 -1 -9 14 -20 13 -36
-7z"/>
<path d="M7609 1353 c-1 -5 -1 -11 0 -15 0 -5 -5 -8 -13 -8 -8 0 -16 -6 -19
-12 -3 -10 -9 -10 -26 0 -11 6 -25 12 -29 12 -5 0 -9 -6 -9 -12 0 -20 74 -20
110 -1 30 16 31 18 9 21 -12 2 -20 8 -17 13 4 5 4 9 1 9 -3 0 -7 -3 -7 -7z"/>
<path d="M7696 1341 c-10 -11 -31 -25 -47 -31 -32 -14 -39 -30 -11 -30 10 0
23 -5 29 -11 12 -12 76 38 95 75 8 17 8 19 -2 9 -9 -8 -19 -9 -30 -3 -13 7
-22 4 -34 -9z"/>
<path d="M1725 1320 c-3 -5 1 -10 9 -10 9 0 16 5 16 10 0 6 -4 10 -9 10 -6 0
-13 -4 -16 -10z"/>
<path d="M1935 1320 c-3 -5 -2 -10 4 -10 5 0 13 5 16 10 3 6 2 10 -4 10 -5 0
-13 -4 -16 -10z"/>
<path d="M3115 1320 c-3 -5 1 -10 9 -10 9 0 16 5 16 10 0 6 -4 10 -9 10 -6 0
-13 -4 -16 -10z"/>
<path d="M3316 1321 c-3 -5 3 -11 14 -14 21 -5 32 1 24 14 -7 12 -31 11 -38 0z"/>
<path d="M7163 1316 c0 -20 147 -21 172 -1 20 16 20 16 -2 6 -27 -14 -128 -14
-152 -2 -12 7 -18 6 -18 -3z"/>
<path d="M5370 1293 c0 -18 59 -53 89 -53 19 0 32 -6 35 -17 4 -10 16 -29 27
-43 l21 -25 -16 28 c-22 37 -38 79 -27 73 11 -7 36 22 27 32 -11 10 -156 15
-156 5z"/>
<path d="M1710 1279 c0 -6 9 -13 20 -16 11 -3 20 -10 20 -17 0 -8 37 -10 125
-8 69 2 125 7 125 13 0 5 -6 9 -14 9 -7 0 -19 7 -26 15 -10 12 -38 15 -131 15
-80 0 -119 -4 -119 -11z"/>
<path d="M2401 1285 c0 -6 9 -28 19 -50 17 -34 18 -36 13 -10 -6 28 -34 80
-32 60z"/>
<path d="M3090 1280 c0 -5 11 -12 25 -16 14 -3 22 -10 19 -15 -6 -10 229 -13
239 -2 4 3 -7 15 -23 25 -25 15 -52 18 -145 18 -69 0 -115 -4 -115 -10z"/>
<path d="M7163 1273 c-13 -8 -23 -19 -23 -24 0 -5 52 -9 115 -9 65 0 115 4
115 9 0 39 -159 58 -207 24z"/>
<path d="M7511 1269 c-28 -23 -27 -24 18 -33 28 -5 32 -4 22 8 -10 12 -8 13 8
9 25 -6 30 22 5 31 -22 9 -26 8 -53 -15z"/>
<path d="M5553 1265 c-3 -9 -3 -18 -1 -21 3 -3 8 4 11 16 6 23 -1 27 -10 5z"/>
<path d="M7601 1258 c0 -15 98 -207 98 -195 1 4 -19 48 -44 97 -25 49 -45 92
-45 94 0 3 8 7 18 9 13 4 11 5 -5 6 -13 0 -23 -5 -22 -11z"/>
<path d="M6956 1229 c22 -23 25 -34 22 -85 -3 -55 -5 -59 -27 -58 l-24 1 22
-19 c13 -10 27 -18 32 -18 5 0 9 38 9 84 0 62 4 87 15 96 22 19 9 29 -35 27
l-39 -2 25 -26z m42 12 c16 12 16 12 0 -6 -18 -19 -18 -19 -35 0 -17 18 -17
18 0 6 14 -11 20 -11 35 0z"/>
<path d="M5352 1172 c-2 -75 -4 -83 -24 -91 l-22 -8 22 -12 c17 -9 22 -9 22 1
0 10 2 10 8 1 5 -8 12 -8 26 3 19 14 19 14 -2 14 -20 0 -21 6 -25 88 l-3 87
-2 -83z"/>
<path d="M1678 1158 c-2 -65 -6 -82 -17 -80 -12 3 -12 0 -1 -12 16 -20 44 -20
60 -1 10 12 10 15 -4 15 -13 0 -16 13 -16 80 0 106 -18 104 -22 -2z"/>
<path d="M3072 1167 c-2 -68 -4 -79 -23 -85 -20 -8 -20 -8 4 -21 22 -11 29
-11 48 3 l23 16 -21 0 c-21 0 -22 5 -26 83 l-3 82 -2 -78z"/>
<path d="M5580 1190 c11 -22 23 -40 25 -40 3 0 -4 18 -15 40 -11 22 -23 40
-25 40 -3 0 4 -18 15 -40z"/>
<path d="M8346 1215 c-14 -11 -23 -12 -33 -4 -15 13 -17 1 -4 -19 5 -8 21 -12
37 -10 21 2 30 9 32 26 4 25 -5 27 -32 7z"/>
<path d="M7411 1194 c27 -29 24 -110 -4 -108 -15 2 -15 -1 5 -20 l23 -21 3 69
c2 56 0 71 -15 82 -15 12 -15 13 -2 8 10 -3 20 0 24 6 4 7 -4 10 -24 8 l-31
-2 21 -22z"/>
<path d="M5540 1202 c0 -17 30 -75 36 -69 3 3 -4 22 -15 44 -11 21 -20 32 -21
25z"/>
<path d="M7945 1190 c4 -7 16 -9 28 -6 19 5 19 4 4 -11 -14 -14 -18 -14 -33
-2 -16 13 -16 12 -3 -9 8 -12 20 -20 27 -17 8 3 18 5 23 5 5 0 7 10 5 23 -2
16 -11 23 -31 25 -19 3 -25 0 -20 -8z"/>
<path d="M2452 1159 c6 -16 12 -29 13 -27 6 6 -8 58 -16 58 -4 0 -3 -14 3 -31z"/>
<path d="M2035 1160 c3 -5 14 -10 23 -10 12 0 13 -3 4 -12 -8 -8 -15 -8 -29 3
-17 13 -17 13 0 -7 21 -26 22 -40 0 -52 -14 -9 -14 -11 5 -21 21 -11 22 -10
22 27 0 23 6 45 15 52 20 16 10 30 -21 30 -14 0 -22 -4 -19 -10z"/>
<path d="M3406 1161 c-3 -5 1 -14 9 -21 8 -7 15 -24 15 -37 0 -20 -4 -24 -20
-20 -11 3 -18 2 -15 -3 3 -4 16 -10 29 -12 23 -5 24 -3 19 24 -4 19 0 35 11
47 9 10 13 21 9 24 -9 10 -51 8 -57 -2z m42 -19 c-8 -9 -14 -9 -24 -1 -18 15
-18 14 10 14 18 0 22 -3 14 -13z"/>
<path d="M8310 1160 c0 -5 -13 -10 -30 -10 -16 0 -30 -4 -30 -10 0 -5 7 -10
15 -10 9 0 20 -10 25 -22 5 -13 9 -20 9 -17 1 4 8 23 16 43 9 21 11 36 5 36
-5 0 -10 -4 -10 -10z"/>
<path d="M2512 1108 c-18 -18 -14 -38 7 -38 27 0 37 19 19 36 -11 11 -16 12
-26 2z"/>
<path d="M4056 1111 c-8 -12 21 -34 34 -26 8 5 8 11 -1 21 -13 16 -25 18 -33
5z"/>
<path d="M8050 1114 c0 -4 8 -13 18 -20 16 -13 16 -14 0 -8 -10 3 -18 1 -18
-5 0 -15 39 -38 77 -46 42 -8 113 11 113 31 0 11 -5 14 -17 9 -10 -4 -27 -10
-38 -13 -11 -3 -23 -10 -27 -16 -6 -8 -10 -8 -15 0 -5 6 -18 14 -31 18 -12 4
-20 11 -17 16 3 4 -6 15 -20 24 -14 9 -25 13 -25 10z"/>
<path d="M8367 1097 c-5 -14 -11 -16 -26 -7 -14 7 -22 7 -27 -1 -3 -6 -27 -24
-52 -40 -65 -41 -138 -41 -215 1 -65 35 -67 35 -67 15 0 -9 11 -20 24 -26 17
-8 22 -17 18 -33 -3 -11 -2 -18 3 -14 4 4 30 -2 59 -14 97 -38 223 -4 272 74
14 22 23 45 21 51 -2 6 -6 3 -10 -6z"/>
<path d="M6386 1084 c-5 -13 -9 -14 -21 -4 -11 9 -22 6 -52 -19 -47 -37 -118
-56 -183 -48 -55 7 -124 38 -138 63 -6 11 -16 15 -27 10 -13 -5 -15 -9 -6 -20
7 -8 10 -19 9 -26 -6 -22 47 -50 126 -66 65 -13 90 -14 131 -5 58 13 162 76
171 104 7 23 -1 34 -10 11z"/>
<path d="M6066 1070 c-19 -19 -18 -20 8 -30 37 -14 146 -12 175 3 25 12 27 34
3 29 -9 -2 -11 1 -6 9 4 8 3 10 -5 5 -6 -4 -9 -11 -6 -16 3 -5 -13 -14 -35
-21 -50 -15 -123 2 -114 26 8 19 3 18 -20 -5z"/>
<path d="M2420 1075 c0 -5 5 -17 10 -25 5 -8 10 -10 10 -5 0 6 -5 17 -10 25
-5 8 -10 11 -10 5z"/>
<path d="M1540 1066 c0 -2 8 -10 18 -17 15 -13 16 -12 3 4 -13 16 -21 21 -21
13z"/>
<path d="M1579 1056 c8 -10 25 -16 40 -14 26 3 33 19 10 27 -7 2 -9 -1 -5 -8
9 -14 -9 -14 -37 1 -20 10 -21 10 -8 -6z"/>
<path d="M2960 1056 c13 -17 70 -22 70 -7 0 16 -18 22 -22 9 -4 -10 -10 -10
-33 0 -25 12 -27 11 -15 -2z"/>
<path d="M4463 1058 c0 -8 16 -14 39 -16 21 -1 38 2 38 7 0 16 -18 22 -23 9
-3 -10 -9 -11 -26 0 -11 6 -22 12 -24 12 -2 0 -4 -6 -4 -12z"/>
<path d="M4627 1064 c-11 -12 3 -24 27 -24 13 0 29 7 36 16 12 13 10 14 -14 3
-21 -10 -29 -10 -35 -1 -4 7 -10 9 -14 6z"/>
<path d="M5686 1055 c-4 -12 2 -15 29 -15 18 0 37 5 41 11 4 8 -1 9 -15 4 -12
-4 -28 -2 -35 4 -10 9 -15 8 -20 -4z"/>
<path d="M1730 1048 c0 -5 65 -8 145 -8 80 0 145 3 145 8 0 4 -65 7 -145 7
-80 0 -145 -3 -145 -7z"/>
<path d="M3110 1048 c0 -5 65 -8 145 -8 80 0 145 3 145 8 0 4 -65 7 -145 7
-80 0 -145 -3 -145 -7z"/>
<path d="M3596 1048 c3 -5 21 -8 40 -8 19 0 34 3 34 8 0 4 -18 7 -39 7 -22 0
-37 -3 -35 -7z"/>
<path d="M3740 1049 c0 -4 17 -9 38 -11 22 -2 39 1 39 7 0 6 -18 10 -39 10
-21 0 -38 -3 -38 -6z"/>
<path d="M5225 1051 c-3 -2 -3 -7 0 -10 5 -9 85 -1 85 9 0 7 -78 9 -85 1z"/>
<path d="M5390 1049 c0 -5 16 -9 35 -9 19 0 37 0 40 0 3 0 6 3 8 8 1 4 -17 8
-40 9 -24 1 -43 -3 -43 -8z"/>
<path d="M6576 1048 c3 -4 18 -8 35 -8 16 0 29 4 29 8 0 4 -15 8 -34 8 -19 0
-32 -4 -30 -8z"/>
<path d="M6730 1048 c0 -5 47 -8 105 -8 58 0 105 3 105 8 0 4 -47 7 -105 7
-58 0 -105 -3 -105 -7z"/>
<path d="M7140 1056 c0 -2 8 -10 18 -17 15 -13 16 -12 3 4 -13 16 -21 21 -21
13z"/>
<path d="M7177 1048 c2 -5 53 -8 114 -8 60 0 109 3 109 8 0 4 -51 7 -114 7
-63 0 -112 -3 -109 -7z"/>
<path d="M7730 1048 c0 -11 47 -11 54 0 3 5 -8 9 -24 9 -17 0 -30 -4 -30 -9z"/>
<path d="M1626 1031 c-47 -7 -82 -33 -70 -52 6 -10 496 -12 532 -3 12 4 22 11
22 17 0 6 -3 7 -7 4 -3 -4 -15 1 -25 10 -16 14 -44 17 -186 18 -92 1 -178 4
-192 7 -14 3 -47 3 -74 -1z"/>
<path d="M3015 1031 c-46 -8 -87 -31 -82 -46 4 -11 494 -20 535 -10 30 7 28
19 -5 35 -19 8 -83 13 -193 14 -91 2 -176 5 -190 8 -14 3 -43 3 -65 -1z"/>
<path d="M4521 1030 c-24 -4 -49 -14 -56 -23 -7 -9 -15 -14 -18 -10 -4 3 -7 1
-7 -5 0 -6 12 -15 26 -18 36 -9 243 1 252 12 4 5 5 8 3 6 -3 -1 -14 6 -25 17
-24 21 -109 32 -175 21z"/>
<path d="M5325 1030 c-11 -5 -33 -9 -50 -10 -27 -1 -75 -29 -75 -44 0 -8 264
-8 284 0 25 10 -20 40 -69 47 -22 3 -47 7 -55 10 -8 3 -24 2 -35 -3z"/>
<path d="M5632 1015 c3 -13 1 -22 -3 -19 -5 3 -6 -2 -3 -10 5 -13 23 -16 90
-16 46 0 84 3 84 6 0 15 -48 43 -75 44 -17 0 -45 4 -64 10 -32 9 -33 8 -29
-15z"/>
<path d="M6624 1026 c-49 -11 -90 -37 -77 -50 4 -3 110 -6 238 -6 188 0 235 3
251 15 12 9 14 14 6 15 -8 0 -25 9 -38 19 -21 16 -30 18 -61 9 -34 -9 -206 -6
-248 4 -11 3 -43 1 -71 -6z"/>
<path d="M3645 1021 c-40 -6 -85 -29 -85 -43 0 -5 68 -8 150 -8 93 0 150 4
150 10 0 6 -5 10 -12 10 -6 0 -19 6 -27 14 -19 16 -119 26 -176 17z"/>
<path d="M7290 1023 c-87 -3 -118 -7 -132 -20 -10 -8 -15 -20 -12 -24 6 -10
286 -12 322 -3 12 4 22 11 22 16 0 5 -4 7 -9 4 -4 -3 -16 3 -26 14 -10 11 -25
19 -34 18 -9 -1 -68 -4 -131 -5z"/>
<path d="M7684 1016 c-3 -9 -11 -13 -16 -10 -6 4 -5 -3 1 -15 10 -17 21 -21
64 -21 62 0 97 8 97 23 0 6 -3 7 -7 4 -3 -4 -13 -1 -22 7 -9 7 -37 17 -64 20
-38 6 -48 4 -53 -8z"/>
<path d="M7931 999 c-31 -25 -22 -33 28 -24 43 7 49 13 29 33 -17 17 -29 15
-57 -9z"/>
</g>
</svg>
