<?xml version="1.0" standalone="no"?>
<!DOCTYPE svg PUBLIC "-//W3C//DTD SVG 20010904//EN"
 "http://www.w3.org/TR/2001/REC-SVG-20010904/DTD/svg10.dtd">
<svg version="1.0" xmlns="http://www.w3.org/2000/svg"
 width="782.000000pt" height="807.000000pt" viewBox="0 0 782.000000 807.000000"
 preserveAspectRatio="xMidYMid meet">

<g transform="translate(0.000000,807.000000) scale(0.100000,-0.100000)"
fill="#000000" stroke="none">
<path d="M1617 8015 c-21 -44 -21 -44 1 -39 11 4 18 17 19 40 2 18 2 34 0 34
-2 0 -11 -16 -20 -35z"/>
<path d="M6176 8035 c-11 -29 -7 -65 8 -65 7 0 21 -10 30 -22 9 -13 14 -17 11
-10 -4 7 -15 36 -25 63 -12 36 -19 46 -24 34z"/>
<path d="M1575 8011 c-3 -5 -1 -12 5 -16 5 -3 10 1 10 9 0 18 -6 21 -15 7z"/>
<path d="M2157 8000 c-120 -21 -277 -89 -277 -121 0 -6 9 -24 21 -40 27 -38 8
-37 -24 1 -14 17 -28 27 -30 23 -3 -5 16 -30 43 -57 l47 -48 29 18 c34 21 203
154 257 201 l37 33 -27 -1 c-16 -1 -50 -5 -76 -9z"/>
<path d="M5587 7977 c75 -67 257 -207 269 -207 17 0 84 83 89 109 2 12 0 19
-4 17 -4 -3 -17 2 -27 10 -10 9 -13 12 -5 8 9 -4 12 -3 7 4 -4 6 -13 9 -21 6
-8 -4 -18 1 -21 10 -3 9 -10 13 -15 10 -5 -3 -9 -1 -9 5 0 6 -7 7 -17 4 -10
-4 -14 -2 -10 4 4 6 1 11 -6 10 -34 -1 -48 4 -41 15 4 7 3 8 -4 4 -6 -4 -45 0
-86 9 -41 8 -89 15 -106 15 l-30 0 37 -33z"/>
<path d="M1566 7905 c-9 -26 -7 -32 5 -12 6 10 9 21 6 23 -2 3 -7 -2 -11 -11z"/>
<path d="M2055 7813 c-27 -20 -103 -79 -167 -130 -70 -56 -123 -91 -129 -87
-7 4 -9 3 -6 -3 7 -11 -68 -80 -181 -168 -67 -52 -77 -73 -15 -34 51 33 78 44
208 89 250 85 331 129 394 214 39 52 59 92 41 81 -6 -3 -7 1 -4 9 3 9 10 13
15 10 5 -3 9 -3 9 0 0 3 -108 57 -114 56 0 0 -23 -17 -51 -37z"/>
<path d="M5560 7844 c0 -31 148 -224 172 -224 6 0 -17 29 -49 64 -33 35 -74
88 -91 117 -17 30 -32 49 -32 43z"/>
<path d="M5670 7839 c0 -6 -4 -7 -10 -4 -5 3 -10 1 -10 -5 0 -6 -4 -8 -10 -5
-5 3 -10 2 -10 -4 0 -6 -7 -8 -15 -5 -35 14 14 -66 89 -143 28 -29 47 -53 42
-53 -5 0 -3 -7 4 -15 15 -18 34 -20 24 -2 -4 7 -3 9 2 4 5 -5 9 -14 9 -19 0
-6 6 -13 14 -16 9 -3 11 0 6 8 -5 9 -4 11 4 6 6 -4 9 -12 5 -17 -14 -23 241
-112 348 -122 9 -1 14 -5 12 -9 -3 -4 2 -8 11 -8 22 0 96 -51 89 -61 -3 -5 -7
-9 -10 -9 -3 0 -2 5 1 11 4 6 1 9 -6 8 -23 -5 -82 13 -70 20 6 4 -4 7 -22 7
-17 0 -44 3 -59 7 -28 7 -28 7 -28 -40 0 -71 -7 -78 -66 -61 -48 13 -49 14
-52 56 -2 25 -9 45 -17 48 -19 8 -119 -23 -180 -54 l-50 -27 115 -7 c74 -4
147 -16 205 -32 217 -62 257 -69 303 -57 l43 12 -36 44 c-20 24 -42 46 -50 49
-21 8 -19 29 3 22 16 -6 3 6 -113 100 -27 22 -50 44 -50 50 0 13 -27 49 -45
59 -8 4 -1 -7 15 -26 17 -18 21 -27 10 -19 -40 28 -64 53 -60 61 3 4 0 11 -6
15 -8 4 -9 3 -5 -4 14 -23 -8 -11 -58 31 -182 154 -316 241 -316 206z m640
-571 c0 -16 -4 -28 -10 -28 -5 0 -10 19 -10 43 0 31 3 38 10 27 5 -8 10 -27
10 -42z"/>
<path d="M1611 7673 c-1 -6 -4 -20 -7 -30 -5 -17 -5 -17 6 0 6 10 9 23 6 30
-3 9 -5 9 -5 0z"/>
<path d="M6211 7635 c0 -5 6 -21 14 -35 8 -14 14 -20 14 -15 0 6 -6 21 -14 35
-8 14 -14 21 -14 15z"/>
<path d="M1586 7605 c-9 -26 -7 -32 5 -12 6 10 9 21 6 23 -2 3 -7 -2 -11 -11z"/>
<path d="M6575 7595 c3 -18 2 -25 -3 -17 -6 9 -21 5 -64 -18 -60 -32 -60 -32
-88 22 -27 55 -20 20 10 -45 16 -37 30 -72 30 -79 0 -9 21 -14 69 -16 57 -3
70 0 75 14 9 24 -4 114 -21 144 l-14 25 6 -30z"/>
<path d="M1712 7570 c-12 -12 -22 -24 -22 -27 0 -4 11 4 25 17 23 22 29 30 22
30 -2 0 -13 -9 -25 -20z"/>
<path d="M1221 7562 c-5 -9 -11 -46 -14 -82 -4 -36 -3 -56 1 -45 6 17 16 20
67 20 l60 0 33 65 c21 41 26 56 13 40 -11 -14 -21 -28 -21 -33 0 -4 -18 2 -40
13 -74 38 -89 41 -99 22z"/>
<path d="M1561 7543 c-10 -26 -10 -27 4 -9 8 11 15 23 15 28 0 15 -7 8 -19
-19z"/>
<path d="M6241 7565 c0 -5 6 -21 14 -35 8 -14 14 -20 14 -15 0 6 -6 21 -14 35
-8 14 -14 21 -14 15z"/>
<path d="M1390 7525 c0 -7 101 -57 106 -53 2 2 -21 16 -51 31 -30 15 -55 25
-55 22z"/>
<path d="M1075 7495 c4 -22 3 -26 -4 -15 -6 8 -12 12 -14 10 -8 -9 -57 -214
-52 -219 3 -2 5 3 5 11 0 17 28 28 74 28 l29 0 -5 73 c-3 39 -13 88 -22 107
-16 34 -16 34 -11 5z"/>
<path d="M6219 7467 c10 -11 24 -16 30 -12 17 10 -5 34 -30 32 -19 -1 -19 -2
0 -20z m26 3 c3 -6 -1 -7 -9 -4 -18 7 -21 14 -7 14 6 0 13 -4 16 -10z"/>
<path d="M6742 7471 c-8 -5 -13 -10 -12 -12 1 -2 -4 -17 -10 -34 -6 -16 -14
-50 -17 -75 l-5 -45 47 0 c48 0 48 0 63 -43 8 -24 16 -42 17 -40 3 3 -52 203
-68 250 -1 4 -8 4 -15 -1z"/>
<path d="M1535 7434 l-30 -26 33 22 c17 12 32 23 32 26 0 7 -4 5 -35 -22z"/>
<path d="M6265 7430 c3 -5 11 -10 16 -10 6 0 7 5 4 10 -3 6 -11 10 -16 10 -6
0 -7 -4 -4 -10z"/>
<path d="M1705 7412 c-11 -2 -42 -11 -70 -19 -27 -9 -57 -17 -66 -18 -19 -1
-37 -15 -94 -75 -38 -39 -42 -46 -27 -54 32 -18 116 -11 221 19 57 17 97 31
88 33 -11 2 -18 21 -24 60 -7 50 -11 57 -28 54z m-188 -154 c-2 -13 -4 -3 -4
22 0 25 2 35 4 23 2 -13 2 -33 0 -45z"/>
<path d="M1855 7371 c-5 -37 -11 -51 -23 -51 -8 0 -13 -2 -10 -5 3 -3 38 -1
79 5 41 5 100 13 133 16 l58 6 -30 18 c-37 23 -109 48 -161 56 l-39 6 -7 -51z"/>
<path d="M6406 7400 l-58 -5 56 -28 56 -27 11 27 c5 14 6 29 2 32 -4 3 -34 4
-67 1z"/>
<path d="M1340 7367 l0 -27 43 21 c23 12 43 23 45 24 2 2 -17 5 -42 7 -44 3
-46 2 -46 -25z"/>
<path d="M1460 7380 c-12 -12 -19 -24 -16 -28 4 -3 16 4 28 16 12 12 19 24 16
28 -4 3 -16 -4 -28 -16z"/>
<path d="M6320 7385 c7 -8 17 -15 22 -15 6 0 5 7 -2 15 -7 8 -17 15 -22 15 -6
0 -5 -7 2 -15z"/>
<path d="M6330 7350 c0 -5 10 -15 23 -21 22 -12 22 -12 3 10 -21 23 -26 26
-26 11z"/>
<path d="M1465 7340 c-3 -6 1 -7 9 -4 18 7 21 14 7 14 -6 0 -13 -4 -16 -10z"/>
<path d="M1965 7310 c-101 -9 -176 -25 -295 -62 -117 -36 -191 -39 -250 -10
l-43 21 -51 -45 c-28 -24 -89 -89 -136 -144 -92 -109 -106 -117 -201 -108
l-49 5 -9 -36 c-24 -98 -24 -99 21 -122 l42 -22 15 23 c9 13 33 41 54 63 21
22 36 41 33 44 -2 2 18 25 45 50 33 31 48 52 44 62 -3 8 -3 12 1 8 4 -4 27 11
50 34 l43 42 88 -12 c48 -7 117 -16 153 -21 112 -15 233 12 380 85 60 29 228
137 229 146 1 8 -72 8 -164 -1z"/>
<path d="M1788 7303 c7 -3 16 -2 19 1 4 3 -2 6 -13 5 -11 0 -14 -3 -6 -6z"/>
<path d="M5696 7299 c9 -15 92 -60 113 -62 12 -1 21 -5 21 -10 0 -4 4 -6 9 -3
5 4 11 3 13 -2 4 -10 189 -96 251 -116 130 -43 278 -42 398 3 28 11 49 17 46
14 -9 -8 114 -154 124 -147 8 5 13 -9 11 -28 -1 -3 6 -12 16 -20 15 -11 16
-11 7 2 -5 9 0 5 12 -9 12 -14 19 -29 16 -34 -3 -6 -2 -7 4 -4 9 5 82 -83 75
-90 -8 -9 8 -3 46 16 46 24 49 34 31 106 l-11 43 -59 -5 c-35 -4 -70 -1 -88 6
-16 7 -60 49 -98 94 -80 96 -192 210 -201 204 -93 -50 -149 -51 -308 -4 -66
20 -149 41 -183 47 -70 13 -253 12 -245 -1z m914 -239 c17 -22 29 -40 27 -40
-3 0 -20 18 -37 40 -17 22 -29 40 -27 40 3 0 20 -18 37 -40z m51 -67 c13 -16
12 -17 -3 -4 -10 7 -18 15 -18 17 0 8 8 3 21 -13z"/>
<path d="M991 7244 c0 -11 3 -14 6 -6 3 7 2 16 -1 19 -3 4 -6 -2 -5 -13z"/>
<path d="M6996 7195 c16 -39 18 -57 4 -35 -8 13 -19 10 -76 -18 -61 -31 -66
-32 -61 -13 3 12 1 21 -3 21 -5 0 -11 14 -15 31 -4 17 -9 28 -12 26 -3 -3 7
-44 22 -91 14 -48 23 -91 20 -96 -3 -6 -34 -10 -68 -11 l-62 0 33 -16 c17 -9
32 -20 32 -24 0 -4 12 -4 28 0 15 4 32 6 38 4 6 -2 14 6 17 18 5 19 11 21 74
17 l68 -3 3 49 c3 48 -33 176 -49 176 -5 0 -1 -16 7 -35z"/>
<path d="M1226 7194 c-7 -18 25 -27 42 -11 12 12 10 15 -12 19 -15 3 -27 0
-30 -8z"/>
<path d="M6542 7189 c2 -6 8 -10 13 -10 5 0 11 4 13 10 2 6 -4 11 -13 11 -9 0
-15 -5 -13 -11z"/>
<path d="M971 7174 c0 -11 3 -14 6 -6 3 7 2 16 -1 19 -3 4 -6 -2 -5 -13z"/>
<path d="M807 7137 c-8 -13 -20 -41 -26 -63 -12 -44 -15 -105 -3 -88 4 7 35
15 69 19 50 6 64 4 68 -7 4 -9 21 -15 41 -16 19 -1 39 -4 45 -7 5 -4 16 1 25
9 14 15 11 16 -35 16 -47 0 -51 2 -51 23 0 13 7 46 15 72 8 27 12 51 9 54 -3
3 -7 -5 -11 -17 -7 -28 -13 -28 -73 3 -27 14 -51 25 -54 25 -2 0 -11 -10 -19
-23z"/>
<path d="M1080 7000 c-8 -5 -12 -11 -9 -14 2 -3 11 -1 19 4 8 5 12 11 9 14 -2
3 -11 1 -19 -4z"/>
<path d="M6712 6998 c3 -7 13 -15 24 -17 16 -3 17 -1 5 13 -16 19 -34 21 -29
4z"/>
<path d="M1298 6956 c3 -5 -5 -7 -16 -4 -12 4 -20 2 -17 -2 7 -12 -32 -23 -46
-14 -8 5 -9 3 -4 -6 5 -8 3 -11 -6 -8 -18 7 -51 -10 -44 -22 3 -5 -6 -17 -20
-26 -14 -9 -25 -22 -25 -28 0 -16 62 -76 78 -76 7 0 43 15 80 34 76 38 259
102 321 112 23 4 45 12 51 19 9 11 6 12 -11 8 -12 -4 -20 -2 -17 3 4 5 -6 10
-20 10 -15 1 -55 5 -88 9 -58 7 -62 6 -69 -14 -8 -27 -21 -27 -28 -1 -5 18
-12 20 -65 18 -33 -2 -57 -7 -54 -12z m-103 -46 c-3 -5 -12 -10 -18 -10 -7 0
-6 4 3 10 19 12 23 12 15 0z"/>
<path d="M6230 6954 c-25 -7 -50 -12 -57 -9 -7 2 -10 -2 -7 -9 3 -8 25 -17 50
-21 64 -9 152 -39 288 -98 l119 -51 34 39 c18 21 33 44 33 51 0 6 -24 27 -52
45 -29 18 -55 36 -58 39 -3 3 -11 5 -17 6 -38 3 -44 5 -40 12 3 4 -24 8 -59
10 -59 3 -65 1 -73 -20 l-8 -22 -14 22 c-16 26 -68 29 -139 6z"/>
<path d="M1555 6885 c-132 -34 -183 -54 -360 -141 -147 -72 -165 -79 -222 -79
-55 -1 -64 -4 -83 -28 -13 -16 -19 -34 -16 -45 4 -11 -12 -58 -39 -116 -26
-54 -44 -100 -42 -102 2 -2 27 46 55 107 l52 112 119 -7 c233 -14 319 20 548
219 38 33 83 70 99 82 l29 22 -25 0 c-14 0 -65 -11 -115 -24z"/>
<path d="M6140 6901 c0 -14 111 -112 120 -106 4 3 14 -3 21 -13 13 -16 12 -16
-6 -3 -11 7 -7 2 8 -13 16 -14 33 -24 38 -20 5 3 8 0 7 -8 -2 -7 5 -13 14 -13
9 0 20 -4 25 -9 5 -5 2 -6 -7 -2 -8 4 -4 -2 9 -14 13 -11 31 -18 38 -16 8 3
11 1 8 -4 -7 -12 72 -52 144 -74 39 -11 95 -16 200 -16 111 0 148 -3 160 -14
14 -13 16 -12 18 12 0 15 -8 39 -19 55 -19 26 -25 28 -59 23 -48 -8 -96 8
-269 91 -165 79 -264 117 -364 137 -88 19 -86 19 -86 7z m60 -46 c19 -19 32
-35 29 -35 -3 0 -20 16 -39 35 -19 19 -32 35 -29 35 3 0 20 -16 39 -35z"/>
<path d="M6678 6800 c-21 -20 -38 -40 -38 -43 0 -19 30 -2 67 36 52 54 26 60
-29 7z"/>
<path d="M7311 6777 c7 -15 10 -28 8 -30 -2 -1 -25 -12 -51 -25 -47 -21 -48
-23 -49 -69 l-1 -48 -14 69 c-7 38 -15 70 -17 72 -12 12 -77 32 -81 25 -10
-16 -36 -136 -36 -166 0 -30 0 -30 61 -31 33 -1 62 -4 65 -7 2 -2 7 -27 11
-56 l6 -51 -66 0 c-52 0 -68 4 -76 18 -9 15 -10 15 -11 1 0 -10 25 -29 63 -49
34 -19 64 -37 65 -42 2 -4 9 -8 17 -8 14 0 25 43 25 101 l0 39 71 0 72 0 -6
73 c-6 71 -37 182 -58 202 -6 5 -5 -2 2 -18z"/>
<path d="M700 6785 c0 -5 -20 -18 -45 -28 -44 -19 -45 -20 -46 -65 -1 -26 -5
-58 -9 -72 -7 -21 -8 -18 -11 20 -1 25 -2 51 -2 58 1 11 -75 58 -82 50 -13
-16 -45 -128 -51 -178 l-7 -63 66 5 65 4 6 -29 c3 -16 6 -44 6 -63 0 -33 17
-55 29 -37 3 6 29 22 56 36 l50 26 -64 1 -64 0 6 51 c4 29 8 54 11 56 2 3 32
7 66 10 l62 6 -4 81 c-3 49 -11 93 -21 111 -9 17 -16 26 -17 20z"/>
<path d="M790 6766 c0 -11 30 -66 36 -66 2 0 -3 15 -12 33 -19 36 -24 44 -24
33z"/>
<path d="M969 6721 c-33 -33 -32 -41 5 -41 38 0 45 13 23 41 -11 14 -13 14
-28 0z"/>
<path d="M6808 6716 c-20 -28 -15 -36 23 -36 36 0 45 16 23 41 -22 24 -25 24
-46 -5z"/>
<path d="M6861 6737 c2 -1 12 -9 22 -16 14 -12 17 -11 17 3 0 10 -8 16 -22 16
-12 0 -19 -1 -17 -3z"/>
<path d="M910 6708 c0 -17 3 -19 9 -9 5 7 15 17 22 22 10 6 8 9 -8 9 -17 0
-23 -6 -23 -22z"/>
<path d="M855 6710 c-13 -6 -15 -9 -5 -9 8 0 22 4 30 9 18 12 2 12 -25 0z"/>
<path d="M6981 6694 c0 -11 3 -14 6 -6 3 7 2 16 -1 19 -3 4 -6 -2 -5 -13z"/>
<path d="M2085 6570 c55 -55 102 -100 105 -100 2 0 -40 45 -95 100 -55 55
-102 100 -105 100 -2 0 40 -45 95 -100z"/>
<path d="M2120 6565 l105 -105 660 2 660 3 -642 2 -643 3 2 26 c3 28 41 63 93
86 76 33 2295 40 2295 7 0 -5 11 -9 24 -9 13 0 29 -7 36 -15 7 -8 23 -15 37
-15 13 0 26 -7 29 -15 4 -8 17 -15 30 -15 21 0 24 -5 24 -35 0 -26 -4 -35 -17
-36 -10 0 20 -8 67 -18 89 -19 193 -66 293 -133 l59 -38 46 39 c26 21 70 64
99 94 43 47 49 58 37 68 -12 10 -13 9 -7 -7 7 -18 6 -18 -17 -1 -14 10 -46 32
-72 49 -27 17 -48 33 -48 35 0 5 16 -4 96 -52 l29 -17 -25 22 c-34 30 -118 72
-130 65 -6 -4 -10 -2 -10 4 0 6 -7 7 -17 4 -12 -5 -14 -3 -8 7 5 8 4 11 -1 7
-6 -3 -48 7 -95 23 -202 67 -124 64 -1684 68 l-1410 3 105 -106z"/>
<path d="M865 6650 c3 -5 8 -10 11 -10 2 0 4 5 4 10 0 6 -5 10 -11 10 -5 0 -7
-4 -4 -10z"/>
<path d="M6930 6651 c0 -17 15 -19 35 -5 18 13 18 14 -8 14 -15 0 -27 -4 -27
-9z"/>
<path d="M846 6605 c-9 -26 -7 -32 5 -12 6 10 9 21 6 23 -2 3 -7 -2 -11 -11z"/>
<path d="M6961 6595 c0 -5 6 -21 14 -35 8 -14 14 -20 14 -15 0 6 -6 21 -14 35
-8 14 -14 21 -14 15z"/>
<path d="M6573 6489 c-82 -10 -81 -19 5 -53 43 -18 119 -58 168 -90 l89 -58
37 42 c20 22 36 50 35 60 -1 10 -4 17 -8 15 -3 -3 -15 3 -25 11 -10 9 -13 12
-5 8 9 -5 12 -3 7 5 -4 6 -11 9 -16 6 -5 -3 -26 3 -47 14 -21 11 -34 20 -30
21 4 0 21 -7 37 -15 17 -9 30 -13 30 -11 0 13 -59 34 -80 29 -15 -4 -21 -2
-17 4 5 7 -1 9 -15 5 -11 -3 -19 -1 -16 4 7 10 -74 12 -149 3z"/>
<path d="M740 6481 c0 -5 5 -13 10 -16 6 -3 10 -2 10 4 0 5 -4 13 -10 16 -5 3
-10 2 -10 -4z"/>
<path d="M1111 6479 c-35 -5 -77 -13 -94 -18 -16 -6 -34 -8 -40 -4 -6 4 -7 1
-2 -7 6 -10 4 -12 -9 -7 -11 5 -15 3 -10 -5 5 -8 2 -9 -10 -5 -11 5 -15 3 -10
-5 5 -8 2 -9 -10 -5 -9 4 -15 3 -12 -2 3 -5 -1 -14 -10 -21 -8 -7 -12 -20 -9
-28 4 -12 3 -12 -9 -3 -9 8 -16 9 -21 2 -3 -6 12 -30 34 -53 l40 -43 38 21
c21 12 71 40 111 64 40 24 110 58 154 76 66 26 77 34 57 38 -51 10 -127 12
-188 5z"/>
<path d="M4133 6463 c97 -2 257 -2 355 0 97 1 17 2 -178 2 -195 0 -275 -1
-177 -2z"/>
<path d="M7026 6457 c3 -10 9 -15 12 -12 3 3 0 11 -7 18 -10 9 -11 8 -5 -6z"/>
<path d="M1280 6431 c-113 -42 -172 -74 -321 -176 -167 -114 -207 -135 -258
-135 -34 0 -44 5 -64 33 -13 17 -30 47 -37 65 -13 34 -24 35 -78 8 l-23 -12
36 -53 c19 -30 34 -55 32 -57 -1 -2 -22 25 -45 59 -47 68 -58 66 -14 -4 45
-69 76 -88 114 -68 16 9 18 5 18 -30 0 -22 3 -42 8 -44 6 -5 144 24 288 59 94
24 175 83 253 183 36 47 93 112 126 144 33 31 55 57 50 57 -6 -1 -44 -14 -85
-29z"/>
<path d="M3583 6453 c9 -2 23 -2 30 0 6 3 -1 5 -18 5 -16 0 -22 -2 -12 -5z"/>
<path d="M3883 6453 c9 -2 25 -2 35 0 9 3 1 5 -18 5 -19 0 -27 -2 -17 -5z"/>
<path d="M4743 6453 c9 -2 25 -2 35 0 9 3 1 5 -18 5 -19 0 -27 -2 -17 -5z"/>
<path d="M3675 6430 c28 -10 59 -19 70 -19 11 0 -7 9 -40 19 -76 25 -96 25
-30 0z"/>
<path d="M7056 6442 c-7 -12 19 -35 34 -30 7 2 3 11 -8 21 -11 10 -23 14 -26
9z"/>
<path d="M725 6429 c-4 -6 -5 -12 -2 -15 7 -7 37 7 37 17 0 13 -27 11 -35 -2z"/>
<path d="M2100 6325 l-115 -115 754 0 754 0 113 60 c62 33 120 60 129 60 25 0
246 -116 237 -125 -4 -4 7 -5 23 -1 17 3 185 6 375 7 305 2 352 0 405 -16 33
-10 68 -18 77 -19 9 0 14 -5 11 -10 -4 -5 1 -7 11 -3 9 4 15 3 12 -2 -7 -10
22 -23 34 -16 5 3 12 0 16 -6 5 -8 3 -9 -6 -4 -9 6 -11 4 -6 -4 5 -7 14 -10
21 -7 8 3 19 -3 27 -12 12 -16 11 -16 -7 -2 -15 11 -14 7 4 -13 25 -28 47 -37
36 -14 -4 6 12 -8 34 -33 24 -26 39 -51 36 -60 -4 -8 -3 -11 1 -7 4 4 13 2 21
-4 20 -18 223 88 223 116 0 27 -89 135 -148 181 -72 55 -218 122 -307 142 -70
15 -140 17 -540 17 -417 0 -464 -2 -505 -18 -24 -10 -52 -25 -62 -34 -17 -15
-19 -15 -37 1 -11 10 -47 26 -81 37 -58 18 -99 19 -744 19 l-681 0 -115 -115z"/>
<path d="M6470 6435 c0 -1 8 -9 17 -16 14 -12 16 -12 8 0 -6 10 -4 12 4 7 7
-5 10 -14 7 -22 -3 -7 0 -16 6 -20 7 -5 8 -2 3 6 -6 9 -4 11 4 6 7 -5 10 -15
7 -23 -7 -18 171 -204 193 -201 8 2 16 -4 16 -12 0 -8 8 -14 17 -14 10 1 16
-3 15 -10 -1 -6 6 -10 15 -10 10 1 15 -2 12 -7 -10 -17 99 -57 183 -69 45 -6
104 -17 131 -24 49 -12 51 -12 61 11 6 13 11 30 11 38 0 19 9 19 32 -2 10 -9
20 -14 21 -12 10 12 77 141 77 147 0 4 -20 15 -44 24 l-45 17 -11 -35 c-7 -19
-23 -48 -37 -64 -52 -62 -126 -36 -356 125 -148 104 -249 156 -309 161 -21 1
-38 1 -38 -1z m155 -165 c56 -61 59 -65 16 -25 -29 28 -67 68 -84 90 -35 46
-26 38 68 -65z"/>
<path d="M6888 6325 c-42 -48 -45 -55 -24 -55 18 0 87 80 80 91 -9 15 -18 10
-56 -36z"/>
<path d="M287 6279 c7 -24 10 -24 22 -1 7 14 6 18 -9 19 -13 1 -16 -4 -13 -18z"/>
<path d="M7543 6288 c-4 -7 -21 -76 -39 -153 -35 -159 -34 -158 -122 -110 -39
22 -43 22 -51 6 -12 -21 -41 -173 -41 -212 0 -16 -5 -29 -10 -29 -6 0 -9 12
-7 27 2 14 -8 72 -23 127 -19 74 -30 102 -43 104 -24 5 -22 -13 15 -165 27
-110 34 -130 46 -121 11 10 17 7 30 -9 17 -21 100 -68 108 -60 2 2 7 18 10 35
l7 32 -62 0 c-48 0 -61 3 -61 15 0 12 13 15 60 15 33 0 60 4 60 10 0 6 5 9 11
8 10 -3 19 28 54 180 5 19 12 22 60 22 45 0 55 3 56 18 1 9 3 29 5 44 4 34
-31 181 -44 186 -5 1 -8 12 -5 22 6 22 -2 26 -14 8z m-77 -335 c-10 -10 -19 5
-10 18 6 11 8 11 12 0 2 -7 1 -15 -2 -18z"/>
<path d="M236 6232 c-18 -61 -40 -232 -33 -258 2 -10 6 1 7 26 1 25 4 39 7 33
3 -8 23 -13 52 -13 l47 0 17 -72 c10 -40 17 -78 17 -84 0 -6 8 -29 17 -50 9
-22 16 -43 15 -47 -2 -5 3 -24 9 -42 l12 -34 70 36 c51 25 72 31 77 23 7 -12
70 231 70 270 0 10 -6 20 -14 23 -15 6 -33 -59 -58 -205 -13 -74 -28 -90 -28
-30 0 63 -27 194 -54 262 -23 55 -29 51 -10 -7 5 -14 4 -15 -4 -3 -9 12 -18
11 -59 -9 -46 -21 -49 -25 -45 -54 9 -63 -9 -18 -23 59 -22 116 -46 203 -61
215 -10 8 -16 -1 -28 -39z"/>
<path d="M7346 6263 c-6 -14 -5 -15 5 -6 7 7 10 15 7 18 -3 3 -9 -2 -12 -12z"/>
<path d="M630 6195 c0 -18 8 -18 40 0 l25 14 -32 1 c-23 0 -33 -5 -33 -15z"/>
<path d="M7071 6186 c-30 -31 -20 -46 30 -46 46 0 51 16 16 48 l-23 22 -23
-24z"/>
<path d="M7121 6207 c2 -2 16 -10 30 -20 26 -15 27 -15 32 3 4 17 0 20 -31 20
-19 0 -33 -1 -31 -3z"/>
<path d="M686 6178 c-23 -33 -20 -38 23 -38 48 0 55 8 31 38 -23 28 -35 28
-54 0z"/>
<path d="M3730 5895 c0 -197 4 -305 10 -305 6 0 10 108 10 305 0 197 -4 305
-10 305 -6 0 -10 -108 -10 -305z"/>
<path d="M5360 6061 c35 -70 70 -226 70 -305 0 -119 9 -112 -137 -104 -75 4
-129 12 -133 18 -4 6 -10 -14 -14 -45 -3 -32 -10 -65 -15 -74 -15 -29 -23 -73
-11 -66 5 3 10 1 10 -4 0 -6 50 -36 110 -66 61 -30 110 -60 110 -66 0 -6 -5
-19 -10 -30 -6 -10 -8 -19 -5 -19 8 0 61 111 78 165 23 71 43 215 46 328 1 20
41 23 118 8 26 -5 70 -12 97 -14 l49 -5 -6 77 c-5 72 -51 226 -66 219 -3 -2
-57 -29 -120 -61 -62 -32 -117 -55 -121 -50 -4 4 -14 29 -24 54 -9 25 -23 54
-32 65 -8 10 -5 -1 6 -25z"/>
<path d="M5018 6055 c6 -11 21 -29 34 -40 22 -19 22 -19 -2 10 -40 48 -43 51
-32 30z"/>
<path d="M6813 5983 c-40 -2 -73 -7 -73 -11 0 -4 20 -18 44 -31 25 -12 75 -48
112 -80 110 -93 100 -89 139 -51 42 41 43 57 8 88 -25 22 -25 22 -3 8 14 -9
34 -21 45 -27 48 -27 -12 21 -69 55 -43 26 -66 34 -84 29 -16 -4 -23 -2 -18 5
4 6 -2 8 -16 4 -14 -3 -19 -2 -14 6 4 7 6 11 4 10 -2 -1 -36 -4 -75 -5z m167
-38 c17 -9 30 -18 30 -21 0 -4 -59 23 -69 32 -10 9 13 3 39 -11z"/>
<path d="M945 5969 c-27 -4 -70 -15 -94 -23 -24 -9 -48 -13 -54 -9 -6 4 -7 1
-2 -7 6 -10 4 -12 -8 -7 -10 4 -16 2 -14 -5 1 -6 -4 -13 -12 -16 -9 -3 -11 0
-6 8 6 9 4 11 -4 6 -7 -5 -10 -11 -7 -14 3 -3 -2 -14 -11 -24 -16 -18 -15 -21
22 -58 22 -22 43 -40 48 -40 5 0 37 22 71 49 33 26 94 70 134 96 39 26 72 50
72 51 0 6 -82 2 -135 -7z"/>
<path d="M1066 5915 c-4 -11 -13 -15 -26 -12 -28 7 -147 -80 -269 -195 -147
-139 -212 -158 -309 -93 -28 20 -52 40 -52 46 0 6 5 7 12 3 7 -4 8 -3 4 5 -4
6 -11 9 -16 6 -4 -3 -17 7 -27 21 l-19 26 -47 -23 c-26 -13 -47 -26 -47 -30 0
-17 102 -159 113 -156 7 1 11 -3 10 -10 -2 -7 12 -24 31 -38 33 -25 52 -33 42
-16 -8 12 34 1 61 -17 21 -13 27 -11 70 15 27 17 85 42 131 57 68 23 94 38
142 83 73 67 134 148 124 164 -4 8 -3 9 4 5 14 -8 36 30 26 46 -4 6 -3 8 3 5
6 -4 15 5 22 19 7 15 7 23 1 19 -6 -4 -3 10 7 29 9 20 18 34 21 32 2 -2 -1
-14 -8 -25 -6 -12 -8 -21 -6 -21 13 0 26 42 18 56 -8 15 -10 14 -16 -1z"/>
<path d="M6730 5896 c0 -17 72 -144 101 -177 l30 -34 -33 50 c-18 28 -47 77
-65 110 -18 33 -33 56 -33 51z"/>
<path d="M6771 5891 c-18 -11 -1 -50 63 -146 25 -36 40 -62 34 -59 -6 4 -8 1
-6 -7 3 -8 12 -12 19 -11 8 2 11 0 6 -4 -4 -4 14 -29 40 -56 45 -45 73 -63 57
-35 -4 7 -3 9 2 4 5 -5 9 -14 9 -20 0 -6 21 -24 47 -40 51 -32 228 -99 228
-87 0 14 50 21 71 9 18 -9 29 -2 95 67 41 42 74 82 74 89 0 7 7 16 16 19 8 3
12 10 9 16 -3 5 -1 10 5 10 6 0 8 5 5 10 -3 6 -2 10 4 10 10 0 41 51 41 67 -1
4 -9 -6 -18 -24 l-17 -32 -44 19 c-59 27 -73 25 -98 -14 -12 -19 -42 -48 -67
-65 -90 -62 -164 -35 -342 127 -120 109 -189 162 -209 162 -5 0 -16 -4 -24 -9z
m154 -261 c10 -11 16 -20 13 -20 -3 0 -13 9 -23 20 -10 11 -16 20 -13 20 3 0
13 -9 23 -20z"/>
<path d="M7216 5767 c3 -10 9 -15 12 -12 3 3 0 11 -7 18 -10 9 -11 8 -5 -6z"/>
<path d="M487 5697 c-19 -24 -32 -48 -29 -53 30 -42 128 -58 171 -28 l23 16
-32 33 c-29 30 -72 53 -68 36 3 -10 -22 -51 -32 -51 -5 0 -2 16 6 36 23 56 3
62 -39 11z"/>
<path d="M7256 5723 c-6 -14 -5 -15 5 -6 7 7 10 15 7 18 -3 3 -9 -2 -12 -12z"/>
<path d="M7283 5708 c2 -13 8 -32 12 -43 6 -14 -2 -10 -28 14 l-37 35 -34 -40
c-40 -46 -35 -57 33 -74 45 -10 50 -9 89 16 23 15 42 33 42 39 0 13 -62 75
-74 75 -5 0 -6 -10 -3 -22z"/>
<path d="M98 5644 c-8 -7 22 -74 33 -74 4 0 9 -10 12 -22 6 -21 7 -22 27 -3
l20 18 -35 29 c-19 16 -34 34 -32 40 2 12 -16 21 -25 12z"/>
<path d="M7716 5595 c-41 -88 -78 -177 -73 -181 2 -2 14 21 26 51 18 44 27 55
46 55 21 0 24 5 27 63 2 34 3 63 2 65 -1 1 -13 -22 -28 -53z"/>
<path d="M71 5619 c-1 -15 5 -32 13 -38 8 -7 33 -57 57 -112 23 -54 44 -98 45
-96 5 5 -41 120 -81 202 -26 55 -33 64 -34 44z"/>
<path d="M7682 5607 c-20 -21 -21 -37 -2 -37 8 0 32 51 27 56 -2 2 -13 -7 -25
-19z"/>
<path d="M7637 5574 c-8 -9 11 -44 24 -44 6 0 9 10 7 22 -3 22 -19 34 -31 22z"/>
<path d="M3615 5460 c-59 -61 -106 -112 -103 -115 8 -8 411 -7 431 1 16 6 1
24 -89 115 -60 60 -113 109 -119 109 -6 0 -60 -50 -120 -110z"/>
<path d="M63 5490 c0 -30 2 -43 4 -27 2 15 2 39 0 55 -2 15 -4 2 -4 -28z"/>
<path d="M890 5448 c-25 -4 -51 -6 -58 -3 -8 3 -10 0 -6 -7 5 -7 0 -9 -14 -6
-14 4 -20 2 -15 -5 4 -6 -2 -8 -15 -5 -14 4 -20 2 -15 -5 4 -7 0 -8 -11 -4
-11 5 -15 3 -10 -5 5 -8 1 -9 -12 -4 -10 4 -15 4 -12 0 4 -4 -11 -20 -32 -35
-22 -16 -40 -33 -40 -37 0 -4 18 -25 40 -47 l39 -38 86 84 c48 46 90 84 95 84
4 0 12 4 17 9 5 5 2 6 -7 2 -8 -4 -6 0 4 8 26 21 19 24 -34 14z"/>
<path d="M6877 5446 c4 -6 8 -15 8 -21 1 -5 5 -9 11 -8 6 1 50 -36 99 -83 48
-46 91 -84 95 -84 7 0 56 52 81 84 7 11 9 17 3 14 -5 -4 -23 4 -40 18 l-29 25
30 -18 c16 -10 26 -12 21 -5 -11 18 -85 54 -96 47 -6 -3 -10 -2 -10 2 0 5 -8
9 -17 10 -10 0 -51 8 -90 16 -50 10 -70 11 -66 3z"/>
<path d="M489 5378 l-1 -33 -8 30 c-5 18 -7 -11 -5 -75 3 -72 1 -91 -4 -60
l-8 45 -1 -45 c-3 -70 14 -116 56 -150 l37 -30 -48 0 c-41 0 -47 3 -47 21 0
11 -4 17 -10 14 -5 -3 -10 -3 -11 2 -4 50 -25 120 -45 151 -1 2 -29 -11 -63
-27 -77 -40 -80 -24 -3 20 69 39 55 51 -18 14 -28 -14 -55 -23 -60 -20 -5 3
-19 33 -31 66 -12 33 -24 58 -26 55 -12 -12 126 -306 174 -371 15 -20 15 -20
9 1 -5 17 1 24 33 38 37 17 40 17 60 0 66 -58 58 -56 80 -20 12 18 21 38 21
45 0 6 6 11 13 11 6 1 -1 8 -18 17 -59 31 -91 74 -70 95 8 8 11 238 3 238 -5
0 -9 -15 -9 -32z"/>
<path d="M7313 5300 c1 -63 7 -118 12 -122 15 -11 -5 -38 -53 -73 -45 -33 -53
-46 -22 -38 11 3 36 23 55 44 35 39 35 39 29 112 -4 39 -10 99 -15 132 -6 50
-7 41 -6 -55z"/>
<path d="M7626 5385 c-9 -26 -7 -32 5 -12 6 10 9 21 6 23 -2 3 -7 -2 -11 -11z"/>
<path d="M5364 5314 c-14 -18 -31 -32 -37 -31 -7 1 -11 -4 -9 -12 10 -49 -223
-207 -378 -256 -58 -18 -160 -74 -160 -87 0 -16 205 -111 240 -111 21 -1 86
21 160 52 211 89 327 167 407 274 45 61 103 174 103 199 -1 7 -14 -15 -30 -49
-16 -35 -31 -63 -35 -63 -3 0 -1 9 5 19 14 26 13 34 -3 28 -8 -3 -34 4 -58 15
-37 17 -64 24 -112 27 -5 1 -5 5 -2 11 4 6 -1 7 -11 3 -10 -3 -15 -2 -12 3 4
5 -5 10 -18 10 -17 1 -32 -8 -50 -32z"/>
<path d="M7585 5280 c-10 -23 -22 -43 -26 -46 -5 -3 -31 7 -59 21 -28 14 -56
23 -62 19 -6 -4 16 -21 53 -40 35 -18 58 -33 51 -34 -17 0 -115 50 -124 64 -5
6 -8 7 -8 1 -2 -24 -38 -148 -39 -132 -1 9 -5 17 -11 17 -5 0 -10 -23 -10 -51
l0 -52 -55 7 c-61 7 -68 -1 -36 -43 l19 -24 36 21 c46 27 62 27 105 1 18 -11
34 -19 35 -17 14 18 112 212 131 259 29 68 29 92 0 29z m-205 -185 c0 -8 -4
-15 -10 -15 -5 0 -10 7 -10 15 0 8 5 15 10 15 6 0 10 -7 10 -15z"/>
<path d="M4955 5260 c-16 -11 -36 -18 -43 -15 -7 3 -11 1 -7 -4 6 -11 -58 -36
-130 -51 -54 -12 -352 -29 -507 -30 -59 0 -99 -4 -104 -11 -3 -6 37 -51 95
-106 l101 -94 92 -4 c51 -1 104 -5 118 -8 14 -3 51 -11 82 -18 l57 -13 61 43
c33 23 96 56 140 72 80 29 193 82 218 102 10 8 -3 27 -60 84 -40 40 -75 73
-78 73 -3 0 -18 -9 -35 -20z m-680 -210 c55 -55 97 -100 95 -100 -3 0 -50 45
-105 100 -55 55 -97 100 -95 100 3 0 50 -45 105 -100z"/>
<path d="M7286 5235 c8 -37 14 -45 14 -19 0 10 -5 26 -10 34 -8 11 -9 7 -4
-15z"/>
<path d="M745 5220 c-15 -16 -32 -27 -36 -24 -5 3 -6 -1 -3 -9 5 -13 -10 -31
-31 -39 -5 -1 -10 -10 -10 -18 0 -8 -6 -14 -13 -12 -6 1 -11 -1 -10 -6 4 -9
-61 -90 -119 -151 -38 -38 -47 -43 -75 -37 -51 10 -93 50 -142 135 -41 72 -86
119 -86 92 0 -6 -7 -7 -17 -4 -10 4 -14 2 -10 -4 4 -7 0 -9 -10 -7 -10 3 -26
-1 -37 -9 -15 -11 -17 -17 -7 -35 7 -13 9 -28 5 -34 -5 -7 -3 -8 6 -3 10 6 12
4 7 -8 -3 -9 -1 -19 5 -23 7 -5 8 -2 3 6 -6 9 -4 11 4 6 7 -5 10 -14 8 -21 -7
-17 98 -119 112 -110 7 4 10 1 9 -7 -2 -7 5 -12 14 -12 10 1 15 -2 13 -7 -8
-11 74 -52 91 -45 7 3 16 0 20 -6 4 -7 3 -8 -4 -4 -8 5 -10 2 -6 -8 5 -13 9
-12 27 4 25 24 55 26 64 5 5 -14 8 -13 19 4 8 11 41 34 74 52 110 58 256 215
234 250 -4 8 -3 9 4 5 7 -4 12 -4 13 1 4 43 7 54 12 59 5 5 -84 54 -97 54 -1
0 -15 -13 -31 -30z m-540 -230 c10 -11 16 -20 13 -20 -3 0 -13 9 -23 20 -10
11 -16 20 -13 20 3 0 13 -9 23 -20z m56 -57 c13 -16 12 -17 -3 -4 -10 7 -18
15 -18 17 0 8 8 3 21 -13z"/>
<path d="M6990 5227 c-25 -12 -46 -22 -48 -23 -2 -1 4 -16 13 -33 9 -18 13
-36 10 -42 -4 -5 -1 -8 7 -7 7 2 12 -5 12 -14 -1 -10 2 -15 7 -12 5 3 9 1 9
-3 0 -13 117 -143 123 -136 3 2 10 -5 17 -16 6 -12 15 -19 21 -16 5 4 8 2 7
-3 -2 -6 23 -29 55 -51 51 -36 70 -42 50 -15 -5 5 -1 1 9 -8 9 -10 23 -15 32
-12 8 3 25 -3 36 -14 21 -20 22 -20 41 -1 10 10 27 19 37 19 27 0 115 55 164
103 43 41 108 139 108 162 0 6 -5 3 -10 -5 -8 -13 -10 -13 -10 1 0 11 -20 25
-56 39 -63 26 -57 29 -101 -55 -14 -27 -36 -65 -49 -85 -26 -39 -89 -80 -122
-80 -25 0 -74 39 -66 52 4 6 2 8 -4 5 -5 -4 -24 13 -40 38 -17 25 -42 55 -57
67 -14 11 -24 26 -21 33 3 8 -2 19 -10 25 -8 7 -14 9 -14 5 0 -4 -7 -2 -15 5
-18 15 -20 34 -2 24 8 -5 7 -2 -2 9 -8 10 -16 15 -19 12 -3 -3 -19 8 -36 24
l-31 29 -45 -21z"/>
<path d="M6930 5180 c11 -22 23 -40 25 -40 3 0 -4 18 -15 40 -11 22 -23 40
-25 40 -3 0 4 -18 15 -40z"/>
<path d="M7261 5138 c-18 -21 -29 -38 -25 -38 19 0 74 41 74 54 0 28 -15 23
-49 -16z"/>
<path d="M504 5155 c-8 -19 7 -34 59 -61 38 -21 34 -5 -13 41 -35 34 -40 36
-46 20z"/>
<path d="M452 5135 c0 -16 2 -22 5 -12 2 9 2 23 0 30 -3 6 -5 -1 -5 -18z"/>
<path d="M2018 5146 c3 -5 -3 -6 -14 -2 -10 4 28 -41 86 -99 57 -58 109 -105
115 -105 5 0 -35 46 -90 103 l-100 102 100 -97 100 -98 455 0 454 -1 101 102
c55 56 94 98 88 95 -7 -4 -13 -4 -13 1 0 4 -290 8 -644 8 -389 0 -642 -4 -638
-9z m1282 -9 c0 -1 -44 -45 -97 -97 l-98 -95 95 98 c88 90 100 102 100 94z"/>
<path d="M7341 4996 c-14 -15 -21 -32 -18 -40 8 -20 47 -21 73 -2 19 15 18 15
-7 41 l-25 26 -23 -25z"/>
<path d="M427 4992 c-22 -24 -21 -38 1 -48 21 -9 42 -6 60 8 10 9 8 16 -9 35
-27 28 -31 28 -52 5z"/>
<path d="M7765 4950 c3 -5 2 -10 -2 -10 -5 0 -35 -16 -68 -35 -32 -20 -60 -33
-62 -31 -3 2 24 20 59 40 35 20 58 36 53 36 -19 0 -120 -65 -120 -77 0 -7 -6
-18 -12 -24 -19 -19 -16 -33 16 -63 l29 -28 49 69 c86 123 112 152 43 48 -35
-52 -42 -65 -37 -65 2 0 25 32 51 71 26 39 43 68 37 65 -5 -4 -12 -2 -16 4 -3
5 -11 10 -16 10 -6 0 -7 -4 -4 -10z"/>
<path d="M27 4938 c-16 -12 -15 -15 9 -43 l25 -30 -17 30 -17 30 26 -30 c28
-32 35 -51 15 -39 -8 4 -10 3 -5 -2 5 -5 14 -9 19 -9 6 0 13 -6 16 -14 3 -9 0
-11 -9 -6 -8 5 -11 4 -6 -1 5 -5 14 -9 19 -9 6 0 13 -6 16 -14 3 -9 0 -11 -9
-6 -8 5 -11 4 -6 -1 5 -5 14 -9 20 -9 5 0 12 -6 15 -14 3 -9 0 -11 -8 -6 -9 6
-9 3 -1 -14 13 -24 23 -28 15 -6 -4 9 0 15 8 15 15 0 58 52 58 69 0 6 -18 23
-40 37 -22 15 -40 29 -40 31 0 6 19 -5 58 -34 18 -14 35 -23 38 -20 7 6 -93
71 -140 91 -46 19 -39 19 -59 4z m88 -28 c3 -6 -1 -7 -9 -4 -18 7 -21 14 -7
14 6 0 13 -4 16 -10z"/>
<path d="M4375 4931 c-21 -9 -225 -213 -225 -225 0 -4 72 -6 159 -6 88 1 165
-2 172 -6 17 -10 790 -1573 784 -1584 -3 -5 5 -16 17 -24 19 -14 72 -16 383
-16 198 0 369 3 380 6 18 4 4 22 -93 117 l-113 112 -157 6 c-106 5 -171 12
-201 23 -53 20 -82 21 -75 3 3 -8 -10 -20 -31 -30 -52 -25 -56 -21 -10 8 22
13 34 25 26 25 -11 0 -10 3 3 13 17 12 17 14 2 20 -9 4 -16 1 -16 -6 0 -9 -2
-9 -8 0 -5 8 -13 9 -22 3 -8 -6 -19 -10 -25 -10 -5 0 5 9 22 20 21 12 31 25
27 34 -6 15 -44 18 -44 3 0 -4 -4 -6 -9 -3 -5 4 -12 0 -14 -6 -4 -10 -6 -10
-6 -1 -1 7 -8 10 -18 7 -10 -4 -3 3 15 15 18 12 30 26 27 31 -3 6 1 7 10 4 11
-5 14 -2 9 10 -4 11 -12 15 -23 10 -9 -3 -22 -7 -28 -7 -7 0 -13 -4 -13 -9 0
-5 -4 -7 -9 -4 -5 4 -11 1 -13 -6 -3 -8 -6 -7 -10 4 -5 11 4 21 33 33 41 19
44 22 31 42 -6 9 -18 7 -50 -7 -45 -20 -54 -15 -22 13 11 9 20 14 20 11 0 -3
7 2 16 11 22 22 4 40 -30 31 -14 -3 -29 -6 -32 -5 -4 0 -11 -5 -15 -13 -7 -10
-9 -10 -9 0 0 7 16 20 35 29 32 15 45 40 29 56 -4 3 -19 0 -35 -8 -34 -18 -39
-18 -39 -3 0 6 2 9 5 6 3 -3 17 4 29 15 32 28 23 48 -16 40 -24 -5 -30 -3 -26
8 3 8 12 13 21 13 10 -1 14 5 11 19 -5 29 -9 30 -43 13 -16 -9 -34 -16 -38
-16 -4 1 9 10 30 21 34 18 36 22 26 42 -7 12 -13 23 -14 25 -2 2 -21 -6 -44
-17 -58 -30 -64 -25 -9 7 46 27 49 37 23 70 -2 2 -26 -8 -54 -22 -71 -36 -77
-32 -9 7 56 32 60 41 33 75 -2 2 -26 -8 -54 -22 -28 -15 -51 -24 -51 -21 0 2
23 16 51 30 50 26 61 51 21 49 -12 0 -19 3 -16 8 7 11 -3 10 -29 -2 -20 -9
-20 -9 -4 2 52 36 50 34 38 56 -6 12 -17 22 -24 22 -8 0 -8 -3 1 -9 11 -7 10
-9 -3 -14 -11 -5 -14 -3 -9 5 5 8 1 9 -12 5 -14 -5 -12 -2 6 12 18 14 22 23
14 31 -7 7 -32 1 -85 -21 -41 -17 -85 -35 -99 -40 -24 -9 -24 -9 -5 7 11 8 52
32 90 51 84 42 77 37 69 56 -3 9 -13 14 -22 10 -13 -4 -14 -2 -4 4 10 8 11 15
1 36 -10 22 -15 24 -31 16 -11 -6 -22 -8 -26 -5 -3 3 -1 6 4 6 5 0 15 4 22 9
19 12 -5 61 -27 54 -12 -4 -13 -3 -3 4 19 14 -4 63 -27 56 -12 -4 -13 -3 -2 5
10 8 11 14 1 32 -7 13 -15 18 -19 13 -3 -6 -15 -7 -26 -3 -19 7 -19 7 3 14 23
8 26 14 14 32 -8 12 -42 15 -42 3 0 -8 -26 -6 -35 3 -4 3 3 9 15 13 14 4 19
12 15 22 -5 14 -3 14 11 2 15 -12 17 -12 12 1 -3 10 -15 14 -34 13 -48 -4 -54
-6 -54 -15 0 -5 -4 -6 -10 -3 -5 3 -10 1 -10 -6 0 -7 -3 -9 -7 -6 -7 8 20 36
52 55 14 8 16 11 5 12 -8 0 -21 10 -29 21 -13 22 -8 31 23 42 12 4 -1 27 -15
27 -6 0 -8 -3 -6 -7 8 -13 -53 -9 -61 3 -4 6 -13 13 -21 16 -9 2 -3 9 17 17
33 14 40 25 22 36 -5 3 -10 2 -10 -4 0 -6 -7 -7 -17 -4 -9 4 -14 2 -11 -3 4
-5 -7 -10 -23 -11 -46 -3 -59 -6 -59 -13 0 -3 -9 -6 -20 -7 -11 -1 -20 3 -20
8 0 6 5 7 10 4 6 -3 10 -1 10 4 0 6 -7 11 -15 11 -27 0 13 34 88 75 76 42 82
57 42 109 -19 25 -40 37 -83 49 -71 19 -200 29 -227 18z"/>
<path d="M857 4916 c4 -5 -3 -7 -15 -4 -12 4 -20 2 -17 -2 7 -12 -32 -23 -46
-14 -8 5 -9 3 -4 -6 6 -9 4 -12 -7 -8 -16 7 -43 -6 -43 -20 0 -5 -13 -20 -29
-34 l-29 -25 35 -38 c25 -27 39 -36 49 -29 8 5 17 9 21 9 3 0 10 4 15 9 5 5 3
6 -4 2 -19 -11 -16 9 4 25 15 12 16 12 8 -1 -8 -13 -7 -13 8 -1 18 15 23 26 7
16 -17 -10 -11 12 7 26 14 12 16 12 8 0 -5 -9 -4 -12 3 -7 6 4 9 12 6 19 -2 7
6 22 18 33 l23 19 -20 -25 -20 -25 22 18 c12 11 19 25 17 32 -3 7 0 16 7 21 8
5 10 3 4 -7 -8 -12 -6 -12 8 0 10 8 15 16 12 19 -9 10 -54 8 -48 -2z m-102
-46 c-3 -5 -12 -10 -18 -10 -7 0 -6 4 3 10 19 12 23 12 15 0z"/>
<path d="M2102 4818 c-61 -61 -111 -113 -109 -114 6 -6 1318 -6 1324 0 4 4
-42 56 -102 116 l-110 110 -445 0 -445 0 -113 -112z"/>
<path d="M6915 4911 c1 -9 8 -16 16 -16 8 0 14 -8 14 -17 0 -10 7 -23 15 -30
12 -11 12 -10 0 7 -14 19 -14 19 3 6 10 -8 16 -20 13 -27 -3 -7 3 -18 12 -26
16 -12 16 -11 2 7 -14 19 -14 19 3 6 9 -7 16 -20 15 -27 -2 -7 2 -13 7 -14 6
-1 18 -9 28 -17 16 -15 19 -15 38 3 37 33 43 53 22 76 l-18 21 30 -19 c28 -17
29 -17 16 -1 -14 18 -102 67 -118 67 -4 -1 9 -10 30 -21 52 -27 46 -33 -8 -7
-24 12 -41 26 -38 31 3 5 -4 6 -17 2 -13 -4 -20 -3 -17 2 4 5 -7 10 -22 10
-21 0 -28 -5 -26 -16z"/>
<path d="M4702 4901 c-24 -6 -24 -6 -4 -24 19 -17 20 -17 24 8 3 14 5 25 4 24
0 -1 -12 -4 -24 -8z"/>
<path d="M4730 4803 c0 -4 7 -28 16 -53 19 -54 627 -1290 632 -1285 2 1 -134
280 -302 620 l-305 616 111 55 111 54 -132 0 c-72 0 -131 -3 -131 -7z"/>
<path d="M479 4775 c-4 -5 -4 -56 -1 -113 4 -85 7 -100 17 -85 7 10 15 34 19
53 4 24 3 29 -3 15 -7 -17 -9 -15 -15 15 -3 19 -7 55 -8 80 -2 25 -6 41 -9 35z"/>
<path d="M7328 4764 c-5 -4 -8 -19 -9 -33 0 -24 -1 -24 -9 -6 -7 17 -9 16 -9
-10 -1 -16 -4 -41 -7 -55 -4 -20 -3 -22 5 -10 9 12 11 10 11 -13 0 -16 -4 -26
-10 -22 -5 3 -10 0 -10 -8 0 -8 7 -17 15 -21 8 -3 15 -13 15 -23 -1 -17 -1
-17 -11 0 -10 18 -12 18 -31 0 -11 -10 -24 -26 -30 -36 -8 -16 -7 -18 12 -12
17 6 21 4 14 -6 -7 -12 -5 -12 9 -1 9 8 15 19 14 25 -1 6 5 11 13 12 11 0 17
19 23 75 8 84 6 156 -5 144z"/>
<path d="M7670 4750 c-6 -11 -8 -20 -6 -20 3 0 10 9 16 20 6 11 8 20 6 20 -3
0 -10 -9 -16 -20z"/>
<path d="M4726 4697 c3 -10 9 -15 12 -12 3 3 0 11 -7 18 -10 9 -11 8 -5 -6z"/>
<path d="M7630 4680 c-6 -11 -8 -20 -6 -20 3 0 10 9 16 20 6 11 8 20 6 20 -3
0 -10 -9 -16 -20z"/>
<path d="M675 4594 c-21 -33 -34 -63 -30 -73 3 -11 -3 -25 -15 -36 -11 -10
-20 -23 -20 -30 0 -24 -58 -92 -92 -108 -71 -34 -142 12 -250 160 -33 46 -62
83 -65 83 -2 0 -27 -10 -54 -21 -58 -25 -60 -37 -19 -103 17 -26 28 -51 26
-55 -3 -4 9 -21 27 -37 l32 -29 -25 30 c-14 17 -6 12 17 -11 41 -41 283 -171
283 -152 0 5 5 6 11 3 6 -4 13 3 16 14 4 17 10 20 27 15 11 -3 23 -7 26 -8 9
-2 100 75 161 136 38 38 70 84 99 143 23 47 40 88 38 91 -3 3 -13 -13 -22 -36
-16 -41 -28 -54 -19 -22 3 13 -5 21 -31 30 -20 7 -37 12 -38 11 -2 -1 -13 3
-25 9 -19 11 -24 8 -48 -34 -15 -25 -29 -43 -32 -41 -3 3 11 33 31 66 44 76
39 80 -9 5z"/>
<path d="M7594 4618 c-9 -18 -24 -44 -32 -58 -14 -24 -13 -24 3 -5 19 23 58
95 50 95 -2 0 -12 -15 -21 -32z"/>
<path d="M7136 4573 c20 -38 46 -77 58 -88 12 -11 28 -35 35 -53 13 -32 36
-58 25 -28 -4 10 7 21 34 35 58 30 57 36 -5 33 -35 -3 -53 0 -49 6 3 6 -2 8
-12 5 -24 -6 -46 21 -39 47 3 11 1 18 -3 15 -5 -3 -23 17 -41 45 -18 27 -34
50 -36 50 -2 0 13 -30 33 -67z"/>
<path d="M7749 4576 l-14 -35 -55 24 c-30 13 -59 24 -65 24 -5 1 -20 -15 -33
-35 -12 -19 -27 -32 -32 -29 -4 3 -18 -9 -30 -27 l-22 -33 26 30 c14 17 26 25
26 20 0 -6 -19 -31 -42 -56 -24 -25 -34 -34 -23 -20 l20 26 -27 -24 c-15 -13
-25 -27 -23 -31 11 -18 -82 -70 -126 -70 -32 0 -77 37 -115 94 -19 28 -51 75
-70 104 -30 45 -39 53 -57 47 -12 -3 -31 -7 -42 -9 -41 -7 -52 -17 -51 -46 1
-15 5 -25 10 -22 5 3 7 -2 3 -10 -5 -14 36 -88 50 -88 3 0 -1 8 -8 18 -13 15
-12 16 3 4 9 -8 15 -19 12 -25 -7 -18 91 -111 107 -102 7 5 10 4 6 -2 -8 -13
18 -37 31 -29 5 3 17 -3 27 -14 10 -11 22 -17 27 -14 5 3 22 -8 37 -25 23 -26
30 -29 40 -17 6 7 39 21 74 31 34 9 79 26 99 36 51 26 150 120 186 177 31 48
76 151 69 159 -2 2 -10 -12 -18 -31z m-719 -106 c6 -11 8 -20 6 -20 -3 0 -10
9 -16 20 -6 11 -8 20 -6 20 3 0 10 -9 16 -20z m80 -105 c13 -14 21 -25 18 -25
-2 0 -15 11 -28 25 -13 14 -21 25 -18 25 2 0 15 -11 28 -25z"/>
<path d="M250 4555 c29 -48 109 -155 117 -155 3 0 -1 8 -8 19 -8 10 -36 50
-63 87 -61 85 -77 102 -46 49z"/>
<path d="M501 4562 c-8 -15 -7 -23 7 -35 22 -19 83 -50 88 -44 2 2 -14 12 -36
22 -22 10 -45 24 -51 31 -8 9 -1 9 21 -2 42 -21 46 -14 11 20 -28 27 -30 27
-40 8z"/>
<path d="M80 4524 c0 -13 57 -104 66 -104 4 0 2 6 -4 13 -6 6 -22 32 -36 57
-14 25 -26 40 -26 34z"/>
<path d="M458 4513 c-8 -29 13 -56 66 -86 l44 -24 10 22 c14 30 8 35 -49 35
-45 0 -49 2 -55 28 -3 15 -7 31 -8 37 -1 5 -5 0 -8 -12z"/>
<path d="M3516 4513 c-4 -4 43 -57 104 -118 l110 -111 -2 -364 -3 -365 -105
-5 -105 -5 103 -53 c57 -29 102 -58 102 -66 0 -8 -5 -27 -11 -43 -6 -16 -6
-24 -1 -18 30 31 35 98 39 510 l4 420 105 105 c58 59 102 109 98 113 -9 9
-429 9 -438 0z m219 -203 c5 0 57 46 115 103 l105 102 -105 -107 c-57 -60
-109 -108 -115 -108 -6 0 -58 48 -115 108 l-105 107 105 -102 c58 -57 110
-103 115 -103z"/>
<path d="M7311 4423 c-34 -41 -29 -59 19 -64 25 -2 80 19 80 31 0 3 -15 21
-34 39 l-33 32 -32 -38z"/>
<path d="M430 4415 l-33 -34 43 -20 c39 -18 45 -18 67 -4 30 20 29 23 -10 61
l-33 32 -34 -35z"/>
<path d="M888 4394 c-38 -20 -36 -29 2 -9 47 24 49 17 1 -10 -48 -28 -55 -30
-45 -13 5 7 3 8 -5 4 -7 -5 -10 -11 -7 -14 4 -3 -4 -16 -16 -29 l-21 -23 23
-25 c13 -14 27 -25 31 -25 7 0 78 122 82 142 3 17 -16 18 -45 2z"/>
<path d="M942 4378 c-29 -47 -112 -214 -111 -224 0 -5 12 16 28 46 15 30 46
90 70 133 42 77 51 106 13 45z"/>
<path d="M6850 4375 c0 -49 11 -74 33 -77 13 -2 31 -19 44 -43 20 -36 131
-307 147 -362 9 -29 10 -29 75 7 30 17 57 26 60 21 4 -5 19 -3 36 5 17 8 22
12 13 9 -23 -6 -23 6 4 138 19 94 20 109 8 117 -19 12 -35 -31 -51 -143 -14
-96 -29 -122 -29 -51 0 57 -28 153 -40 134 -4 -6 -10 -11 -14 -10 -4 1 -32 -8
-62 -20 -30 -13 -56 -21 -58 -19 -2 2 -22 48 -45 103 -23 54 -60 126 -81 160
-37 57 -40 59 -40 31z m290 -270 c0 -6 -97 -55 -107 -55 -4 1 17 14 47 30 61
32 60 32 60 25z"/>
<path d="M6897 4355 c13 -22 29 -50 35 -62 14 -29 19 -29 49 3 l24 26 -35 30
-35 31 39 -23 c22 -13 36 -18 32 -12 -12 20 -64 42 -82 35 -10 -3 -15 -2 -12
3 4 5 -4 9 -17 9 l-23 0 25 -40z"/>
<path d="M70 4269 c0 -8 13 -28 30 -44 16 -15 27 -31 25 -35 -2 -4 10 -20 28
-36 l32 -29 -25 30 c-14 17 14 -10 62 -60 l86 -90 41 39 c22 22 38 43 35 47
-2 4 3 12 12 17 11 6 13 11 5 16 -6 4 -11 2 -11 -5 0 -14 -8 -9 -10 6 -2 15
-32 45 -44 45 -6 0 0 -9 14 -20 14 -11 20 -20 14 -20 -14 0 -46 35 -38 43 9 8
-75 49 -86 42 -6 -3 -10 -2 -10 3 0 6 -6 9 -12 9 -22 -2 -133 35 -140 47 -5 7
-8 6 -8 -5z m240 -95 c0 -2 -9 0 -20 6 -11 6 -20 13 -20 16 0 2 9 0 20 -6 11
-6 20 -13 20 -16z"/>
<path d="M7696 4258 c5 -7 -2 -9 -19 -6 -16 3 -24 1 -20 -5 4 -6 -2 -8 -15 -5
-12 4 -20 3 -17 -1 2 -5 -7 -13 -21 -20 -35 -16 -44 -13 -14 4 42 24 12 16
-41 -11 -28 -14 -48 -28 -45 -31 3 -4 -4 -17 -16 -30 l-22 -24 34 -34 c36 -35
77 -50 72 -27 -1 7 35 50 80 95 46 46 54 52 18 15 -35 -37 -62 -68 -59 -68 2
0 38 35 79 77 41 43 71 75 67 71 -5 -3 -22 -2 -38 2 -20 6 -27 5 -23 -2z
m-150 -63 c-11 -8 -25 -15 -30 -15 -6 1 0 7 14 15 32 19 40 18 16 0z"/>
<path d="M530 4197 c0 -13 11 -80 25 -147 24 -119 25 -150 4 -120 -9 13 -10
12 -6 -2 3 -9 -3 -24 -15 -35 -39 -35 -61 -74 -49 -86 22 -22 125 -28 163 -10
39 19 39 34 0 75 -29 30 -39 35 -54 27 -10 -5 -23 -7 -30 -3 -6 4 1 12 18 19
23 10 32 10 44 0 17 -13 89 -55 95 -55 2 0 7 17 10 38 4 20 19 64 35 97 43 91
61 138 55 143 -3 3 -5 1 -5 -4 0 -5 -9 -24 -20 -41 l-20 -33 -55 27 c-48 24
-57 25 -65 13 -9 -13 -10 -13 -10 0 -2 28 -18 -26 -25 -83 -9 -69 -20 -74 -23
-9 -1 26 -10 83 -20 127 -13 59 -21 81 -35 83 -12 3 -17 -3 -17 -21z"/>
<path d="M7736 4115 c-10 -38 -68 -166 -73 -161 -3 2 0 13 6 24 9 17 4 22 -39
42 -49 23 -50 23 -71 4 -12 -10 -23 -17 -24 -14 -2 3 -7 1 -12 -4 -5 -5 -3 -6
5 -2 6 4 12 3 12 -2 0 -10 -29 -37 -39 -37 -3 0 -5 -3 -3 -8 4 -13 -125 -135
-167 -157 -22 -11 -67 -23 -98 -26 -54 -6 -61 -4 -100 25 -28 20 -53 52 -73
91 -17 33 -32 60 -34 60 -21 0 -101 -49 -102 -62 -1 -10 3 -15 9 -11 6 4 8 0
4 -11 -5 -11 -3 -15 5 -10 8 5 9 2 5 -10 -4 -10 -3 -15 3 -11 5 3 14 -5 21
-17 12 -22 11 -22 -6 -8 -35 29 2 -25 60 -89 46 -49 60 -59 86 -57 26 2 31 -2
36 -26 3 -15 10 -25 15 -22 6 4 8 -3 3 -17 l-6 -24 18 21 c23 27 60 41 157 59
107 21 140 38 221 120 52 52 83 94 117 160 46 91 84 192 75 201 -2 3 -8 -7
-11 -21z m-717 -369 c-2 -2 -13 8 -23 22 l-19 27 24 -22 c12 -12 21 -24 18
-27z m47 -48 l29 -33 -32 29 c-31 28 -38 36 -30 36 2 0 16 -15 33 -32z"/>
<path d="M235 4060 c10 -11 20 -20 23 -20 3 0 -3 9 -13 20 -10 11 -20 20 -23
20 -3 0 3 -9 13 -20z"/>
<path d="M7630 4045 c48 -26 60 -29 60 -17 0 8 -79 42 -95 42 -6 -1 10 -12 35
-25z"/>
<path d="M90 4055 c0 -5 5 -17 10 -25 5 -8 10 -10 10 -5 0 6 -5 17 -10 25 -5
8 -10 11 -10 5z"/>
<path d="M183 4027 c-24 -12 -43 -25 -43 -29 0 -15 42 -92 78 -143 19 -27 26
-42 15 -33 -10 10 -39 51 -63 92 -25 41 -46 73 -48 71 -11 -11 89 -157 147
-216 80 -80 128 -106 235 -126 89 -17 130 -34 145 -60 11 -20 13 -16 16 40 3
47 8 52 35 35 19 -12 23 -10 41 12 11 14 37 45 57 70 20 25 36 49 34 53 -1 5
2 6 7 2 13 -8 57 59 82 125 27 71 19 74 -10 4 -13 -30 -25 -53 -28 -50 -3 2 0
13 5 23 9 16 3 20 -49 37 -33 10 -61 17 -62 15 -2 -2 -12 -26 -23 -54 -11 -27
-26 -49 -32 -47 -7 1 -11 -1 -11 -5 3 -21 -4 -31 -40 -51 -69 -39 -166 -24
-232 35 -21 19 -37 38 -34 43 2 4 -9 20 -25 35 -17 16 -30 25 -30 20 0 -4 -9
0 -20 10 -12 10 -19 24 -16 31 3 7 -2 18 -10 24 -8 7 -14 9 -14 4 0 -4 -15 6
-32 23 l-33 31 -42 -21z m197 -132 c13 -14 21 -25 18 -25 -2 0 -15 11 -28 25
-13 14 -21 25 -18 25 2 0 15 -11 28 -25z"/>
<path d="M537 3969 c4 -13 8 -18 11 -10 2 7 -1 18 -6 23 -8 8 -9 4 -5 -13z"/>
<path d="M7238 3903 c-13 -12 -20 -13 -30 -5 -10 8 -21 1 -47 -30 -30 -36 -32
-41 -18 -55 24 -25 92 -32 140 -16 63 21 64 27 22 75 -47 52 -47 52 -67 31z"/>
<path d="M4861 3905 c0 -5 13 -35 29 -65 16 -30 29 -50 29 -45 0 6 -13 35 -29
65 -16 30 -29 51 -29 45z"/>
<path d="M1078 3865 c-25 -64 -78 -237 -78 -257 0 -31 -25 -31 -88 1 l-61 31
-11 -53 c-19 -84 -15 -91 54 -95 38 -2 64 -8 70 -18 9 -12 15 4 30 71 l19 85
60 0 60 0 -6 88 c-4 48 -13 109 -20 137 l-13 49 -16 -39z"/>
<path d="M6751 3848 c25 -64 25 -64 44 -48 23 19 18 36 -17 65 -18 15 -27 24
-19 19 9 -5 12 -3 7 4 -4 7 -14 12 -21 12 -12 0 -11 -10 6 -52z"/>
<path d="M1037 3862 c-21 -23 -22 -42 -3 -42 8 0 17 12 20 26 9 34 3 39 -17
16z"/>
<path d="M6717 3873 c-11 -18 -40 -212 -34 -227 5 -12 20 -16 60 -16 l53 0 18
-77 c20 -83 35 -123 36 -90 0 14 10 17 65 17 l65 0 0 68 c-1 37 -7 81 -15 97
-7 17 -14 24 -14 17 -1 -7 -27 -25 -58 -40 -32 -15 -60 -31 -62 -36 -2 -5 -18
37 -36 95 -17 57 -40 122 -50 144 -10 22 -17 43 -17 48 1 4 0 7 -2 7 -3 0 -7
-3 -9 -7z"/>
<path d="M685 3600 c4 -17 22 -69 41 -116 20 -48 33 -93 30 -101 -4 -8 -1 -11
5 -7 6 4 8 19 5 37 -3 17 -1 36 5 44 9 11 9 12 -3 8 -9 -4 -18 1 -22 10 -8 23
4 41 16 24 8 -11 9 -11 5 1 -2 8 -11 14 -21 12 -15 -3 -20 8 -17 36 1 6 -3 12
-9 12 -5 0 -10 9 -10 19 0 27 -10 51 -22 51 -5 0 -7 -13 -3 -30z"/>
<path d="M710 3628 c0 -11 39 -98 45 -98 3 0 -1 16 -9 35 -17 41 -35 73 -36
63z"/>
<path d="M7106 3606 c3 -14 -1 -34 -10 -48 -8 -13 -17 -33 -19 -43 -2 -11 -6
-27 -9 -35 -30 -89 -31 -93 -14 -105 14 -11 14 -14 2 -24 -18 -15 -6 -54 26
-88 26 -28 36 -28 67 -4 l24 18 -39 47 c-21 25 -43 46 -49 46 -37 1 -36 17 8
131 25 63 43 117 40 122 -2 4 -11 7 -19 7 -10 0 -13 -7 -8 -24z"/>
<path d="M223 3595 c0 -8 4 -12 9 -9 4 3 11 -2 14 -10 3 -9 9 -14 13 -12 6 4
94 -60 255 -188 l87 -69 45 44 c24 24 44 49 44 55 0 7 -24 29 -52 50 -29 20
-59 44 -66 53 -7 9 -16 15 -20 14 -13 -5 -42 8 -42 18 0 6 -4 7 -10 4 -5 -3
-10 -2 -10 4 0 6 -7 7 -17 4 -11 -5 -14 -3 -8 6 6 10 2 11 -15 6 -14 -4 -20
-3 -17 2 4 6 -4 8 -20 5 -14 -3 -24 -1 -21 4 3 5 -28 10 -70 12 -42 2 -82 8
-88 13 -7 5 -11 4 -11 -6z"/>
<path d="M7505 3588 c-33 -5 -74 -11 -92 -11 -17 -1 -29 -6 -26 -11 4 -5 -7
-6 -23 -2 -23 5 -26 4 -14 -5 12 -9 11 -10 -8 -6 -12 3 -20 1 -16 -4 3 -5 1
-9 -3 -9 -5 0 -35 -16 -68 -35 -32 -20 -60 -33 -62 -31 -3 2 24 20 59 40 35
20 58 36 53 36 -19 0 -120 -65 -120 -77 0 -7 -6 -18 -12 -25 -7 -6 -13 -17
-13 -22 1 -16 68 -86 83 -86 6 0 68 45 137 99 69 55 127 98 130 97 3 -1 21 13
40 31 19 18 30 32 25 32 -6 -1 -37 -6 -70 -11z"/>
<path d="M7591 3548 c-11 -33 -15 -36 -44 -32 -28 3 -47 -8 -143 -84 -62 -48
-132 -104 -156 -124 -69 -59 -204 -128 -259 -135 -62 -7 -90 10 -125 80 -15
28 -28 53 -29 55 -2 2 -16 -3 -32 -11 -15 -8 -34 -12 -40 -10 -19 7 -16 -7 17
-66 17 -30 29 -56 27 -58 -2 -1 -14 15 -26 37 -12 22 -25 40 -28 40 -3 0 6
-19 20 -42 14 -24 30 -43 36 -43 6 0 18 -10 26 -22 15 -22 17 -22 41 -7 l25
17 -7 -44 c-3 -24 -19 -66 -34 -94 -15 -27 -38 -68 -50 -90 l-22 -40 25 27
c14 15 27 25 30 22 2 -3 22 24 44 59 l40 64 74 7 c185 17 349 99 456 228 49
59 158 268 151 289 -3 8 -10 -3 -17 -23z"/>
<path d="M5535 3460 c-49 -49 -87 -91 -84 -94 19 -19 132 -39 244 -43 l130 -5
70 71 c38 39 74 71 79 71 6 0 -21 -33 -59 -72 -39 -40 -22 -26 38 32 59 57
107 106 107 107 0 1 -93 2 -207 3 -114 0 -212 5 -218 10 -8 6 -40 -20 -100
-80z m505 57 c0 -2 -15 -16 -32 -33 l-33 -29 29 33 c28 30 36 37 36 29z"/>
<path d="M255 3520 c-3 -5 6 -32 20 -60 14 -28 23 -55 20 -61 -4 -5 -1 -8 7
-7 7 2 12 -5 12 -14 -1 -10 2 -15 7 -12 8 5 13 -10 10 -29 -1 -5 3 -6 9 -2 5
3 11 1 11 -4 1 -6 2 -15 3 -20 0 -5 5 -13 10 -18 5 -5 6 -2 1 7 -6 11 -5 12 4
4 7 -6 13 -19 15 -28 3 -22 91 -111 139 -143 22 -13 45 -22 53 -19 8 3 13 2 9
-3 -3 -5 14 -12 37 -16 24 -4 60 -16 80 -26 27 -14 59 -19 111 -19 69 0 76 -2
91 -25 9 -14 21 -23 26 -20 9 6 76 -104 72 -118 -1 -5 2 -6 8 -2 7 4 4 18 -10
39 -22 37 -25 51 -9 40 8 -4 8 0 0 15 -13 24 -23 28 -15 6 12 -30 -6 -14 -31
28 -24 41 -35 117 -17 117 4 0 17 -7 29 -15 21 -15 24 -14 54 27 32 44 92 163
103 208 4 14 -6 -2 -22 -35 -16 -33 -30 -55 -33 -50 -2 6 -22 18 -44 26 l-40
15 -16 -40 c-8 -23 -21 -40 -27 -39 -6 2 -9 -3 -6 -11 8 -21 -36 -46 -81 -46
-22 0 -60 9 -84 20 -39 18 -42 22 -30 38 13 15 12 16 -3 3 -27 -20 -83 12
-233 135 -158 129 -199 156 -221 147 -12 -4 -15 -3 -10 5 4 7 5 12 2 12 -3 0
-7 -4 -11 -10z m225 -337 c0 -8 -9 0 -50 45 l-45 47 48 -45 c26 -24 47 -45 47
-47z m450 -167 c0 -6 -7 -1 -15 10 -8 10 -15 23 -15 28 0 6 7 1 15 -10 8 -10
15 -23 15 -28z"/>
<path d="M2090 3425 c58 -58 107 -105 109 -105 2 0 -4 9 -14 20 -10 11 -14 20
-8 20 5 0 18 -9 28 -20 18 -20 27 -21 684 -19 629 1 670 3 730 21 l64 20 -84
84 -84 84 -764 0 -765 0 104 -105z m5 15 c44 -44 77 -80 75 -80 -3 0 -41 36
-85 80 -44 44 -77 80 -75 80 3 0 41 -36 85 -80z"/>
<path d="M724 3393 c4 -8 -11 -32 -39 -62 l-46 -49 27 -21 c38 -30 50 -27 80
25 l27 45 -24 25 c-13 14 -22 28 -21 31 2 2 0 8 -4 11 -4 4 -4 1 0 -5z"/>
<path d="M821 3384 c0 -11 3 -14 6 -6 3 7 2 16 -1 19 -3 4 -6 -2 -5 -13z"/>
<path d="M7107 3394 c-2 -3 16 -25 41 -49 58 -59 64 -54 7 6 -24 26 -46 45
-48 43z"/>
<path d="M832 3319 c6 -16 12 -29 13 -27 6 6 -8 58 -16 58 -4 0 -3 -14 3 -31z"/>
<path d="M1340 3334 c0 -7 -12 -15 -26 -18 -20 -5 -25 -12 -21 -26 3 -11 2
-20 -3 -20 -4 0 -11 -36 -14 -80 -4 -45 -11 -78 -17 -75 -5 4 -9 15 -9 26 0
14 -13 25 -46 39 -39 17 -47 18 -60 6 -20 -20 -34 -62 -34 -99 l0 -32 67 0 68
0 11 -50 c10 -43 12 -46 13 -17 l1 32 71 0 72 0 -6 88 c-3 48 -15 113 -26 144
-22 63 -40 100 -41 82z m1 -37 c-10 -9 -11 -8 -5 6 3 10 9 15 12 12 3 -3 0
-11 -7 -18z"/>
<path d="M3640 3327 c-18 -9 -211 -13 -725 -15 l-700 -3 -107 -107 c-60 -59
-108 -112 -108 -119 0 -10 194 -13 969 -13 533 0 977 3 986 6 13 5 -11 35
-111 135 -135 135 -148 143 -204 116z"/>
<path d="M6976 3331 c-4 -7 -5 -15 -2 -18 9 -9 19 4 14 18 -4 11 -6 11 -12 0z"/>
<path d="M6456 3315 c-9 -26 -7 -32 5 -12 6 10 9 21 6 23 -2 3 -7 -2 -11 -11z"/>
<path d="M6470 3290 c0 -5 -6 -10 -14 -10 -8 0 -19 -14 -25 -31 -15 -44 -35
-194 -28 -213 5 -12 21 -16 72 -16 64 0 65 0 66 -27 0 -25 1 -26 9 -8 5 11 9
32 9 47 1 26 3 27 69 30 65 3 67 4 70 31 4 31 -20 150 -25 127 -2 -8 -28 -26
-58 -39 -46 -20 -55 -28 -55 -49 0 -47 -13 -13 -26 69 -7 45 -19 86 -26 90
-18 12 -38 11 -38 -1z m-10 -30 c0 -5 -5 -10 -11 -10 -5 0 -7 5 -4 10 3 6 8
10 11 10 2 0 4 -4 4 -10z"/>
<path d="M6875 3273 c4 -16 8 -29 10 -31 5 -6 61 26 74 42 12 14 7 16 -39 16
-52 0 -52 0 -45 -27z"/>
<path d="M895 3261 c32 -20 45 -18 45 5 0 10 -11 14 -37 14 l-38 0 30 -19z"/>
<path d="M806 3238 c-32 -41 -21 -54 39 -50 56 5 67 23 35 58 -31 32 -44 30
-74 -8z"/>
<path d="M6941 3244 c-24 -31 -26 -40 -9 -50 15 -9 68 -9 91 1 17 7 15 11 -14
41 -18 19 -36 34 -40 34 -4 0 -17 -12 -28 -26z"/>
<path d="M6845 3081 c-2 -5 4 -11 15 -14 11 -3 20 -2 20 3 0 12 -28 21 -35 11z"/>
<path d="M936 3071 c-4 -5 3 -7 14 -4 23 6 26 13 6 13 -8 0 -17 -4 -20 -9z"/>
<path d="M625 2902 c72 -38 180 -97 240 -131 138 -77 161 -78 187 -7 l18 48
-25 24 c-14 13 -26 23 -28 23 -10 -3 -55 26 -51 32 3 5 -3 6 -12 2 -12 -4 -15
-3 -10 5 5 8 1 10 -10 5 -12 -4 -15 -3 -10 5 5 8 2 10 -8 6 -9 -3 -16 -1 -16
6 0 6 -4 8 -10 5 -5 -3 -10 -2 -10 4 0 6 -7 8 -15 5 -8 -4 -15 -2 -15 4 0 6
-10 8 -22 4 -13 -3 -19 -1 -15 5 4 6 -4 8 -20 5 -14 -3 -23 -1 -20 4 3 5 -57
10 -136 12 l-142 3 130 -69z"/>
<path d="M7050 2954 c-36 -8 -72 -11 -80 -8 -8 3 -11 2 -7 -2 10 -10 -112 -66
-126 -57 -6 3 -7 1 -3 -6 4 -6 0 -14 -11 -18 -10 -4 -27 -15 -37 -25 -11 -10
-24 -18 -29 -18 -14 0 -1 -67 18 -96 24 -36 35 -33 235 82 41 23 127 70 190
103 l115 61 -100 -1 c-55 0 -129 -7 -165 -15z"/>
<path d="M7183 2880 c-71 -37 -171 -92 -224 -122 -52 -31 -106 -59 -120 -62
-13 -4 -55 -21 -92 -38 -61 -27 -76 -30 -126 -24 l-58 7 -18 -48 c-11 -29 -45
-79 -86 -125 -38 -42 -69 -79 -69 -82 0 -15 100 61 135 102 l39 47 141 1 c196
1 284 26 402 116 62 47 138 142 127 159 -4 7 -3 9 4 5 6 -3 16 3 22 14 6 11 8
20 6 20 -3 0 6 11 20 25 15 15 22 30 18 38 -4 6 -4 9 1 5 8 -8 35 9 35 22 0
17 -38 2 -157 -60z"/>
<path d="M502 2902 c48 -81 78 -120 137 -175 33 -32 65 -56 70 -52 5 3 16 -3
23 -12 25 -34 186 -116 261 -133 58 -13 162 -12 208 2 34 10 42 9 60 -8 12
-10 24 -18 28 -16 3 1 6 -1 6 -5 0 -16 51 -75 70 -84 11 -5 31 -17 45 -26 l25
-17 -25 29 c-13 17 -46 53 -73 81 -43 45 -48 54 -38 73 7 12 8 21 2 21 -5 0
-11 -8 -14 -17 -3 -13 -6 -9 -12 12 -16 61 -30 70 -95 67 -47 -3 -71 1 -114
21 -30 14 -67 28 -84 32 -17 3 -81 36 -144 72 -150 86 -307 165 -336 169 l-23
2 23 -36z m107 -117 c22 -26 23 -27 2 -10 -25 21 -111 137 -111 150 0 5 18
-18 41 -51 23 -32 53 -72 68 -89z m750 -348 c-2 -2 -17 12 -33 32 l-30 36 34
-32 c19 -18 32 -34 29 -36z"/>
<path d="M6884 2914 c-18 -14 -18 -14 6 -3 31 14 36 19 24 19 -6 0 -19 -7 -30
-16z"/>
<path d="M6308 2843 c-1 -5 -19 -15 -39 -24 -33 -16 -36 -22 -54 -98 -10 -45
-22 -84 -26 -87 -4 -2 -33 8 -65 23 -41 20 -58 25 -61 16 -3 -7 -11 -13 -18
-13 -15 0 -23 -27 -32 -111 l-6 -62 48 6 c26 4 58 7 71 7 25 0 50 43 75 130
16 58 32 70 91 70 46 0 48 1 48 29 0 47 -12 91 -22 85 -6 -4 -8 2 -3 15 6 19
1 30 -7 14z"/>
<path d="M1130 2831 c0 -6 4 -13 10 -16 6 -3 7 1 4 9 -7 18 -14 21 -14 7z"/>
<path d="M1501 2803 c-7 -15 -15 -48 -18 -74 l-6 -48 58 -3 58 -3 22 -65 c43
-129 35 -120 115 -120 l70 0 0 35 c0 48 -20 136 -30 130 -4 -3 -6 5 -2 17 3
14 2 19 -6 14 -7 -4 -12 -2 -12 4 0 14 -120 -47 -121 -63 -1 -19 -25 52 -39
120 -11 48 -19 64 -37 72 -34 16 -38 14 -52 -16z"/>
<path d="M1145 2790 c3 -5 8 -10 11 -10 2 0 4 5 4 10 0 6 -5 10 -11 10 -5 0
-7 -4 -4 -10z"/>
<path d="M6642 2765 c-7 -15 -8 -25 -2 -25 13 0 32 38 21 44 -4 3 -13 -6 -19
-19z"/>
<path d="M1215 2729 c11 -6 25 -18 31 -25 10 -12 12 -11 17 6 3 11 0 20 -6 20
-7 0 -23 3 -37 6 -23 5 -24 5 -5 -7z"/>
<path d="M6574 2733 c-26 -3 -30 -8 -27 -27 l5 -23 23 23 c34 34 50 30 23 -7
-19 -26 -20 -31 -8 -39 19 -12 97 -13 104 -1 6 9 -69 82 -82 79 -4 0 -21 -3
-38 -5z"/>
<path d="M1136 2696 l-25 -34 23 -6 c28 -7 84 3 92 16 7 11 -34 58 -52 58 -6
0 -23 -15 -38 -34z"/>
<path d="M6503 2667 c-12 -7 -19 -17 -15 -23 5 -8 16 -6 34 6 16 9 25 20 21
23 -9 9 -14 8 -40 -6z"/>
<path d="M1331 2624 c0 -11 3 -14 6 -6 3 7 2 16 -1 19 -3 4 -6 -2 -5 -13z"/>
<path d="M6501 2573 c7 -10 15 -20 16 -22 2 -2 3 5 3 17 0 14 -6 22 -16 22
-14 0 -15 -3 -3 -17z"/>
<path d="M1939 2531 c-16 -15 -39 -100 -39 -141 0 -17 7 -20 49 -20 45 0 50
-2 61 -30 26 -63 18 -20 -18 91 -34 106 -38 114 -53 100z"/>
<path d="M5850 2533 c0 -10 -16 -63 -35 -118 -18 -55 -32 -101 -31 -103 2 -2
8 11 14 27 10 29 14 31 61 31 l51 0 0 39 c0 22 -5 52 -12 68 -6 15 -12 30 -13
33 -8 24 -19 40 -26 40 -5 0 -9 -8 -9 -17z"/>
<path d="M6139 2372 c-23 -73 -23 -74 -4 -88 29 -22 52 -17 75 16 12 17 26 27
32 24 7 -4 8 -2 4 4 -4 6 1 23 10 37 9 14 15 27 13 28 -2 1 -27 14 -55 28
l-52 26 -23 -75z"/>
<path d="M1594 2408 c-32 -16 -41 -26 -40 -44 0 -12 3 -21 5 -18 5 5 41 -42
41 -53 0 -4 -7 1 -15 11 -8 11 -15 15 -15 9 0 -23 47 -38 88 -28 17 4 22 12
22 40 0 18 -4 36 -9 39 -4 3 -11 19 -14 36 -8 35 -9 35 -63 8z"/>
<path d="M3700 2410 c-128 -34 -274 -119 -256 -148 11 -18 33 -14 74 13 43 28
152 78 152 69 0 -4 6 -2 13 4 7 6 31 14 53 18 48 8 259 9 294 1 53 -12 65 -16
65 -17 0 -1 11 -3 24 -6 13 -2 63 -25 112 -50 73 -38 92 -44 104 -34 10 8 12
17 6 24 -5 6 -9 16 -9 21 -1 6 -11 16 -24 24 -21 12 -21 12 2 -9 l25 -22 -34
19 c-18 10 -35 24 -38 30 -3 7 -9 10 -14 7 -5 -3 -9 0 -9 5 0 6 -3 10 -7 10
-21 -3 -44 2 -39 9 2 4 -3 8 -12 8 -9 1 -44 9 -77 19 -39 11 -108 18 -195 21
-113 3 -147 1 -210 -16z"/>
<path d="M958 2406 c-32 -7 -60 -15 -63 -18 -3 -3 25 -13 62 -23 38 -10 131
-40 208 -68 192 -68 255 -87 269 -81 15 6 36 69 36 107 0 17 -4 25 -13 21 -7
-2 -22 4 -32 14 -22 20 -27 22 -51 22 -9 0 -12 5 -8 12 4 6 3 8 -4 4 -5 -3
-42 1 -82 9 -84 18 -242 18 -322 1z"/>
<path d="M6524 2400 c-64 -17 -100 -30 -161 -63 -25 -13 -29 -38 -12 -86 9
-26 16 -31 44 -31 19 0 127 33 242 74 114 40 223 77 241 81 47 10 39 21 -25
34 -86 17 -246 13 -329 -9z"/>
<path d="M870 2349 c156 -125 208 -168 234 -192 67 -60 174 -108 273 -122 56
-7 197 14 271 41 35 13 49 14 69 5 13 -6 28 -9 33 -6 5 3 12 0 16 -6 5 -8 2
-10 -7 -4 -20 10 42 -43 65 -56 14 -8 17 -8 11 1 -4 7 6 2 24 -11 17 -12 31
-25 31 -29 0 -3 9 -6 20 -7 11 -1 20 0 20 3 0 2 -43 35 -95 74 -52 38 -107 88
-121 110 -15 23 -33 39 -40 36 -59 -23 -93 -25 -145 -11 -30 8 -79 20 -109 25
-30 6 -125 35 -210 65 -172 60 -323 105 -349 105 -12 -1 -10 -6 9 -21z"/>
<path d="M3805 2363 c-192 -27 -386 -152 -474 -306 l-33 -58 22 -21 c16 -15
20 -27 16 -47 -4 -14 9 2 28 37 68 124 157 209 296 281 119 62 243 77 365 46
65 -17 165 -62 177 -79 4 -6 8 -8 8 -4 0 18 151 -145 185 -200 21 -34 40 -62
42 -62 14 0 -60 112 -111 168 -51 57 -53 60 -12 22 26 -25 68 -75 93 -112 39
-58 49 -66 64 -57 18 9 18 11 -1 49 -23 46 -25 54 -7 44 7 -4 9 -3 4 2 -5 5
-14 9 -19 9 -6 0 -13 6 -16 14 -3 9 0 11 9 6 8 -5 11 -4 6 1 -5 5 -12 9 -17 9
-4 0 -29 24 -56 54 -134 150 -365 232 -569 204z m-444 -376 c-10 -9 -11 -8 -5
6 3 10 9 15 12 12 3 -3 0 -11 -7 -18z"/>
<path d="M6840 2345 c-41 -12 -133 -44 -205 -70 -71 -26 -157 -54 -190 -62
-33 -8 -87 -22 -120 -31 -65 -18 -120 -21 -175 -9 -33 7 -37 5 -69 -39 -19
-25 -70 -73 -113 -106 -43 -32 -78 -61 -78 -64 0 -3 3 -3 8 -1 4 2 30 14 57
27 47 21 126 76 133 92 6 14 42 8 134 -22 104 -35 189 -39 283 -15 90 24 163
68 276 167 57 50 119 102 137 116 59 45 34 51 -78 17z"/>
<path d="M5766 2285 c-9 -26 -7 -32 5 -12 6 10 9 21 6 23 -2 3 -7 -2 -11 -11z"/>
<path d="M6203 2273 c-4 -10 -17 -26 -30 -36 -42 -33 -24 -58 40 -56 18 0 40
4 50 7 15 7 13 12 -17 41 -27 27 -33 38 -25 48 9 9 8 13 0 13 -6 0 -15 -8 -18
-17z"/>
<path d="M2400 2226 c0 -40 3 -48 25 -56 14 -5 25 -13 25 -17 0 -5 10 -19 21
-33 11 -14 1 13 -22 60 -23 47 -43 87 -45 89 -2 2 -4 -17 -4 -43z"/>
<path d="M2465 2181 c26 -50 50 -93 55 -96 11 -7 58 55 57 77 0 9 -4 15 -7 13
-6 -4 -73 42 -90 62 -9 10 24 -9 43 -25 9 -8 19 -13 22 -10 9 8 -48 42 -68 41
-11 -1 -15 3 -11 10 4 7 4 9 -1 5 -4 -4 -16 -3 -27 3 -15 8 -9 -10 27 -80z"/>
<path d="M1655 2249 c11 -7 23 -16 26 -21 3 -6 9 -3 12 6 4 10 1 16 -7 16 -8
0 -23 3 -33 6 -15 5 -15 3 2 -7z"/>
<path d="M4350 2245 c-19 -23 -1 -40 20 -18 17 17 17 33 1 33 -5 0 -14 -7 -21
-15z"/>
<path d="M5346 2249 c2 -4 -21 -26 -52 -49 l-55 -42 23 -30 c13 -16 28 -30 33
-30 8 -1 84 135 85 152 0 3 -9 6 -19 6 -11 0 -18 -3 -15 -7z"/>
<path d="M5391 2238 c-5 -15 -22 -51 -36 -80 -14 -29 -18 -43 -9 -30 10 14 27
22 45 22 27 0 29 2 29 43 0 57 -15 81 -29 45z"/>
<path d="M1576 2221 c-27 -28 -27 -29 -7 -36 25 -8 78 2 87 16 7 12 -24 49
-41 49 -6 0 -24 -13 -39 -29z"/>
<path d="M3396 2242 c-7 -12 22 -38 31 -28 4 3 0 14 -9 22 -9 10 -18 12 -22 6z"/>
<path d="M6111 2223 c1 -16 3 -21 6 -12 2 9 14 21 26 27 21 10 21 11 -5 11
-24 1 -28 -3 -27 -26z"/>
<path d="M5720 2203 c-40 -76 -40 -76 -97 -46 l-50 27 -22 -21 c-14 -13 -25
-40 -31 -79 -17 -100 -17 -100 37 -95 46 3 50 6 84 60 48 73 112 191 105 191
-3 0 -15 -17 -26 -37z"/>
<path d="M2091 2178 c12 -24 41 -73 65 -110 44 -68 44 -68 90 -68 l47 0 -7 78
c-3 42 -10 78 -16 80 -5 2 -6 10 -3 18 8 22 -15 17 -74 -16 -29 -16 -55 -30
-57 -30 -3 0 -17 20 -32 45 -33 57 -41 59 -13 3z"/>
<path d="M6036 2173 c-8 -20 -7 -25 3 -19 5 3 12 -2 15 -11 6 -14 8 -14 21 3
20 26 19 31 -9 36 -16 3 -27 0 -30 -9z"/>
<path d="M5676 2072 c-31 -54 -56 -107 -56 -118 0 -11 13 -27 30 -37 29 -18
31 -18 62 7 75 57 192 206 175 222 -3 3 -8 -3 -12 -14 -7 -23 -32 -19 -102 17
l-42 21 -55 -98z m175 15 c-10 -9 -11 -8 -5 6 3 10 9 15 12 12 3 -3 0 -11 -7
-18z"/>
<path d="M1730 2150 c0 -13 11 -13 30 0 12 8 11 10 -7 10 -13 0 -23 -4 -23
-10z"/>
<path d="M2025 2125 c-22 -14 -44 -26 -50 -28 -15 -5 44 -97 96 -149 l48 -48
36 17 c19 9 35 23 35 30 0 15 -72 159 -93 186 -18 22 -24 21 -72 -8z"/>
<path d="M1783 2133 c4 -6 2 -13 -4 -15 -6 -2 26 -31 73 -65 101 -73 110 -84
106 -118 l-3 -25 -25 22 c-23 22 -35 24 -165 27 -100 2 -159 -2 -206 -13 -76
-17 -183 -56 -175 -63 4 -4 66 -14 171 -27 61 -8 102 -15 215 -34 171 -31 400
-26 400 7 0 4 -23 29 -52 56 -28 26 -47 42 -43 34 8 -12 6 -12 -8 0 -9 7 -14
18 -10 24 3 6 1 7 -5 3 -15 -9 -52 11 -49 27 1 7 -6 11 -17 9 -10 -2 -16 1
-12 6 3 5 -1 9 -8 9 -19 0 -167 104 -161 113 3 4 -3 14 -12 21 -9 8 -14 9 -10
2z"/>
<path d="M5207 2133 c-8 -12 60 -79 70 -69 4 3 -9 23 -29 42 -19 20 -38 32
-41 27z"/>
<path d="M1940 2105 c0 -12 48 -85 56 -85 3 0 -3 12 -14 28 -10 15 -24 36 -30
47 -6 11 -12 15 -12 10z"/>
<path d="M2625 2100 c-3 -5 -1 -10 4 -10 6 0 11 5 11 10 0 6 -2 10 -4 10 -3 0
-8 -4 -11 -10z"/>
<path d="M5310 2080 c-6 -11 -8 -20 -6 -20 3 0 10 9 16 20 6 11 8 20 6 20 -3
0 -10 -9 -16 -20z"/>
<path d="M5940 2045 c-38 -27 -55 -32 -44 -12 4 7 3 9 -2 4 -5 -5 -9 -14 -9
-19 0 -6 -6 -13 -14 -16 -9 -3 -11 0 -6 9 5 8 4 11 -1 6 -5 -5 -9 -14 -9 -19
0 -6 -6 -13 -14 -16 -9 -3 -11 0 -6 8 5 9 4 11 -4 6 -6 -4 -9 -11 -6 -15 5
-10 -114 -96 -122 -88 -8 8 -64 -56 -60 -68 8 -23 77 -35 143 -25 35 6 74 8
87 5 12 -3 72 2 132 11 61 9 121 18 135 20 14 2 48 8 75 14 28 6 73 13 100 16
28 3 68 8 90 12 l40 8 -60 23 c-107 41 -189 53 -335 50 -74 -2 -140 -7 -147
-12 -7 -5 -17 -6 -23 -2 -6 4 -9 1 -8 -6 2 -6 -3 -14 -9 -16 -20 -7 -15 35 5
55 11 11 40 33 65 51 26 18 47 34 47 36 0 7 -2 6 -40 -20z"/>
<path d="M3269 1989 c-17 -35 -24 -40 -46 -36 -19 3 -27 0 -30 -14 -3 -11 -11
-19 -19 -19 -13 0 -19 -32 -27 -135 -2 -27 -2 -42 0 -32 3 10 14 17 29 17 22
0 24 -4 24 -47 0 -85 11 -152 24 -142 6 5 23 18 38 30 23 17 26 24 18 40 -6
11 -21 19 -35 19 -22 0 -25 5 -26 38 -3 98 11 169 52 260 31 70 30 84 -2 21z"/>
<path d="M4524 1945 c30 -77 50 -185 42 -229 -5 -27 -12 -35 -36 -40 -43 -8
-41 -45 4 -79 l34 -26 6 37 c3 20 6 62 6 93 0 55 0 56 27 51 l26 -5 -6 83 c-4
46 -12 87 -18 91 -7 4 -8 12 -4 20 6 9 3 10 -11 5 -41 -17 -54 -18 -54 -5 0 8
-9 25 -20 39 -18 22 -17 19 4 -35z"/>
<path d="M2515 1902 c-27 -15 -52 -28 -54 -29 -6 -3 47 -89 63 -103 9 -7 16
-17 16 -23 0 -9 -32 28 -73 85 -17 22 -17 22 -2 -10 18 -38 82 -112 97 -112
17 0 68 -41 63 -50 -3 -5 -19 -4 -35 2 -17 5 -27 14 -24 20 4 6 -2 8 -16 3
-14 -4 -20 -3 -16 3 3 5 0 10 -7 9 -34 -1 -48 4 -41 15 4 6 3 8 -4 4 -12 -7
-62 13 -62 25 0 5 -7 5 -17 2 -11 -4 -14 -3 -9 5 5 8 1 10 -10 5 -12 -4 -15
-3 -10 5 5 8 1 10 -10 5 -13 -5 -15 -3 -9 7 5 9 4 11 -3 6 -6 -4 -21 -2 -33 5
-16 8 -20 8 -17 -1 2 -6 60 -36 128 -67 145 -64 150 -67 150 -101 0 -23 -1
-24 -17 -10 -10 9 -29 19 -43 24 -25 8 -25 8 -3 13 18 5 -7 19 -110 64 -72 33
-149 70 -170 84 l-37 26 -54 -17 c-75 -24 -239 -16 -466 23 -232 39 -306 46
-316 30 -4 -7 -3 -10 3 -6 6 4 14 0 17 -8 3 -8 9 -14 13 -13 4 1 34 -14 65
-35 211 -136 290 -167 438 -174 l105 -5 100 52 c96 51 198 79 211 58 3 -4 10
-6 15 -3 5 4 9 2 9 -3 0 -10 60 -38 73 -34 4 1 7 -3 7 -9 0 -5 5 -7 10 -4 6 3
10 1 10 -4 0 -6 11 -11 25 -11 16 0 25 -6 25 -15 0 -8 5 -15 10 -15 6 0 10
-30 10 -70 l0 -70 -45 0 c-39 0 -47 4 -55 24 -5 13 -14 27 -19 31 -6 3 -11 22
-11 42 l0 36 -61 -7 c-33 -4 -90 -16 -125 -27 -35 -11 -70 -17 -76 -13 -7 5
-8 3 -3 -6 6 -10 4 -12 -11 -6 -10 4 -15 4 -12 0 4 -3 -20 -24 -52 -45 -33
-21 -60 -40 -60 -41 0 -2 120 -2 267 -1 196 2 286 7 333 18 36 8 77 17 91 20
15 2 37 13 49 23 l23 19 -50 51 c-27 29 -53 49 -58 45 -4 -5 -5 -2 -1 5 5 8
13 9 25 3 12 -7 28 -3 57 13 44 25 47 46 11 83 -11 13 -18 26 -14 29 10 10 55
-69 62 -108 l7 -38 -48 0 -49 -1 35 -19 c44 -24 57 -25 63 -2 3 11 5 9 6 -8 1
-20 9 -28 38 -37 32 -10 41 -9 64 8 14 10 29 16 33 14 3 -3 2 1 -4 7 -5 7 -10
24 -10 40 0 48 -21 129 -32 122 -6 -4 -8 2 -3 16 6 19 5 21 -13 11 -11 -6 -22
-7 -26 -4 -3 3 -6 2 -6 -4 0 -6 -14 -16 -30 -23 -29 -12 -33 -11 -60 15 -17
16 -30 25 -30 20 0 -4 -9 0 -20 10 -25 22 -27 43 -2 24 14 -11 14 -10 -2 8
-10 13 -22 20 -26 18 -4 -3 -24 15 -45 40 -20 25 -39 45 -43 44 -4 0 -29 -12
-57 -27z"/>
<path d="M5189 1880 c-23 -27 -45 -47 -50 -45 -4 3 -11 0 -15 -6 -4 -8 -3 -9
4 -5 20 12 13 -10 -8 -29 -11 -10 -20 -14 -20 -10 0 5 -14 -4 -31 -21 l-30
-29 -41 24 c-42 24 -57 19 -58 -19 0 -13 -1 -13 -10 0 -7 12 -10 8 -10 -15 0
-16 -6 -56 -14 -87 -7 -32 -10 -58 -5 -58 4 0 14 -7 22 -15 13 -13 20 -13 55
-1 22 8 44 11 48 8 4 -4 4 -1 0 5 -4 7 -2 21 3 30 9 16 10 16 11 -4 l0 -21 40
21 40 22 -43 5 c-41 5 -42 6 -39 40 3 35 49 117 59 106 3 -3 -4 -17 -16 -32
-29 -36 -26 -56 8 -77 40 -24 57 -22 115 15 90 56 154 127 170 188 l7 25 -15
-25 c-10 -16 -15 -19 -16 -10 0 12 -95 70 -115 70 -2 0 -23 -22 -46 -50z"/>
<path d="M2167 1873 c18 -9 34 -23 36 -32 3 -9 5 -1 6 17 1 31 0 32 -36 31
l-38 0 32 -16z"/>
<path d="M5590 1884 c1 -24 16 -32 34 -18 11 8 15 14 9 14 -6 0 -18 3 -27 6
-9 3 -16 2 -16 -2z"/>
<path d="M6290 1845 c-47 -7 -139 -22 -205 -34 -120 -20 -282 -35 -364 -33
-24 1 -59 10 -79 22 l-35 21 -44 -31 c-24 -17 -100 -58 -169 -91 -70 -33 -124
-62 -122 -64 10 -10 158 34 214 64 71 37 101 37 170 -4 27 -16 52 -28 57 -27
4 1 7 -2 7 -7 0 -17 85 -43 156 -48 83 -7 209 16 291 52 49 22 303 182 303
191 0 8 -96 2 -180 -11z"/>
<path d="M2230 1814 c0 -4 8 -12 17 -19 13 -10 19 -10 30 1 19 19 16 24 -17
24 -16 0 -30 -3 -30 -6z"/>
<path d="M5520 1813 c8 -3 18 -10 21 -15 3 -5 12 -2 19 7 11 13 8 15 -21 14
-19 0 -27 -3 -19 -6z"/>
<path d="M5489 1793 c-1 -5 -1 -11 -1 -14 2 -12 -167 -81 -179 -73 -7 4 -10 3
-6 -3 9 -14 -48 -37 -64 -27 -7 4 -10 3 -6 -3 6 -10 -19 -23 -70 -38 -12 -3
-38 -26 -58 -50 l-36 -45 33 -20 c18 -11 42 -20 53 -20 11 0 42 -7 69 -15 27
-8 68 -14 90 -13 37 1 38 2 9 5 -29 4 -33 8 -34 36 0 18 -2 42 -5 54 -2 12 3
29 11 37 23 22 18 26 -14 10 -16 -8 -32 -21 -35 -29 -8 -21 -26 -19 -26 3 0
37 36 66 155 122 82 39 122 63 122 74 0 16 -6 22 -8 9z"/>
<path d="M3395 1638 c-44 -16 -88 -30 -99 -32 -11 -2 -29 -14 -39 -29 -20 -25
-20 -26 2 -53 11 -14 21 -32 21 -38 0 -6 -7 -3 -14 7 -9 11 -27 17 -55 17 -39
0 -41 -1 -29 -21 11 -17 22 -20 63 -18 38 2 62 -3 103 -24 29 -15 56 -25 61
-23 5 3 27 52 51 108 23 57 46 107 51 113 32 34 -12 31 -116 -7z"/>
<path d="M4279 1633 c11 -21 36 -77 56 -125 21 -49 39 -88 40 -88 1 0 23 9 48
20 25 11 60 38 77 60 18 22 35 38 40 35 15 -10 -2 34 -20 50 -20 18 -209 85
-241 85 -18 0 -18 -1 0 -37z"/>
<path d="M5439 1593 c-1 -34 -9 -64 -24 -94 l-16 -29 68 -1 c38 -1 144 -2 236
-3 l168 -1 -28 23 c-36 30 -143 85 -151 78 -3 -3 1 -6 8 -6 7 0 11 -2 8 -5 -8
-8 -39 6 -33 15 3 5 -5 6 -17 2 -16 -4 -19 -2 -13 8 5 8 4 11 -2 7 -6 -4 -45
0 -88 8 -99 19 -115 19 -116 -2z m401 -120 c0 -7 -39 17 -46 28 -3 6 5 3 20
-6 14 -10 26 -19 26 -22z"/>
<path d="M2753 1530 c-18 -16 -49 -33 -70 -39 -142 -36 -186 -41 -390 -41
-232 0 -336 -7 -330 -23 7 -21 56 -50 85 -51 17 -1 28 -4 25 -8 -2 -5 4 -8 14
-9 24 -1 37 -4 108 -30 117 -41 320 -47 451 -13 80 21 151 60 211 117 l54 51
108 -22 c98 -19 151 -20 151 -3 0 4 -51 17 -112 31 -62 13 -147 34 -188 47
-41 13 -77 23 -80 23 -3 0 -19 -14 -37 -30z"/>
<path d="M2930 1550 c-12 -8 -12 -10 3 -14 9 -4 25 -9 35 -12 9 -3 35 -8 57
-11 22 -2 45 -9 51 -14 6 -5 13 -7 16 -4 2 3 19 1 36 -4 18 -5 32 -6 32 -2 0
4 -28 13 -62 20 -142 29 -158 33 -152 42 7 11 3 11 -16 -1z"/>
<path d="M4955 1544 c-22 -9 -105 -31 -184 -49 -79 -19 -146 -36 -149 -39 -10
-10 25 -34 39 -26 23 13 181 43 222 42 60 -1 64 -3 122 -59 32 -32 60 -51 67
-47 7 4 8 3 4 -5 -13 -20 94 -61 187 -71 94 -11 240 0 337 25 76 20 263 97
267 111 5 16 -115 24 -365 24 -215 0 -220 1 -375 41 -20 5 -52 23 -71 39 -38
34 -45 35 -101 14z"/>
<path d="M4761 1520 c-79 -20 -133 -27 -180 -26 -60 3 -68 0 -84 -21 l-18 -23
48 0 c31 0 43 3 34 9 -21 14 5 24 68 27 31 2 67 6 81 9 68 14 170 41 176 48
10 10 5 9 -125 -23z"/>
<path d="M4329 1330 c-20 -38 -32 -67 -27 -64 10 7 71 125 66 129 -2 2 -19
-27 -39 -65z"/>
<path d="M3446 1327 c3 -10 9 -15 12 -12 3 3 0 11 -7 18 -10 9 -11 8 -5 -6z"/>
<path d="M4512 1150 c-28 -60 -49 -110 -46 -110 8 0 107 211 102 216 -3 2 -28
-45 -56 -106z"/>
<path d="M3405 1137 c-50 -103 -53 -114 -40 -134 13 -19 19 -20 47 -12 18 6
41 13 51 16 9 3 25 -1 34 -8 15 -13 15 -12 4 11 l-12 25 21 -24 c11 -13 19
-30 16 -37 -17 -44 68 -13 185 67 105 72 107 67 -40 110 -51 15 -99 33 -105
40 -8 9 -8 10 2 5 18 -10 15 -1 -5 15 -11 10 -14 10 -9 2 4 -7 3 -13 -2 -13
-11 0 -44 35 -38 41 2 2 -9 5 -25 6 -29 2 -32 -2 -84 -110z"/>
<path d="M4276 1235 c-10 -8 -23 -12 -29 -8 -6 3 -7 1 -4 -4 9 -14 -19 -37
-34 -27 -7 4 -9 3 -5 -4 6 -10 -27 -23 -149 -57 l-59 -17 24 -20 c14 -11 19
-17 13 -13 -27 14 -11 -6 24 -30 40 -27 59 -32 47 -13 -4 7 -3 8 5 4 6 -4 9
-11 6 -16 -7 -12 32 -33 45 -25 6 4 9 1 8 -7 -2 -7 5 -12 14 -12 10 1 16 -3
15 -9 -3 -16 38 -20 63 -7 12 6 19 17 16 25 -8 22 4 24 52 9 35 -10 55 -11 79
-3 36 11 50 35 25 42 -10 2 -34 45 -60 106 -46 105 -57 115 -96 86z"/>
<path d="M3753 1143 c9 -2 23 -2 30 0 6 3 -1 5 -18 5 -16 0 -22 -2 -12 -5z"/>
<path d="M4008 1143 c6 -2 18 -2 25 0 6 3 1 5 -13 5 -14 0 -19 -2 -12 -5z"/>
<path d="M6951 620 c-35 -8 -69 -35 -58 -46 3 -4 22 1 41 10 19 9 43 16 55 16
12 0 21 6 21 15 0 16 -8 17 -59 5z"/>
<path d="M7030 621 c0 -5 19 -15 43 -22 23 -6 55 -18 70 -26 36 -18 49 -7 20
17 -12 9 -20 20 -17 23 3 3 -5 5 -18 4 -13 0 -40 3 -60 7 -25 6 -38 5 -38 -3z"/>
<path d="M457 610 c18 -19 31 -20 283 -20 151 1 228 4 235 12 7 8 5 9 -7 5
-17 -6 -417 -9 -469 -3 -14 1 -32 6 -40 11 -11 6 -12 5 -2 -5z"/>
<path d="M1339 603 c-13 -16 -12 -17 4 -4 16 13 21 21 13 21 -2 0 -10 -8 -17
-17z"/>
<path d="M2369 593 l-24 -28 28 24 c15 14 27 26 27 28 0 8 -8 1 -31 -24z"/>
<path d="M5004 598 l-19 -23 23 19 c12 11 22 21 22 23 0 8 -8 2 -26 -19z"/>
<path d="M5714 598 l-19 -23 23 19 c12 11 22 21 22 23 0 8 -8 2 -26 -19z"/>
<path d="M7167 607 c3 -4 8 -6 11 -3 3 3 11 1 17 -4 9 -7 16 -5 25 5 12 14 9
16 -23 13 -20 -1 -33 -6 -30 -11z"/>
<path d="M1117 600 c16 -17 179 -18 196 -1 10 11 7 12 -13 5 -31 -9 -138 -9
-171 1 -19 6 -21 5 -12 -5z"/>
<path d="M1547 600 c15 -16 199 -18 215 -2 8 8 -4 9 -43 4 -65 -7 -120 -6
-157 3 -21 5 -24 4 -15 -5z"/>
<path d="M1877 600 c16 -17 462 -15 478 2 7 8 5 9 -8 5 -25 -9 -438 -10 -462
-1 -16 5 -18 4 -8 -6z"/>
<path d="M2495 600 c-3 -5 -5 -10 -3 -11 9 -1 128 -7 158 -8 33 0 61 20 39 28
-6 2 -15 -2 -19 -9 -7 -12 -102 -8 -152 6 -9 3 -19 0 -23 -6z"/>
<path d="M2894 602 c17 -16 225 -18 240 -1 8 9 4 10 -18 5 -32 -8 -128 -8
-190 -2 -21 3 -35 2 -32 -2z"/>
<path d="M3246 602 c-3 -5 2 -16 11 -23 11 -9 14 -10 9 -2 -5 10 45 12 229 12
173 -1 233 -4 228 -13 -3 -6 3 -2 15 8 12 11 22 20 22 22 0 1 -15 1 -32 -1
-60 -6 -444 -6 -460 0 -9 4 -19 2 -22 -3z"/>
<path d="M4135 601 c-3 -6 -5 -11 -3 -12 5 0 122 -7 133 -7 6 0 56 2 111 5 78
3 110 1 139 -11 29 -12 41 -13 52 -5 35 29 -27 36 -252 29 -60 -2 -124 0 -142
4 -19 4 -34 3 -38 -3z"/>
<path d="M4776 602 c-11 -19 190 -20 208 -1 8 8 4 9 -14 3 -30 -9 -138 -9
-167 0 -12 4 -24 3 -27 -2z"/>
<path d="M5120 606 c0 -2 8 -10 18 -17 15 -13 16 -12 3 4 -13 16 -21 21 -21
13z"/>
<path d="M5157 600 c16 -17 180 -17 196 0 9 10 7 11 -12 5 -33 -10 -140 -10
-171 -1 -20 7 -23 6 -13 -4z"/>
<path d="M5475 600 c-8 -12 -12 -12 108 -12 66 -1 102 3 110 12 10 10 7 11
-13 5 -31 -10 -148 -10 -177 -1 -12 4 -24 2 -28 -4z"/>
<path d="M6086 601 c7 -8 74 -11 224 -12 163 0 221 -3 248 -14 42 -18 39 -19
44 3 7 27 18 26 -303 23 -103 0 -195 2 -205 5 -14 5 -16 4 -8 -5z"/>
<path d="M6963 579 c-18 -5 -39 -19 -47 -31 -14 -20 -14 -23 4 -35 18 -13 23
-12 46 6 32 25 80 27 130 6 20 -8 40 -13 44 -10 5 3 12 0 16 -6 5 -8 3 -9 -6
-4 -8 5 -11 4 -7 -3 10 -15 47 -2 47 17 0 21 -95 62 -152 67 -24 2 -57 -1 -75
-7z"/>
<path d="M488 569 c-31 -18 -22 -39 18 -39 19 0 33 4 30 9 -3 5 4 11 17 15 18
5 20 8 7 16 -19 12 -50 12 -72 -1z"/>
<path d="M643 573 c-18 -7 -16 -23 2 -23 8 0 15 -6 15 -12 0 -10 30 -12 125
-10 69 2 125 7 125 13 0 5 7 9 15 9 20 0 19 16 -1 24 -19 7 -263 7 -281 -1z"/>
<path d="M1868 566 c-28 -21 -21 -36 18 -36 21 0 33 4 29 10 -3 6 3 10 14 10
25 0 28 15 5 24 -24 9 -47 7 -66 -8z"/>
<path d="M2020 570 c-13 -8 -11 -11 7 -16 13 -4 20 -10 17 -15 -3 -5 50 -9
120 -9 69 0 126 4 126 9 0 5 10 11 23 15 18 5 20 8 7 16 -20 13 -280 13 -300
0z"/>
<path d="M2918 569 c-31 -18 -22 -39 17 -39 19 0 35 4 35 9 0 5 10 11 23 15
18 5 20 8 7 16 -19 13 -60 12 -82 -1z"/>
<path d="M3300 570 c-13 -8 -11 -11 7 -16 13 -4 20 -10 17 -15 -3 -5 20 -9 51
-9 35 0 54 4 50 10 -3 6 3 10 14 10 29 0 35 17 8 24 -35 9 -130 7 -147 -4z"/>
<path d="M3533 573 c-20 -8 -15 -23 8 -23 11 0 17 -4 14 -10 -4 -6 15 -10 50
-10 35 0 54 4 50 10 -3 6 3 10 14 10 29 0 35 17 8 24 -26 7 -127 7 -144 -1z"/>
<path d="M4302 573 c-17 -7 -5 -23 18 -23 11 0 17 -5 15 -12 -4 -10 12 -13 62
-13 38 0 79 -4 92 -9 19 -6 22 -5 15 5 -6 12 -5 12 8 1 22 -18 36 5 15 25 -25
25 -182 44 -225 26z"/>
<path d="M1096 551 c-17 -18 -16 -19 27 -22 25 -2 43 -1 41 2 -2 4 3 9 11 13
29 11 15 26 -23 26 -25 0 -45 -7 -56 -19z"/>
<path d="M1250 562 c0 -13 47 -32 77 -32 25 0 26 0 8 20 -18 20 -85 29 -85 12z"/>
<path d="M1532 558 c-16 -16 -15 -25 3 -32 15 -5 75 23 75 37 0 12 -65 8 -78
-5z"/>
<path d="M1660 561 c0 -5 7 -14 15 -21 10 -8 13 -21 9 -34 -6 -19 -5 -19 7 -4
8 9 31 18 53 20 23 2 41 9 44 17 3 8 0 11 -6 8 -5 -4 -15 0 -22 8 -13 16 -100
21 -100 6z"/>
<path d="M2491 551 c-6 -10 -7 -21 -4 -25 10 -10 73 -7 73 3 0 5 9 13 20 16
37 12 21 25 -30 25 -38 0 -52 -4 -59 -19z"/>
<path d="M3061 546 c22 -20 33 -23 72 -19 l46 6 -23 18 c-16 13 -40 19 -72 19
l-49 0 26 -24z"/>
<path d="M4136 554 c-24 -24 -19 -34 17 -34 28 1 77 28 77 44 0 13 -80 5 -94
-10z"/>
<path d="M4771 551 c-12 -22 -5 -31 23 -31 20 1 66 31 66 44 0 3 -18 6 -40 6
-28 0 -42 -5 -49 -19z"/>
<path d="M4920 562 c0 -22 41 -41 76 -35 l37 6 -24 18 c-24 18 -89 26 -89 11z"/>
<path d="M5137 552 c-24 -27 -21 -32 18 -32 19 0 35 4 35 9 0 5 9 13 20 16 33
11 23 25 -18 25 -25 0 -45 -7 -55 -18z"/>
<path d="M5275 560 c-3 -5 -2 -10 4 -10 5 0 16 -6 24 -14 10 -10 27 -13 55 -9
l41 6 -23 18 c-26 20 -91 26 -101 9z"/>
<path d="M5473 554 c-3 -9 0 -20 8 -25 19 -12 49 -11 49 0 0 5 9 13 20 16 35
11 21 25 -25 25 -33 0 -47 -5 -52 -16z"/>
<path d="M5642 545 c21 -19 33 -23 62 -18 l35 6 -23 18 c-14 11 -40 19 -62 19
l-39 0 27 -25z"/>
<path d="M6066 551 c-16 -17 -15 -19 21 -25 59 -9 203 -7 203 3 0 5 9 13 20
16 50 16 11 25 -103 25 -108 0 -126 -2 -141 -19z"/>
<path d="M6350 561 c0 -5 9 -13 20 -16 11 -3 20 -11 20 -16 0 -5 28 -9 63 -9
40 0 70 -5 85 -15 20 -15 21 -15 15 2 -6 15 -4 16 9 5 13 -10 18 -10 24 -1 4
7 -4 22 -20 36 -24 21 -37 23 -122 23 -52 0 -94 -4 -94 -9z"/>
<path d="M2630 546 c0 -8 9 -18 20 -21 11 -4 27 -19 35 -35 18 -35 19 -44 3
-34 -7 4 -8 3 -4 -5 4 -6 11 -9 16 -6 5 3 14 -3 19 -14 16 -29 13 -38 -5 -15
-14 18 -15 18 -4 -3 6 -13 16 -22 22 -20 6 1 13 -4 16 -12 3 -10 0 -11 -9 -5
-7 4 -4 -8 8 -27 12 -18 28 -34 34 -34 7 0 14 -6 17 -14 3 -9 0 -11 -9 -6 -8
5 -11 4 -6 -1 5 -5 13 -9 18 -9 8 0 159 -238 159 -251 0 -3 -4 -2 -10 1 -6 3
-7 -1 -4 -9 4 -12 20 -16 54 -16 76 0 84 7 47 39 -18 16 -50 39 -72 53 -33 21
-64 64 -168 232 -70 114 -127 211 -127 216 0 6 -11 10 -25 10 -15 0 -25 -6
-25 -14z m150 -220 c0 -5 -7 -1 -15 10 -8 10 -14 24 -14 29 0 6 6 1 14 -9 8
-11 15 -24 15 -30z"/>
<path d="M962 515 c0 -16 2 -22 5 -12 2 9 2 23 0 30 -3 6 -5 -1 -5 -18z"/>
<path d="M1235 529 c-8 -11 65 -193 73 -184 3 3 -1 17 -8 33 -7 15 -20 43 -28
62 -8 19 -19 43 -24 53 -6 12 -5 23 3 33 7 9 8 14 1 14 -6 0 -14 -5 -17 -11z"/>
<path d="M1609 526 c8 -10 9 -21 3 -33 -5 -10 -15 -30 -21 -45 -6 -16 -16 -40
-22 -55 -6 -16 -15 -36 -20 -45 -5 -10 -9 -24 -9 -32 0 -7 -7 -19 -15 -26 -8
-7 -12 -16 -9 -21 3 -5 -2 -24 -12 -41 -30 -58 -34 -68 -34 -80 1 -22 17 13
90 193 67 165 75 199 49 199 -9 0 -8 -4 0 -14z"/>
<path d="M2342 515 c0 -16 2 -22 5 -12 2 9 2 23 0 30 -3 6 -5 -1 -5 -18z"/>
<path d="M3713 495 c0 -27 2 -38 4 -22 2 15 2 37 0 50 -2 12 -4 0 -4 -28z"/>
<path d="M590 436 c0 -52 4 -97 9 -100 5 -4 7 2 4 12 -3 12 4 21 24 29 18 8
20 10 6 7 -22 -5 -23 -3 -23 70 0 44 -4 76 -10 76 -6 0 -10 -38 -10 -94z"/>
<path d="M1982 465 c-1 -38 -5 -81 -9 -93 -5 -22 -4 -23 15 -11 12 7 17 16 12
19 -5 3 -11 39 -13 80 l-3 75 -2 -70z"/>
<path d="M3022 363 c-2 -172 -2 -173 -24 -173 -21 -1 -21 -2 -5 -11 40 -23 42
-12 37 176 l-6 180 -2 -172z"/>
<path d="M3273 490 c0 -25 2 -35 4 -22 2 12 2 32 0 45 -2 12 -4 2 -4 -23z"/>
<path d="M3492 332 c-2 -200 -2 -203 -24 -213 -22 -9 -21 -9 4 -6 15 2 29 0
30 -5 2 -5 12 -2 23 6 20 15 20 15 -2 9 l-23 -5 -3 208 -2 209 -3 -203z"/>
<path d="M4263 435 c-1 -55 1 -93 4 -85 6 16 23 30 35 30 4 0 5 -7 2 -15 -5
-13 7 -15 74 -15 77 0 132 13 132 32 0 10 -84 -2 -88 -14 -2 -4 -26 -8 -53 -8
-31 0 -48 4 -44 10 3 6 1 10 -5 10 -6 0 -9 4 -6 9 3 4 -6 6 -19 3 -23 -4 -24
-2 -28 69 -3 63 -3 60 -4 -26z"/>
<path d="M4882 353 c3 -109 10 -188 18 -204 l12 -26 23 21 c18 16 21 25 13 39
-6 12 -17 17 -29 14 -18 -5 -19 2 -19 164 0 119 -3 169 -11 169 -9 0 -10 -49
-7 -177z"/>
<path d="M5252 385 c-1 -82 -5 -159 -8 -171 -3 -11 -20 -26 -37 -33 l-32 -13
28 -10 c20 -7 27 -15 23 -27 -5 -12 -2 -11 9 3 23 30 26 67 23 241 l-4 160 -2
-150z"/>
<path d="M5590 330 l-5 -205 -24 1 -24 1 23 -19 c17 -13 25 -16 30 -7 5 7 9 8
11 1 3 -7 12 -5 24 4 l20 16 -20 -4 c-19 -3 -20 4 -25 207 l-5 210 -5 -205z"/>
<path d="M6343 490 c0 -25 2 -35 4 -22 2 12 2 32 0 45 -2 12 -4 2 -4 -23z"/>
<path d="M6637 517 c-16 -6 -26 -16 -23 -24 9 -23 -5 -43 -30 -43 -30 0 -30
-10 1 -33 l24 -17 12 40 c9 28 18 40 31 40 13 0 18 7 18 25 0 14 -1 25 -2 24
-2 -1 -16 -6 -31 -12z"/>
<path d="M6827 508 c-3 -10 -2 -17 2 -16 22 2 33 -5 42 -31 10 -29 11 -29 40
-13 l29 17 -28 5 c-21 4 -27 11 -27 30 0 21 -4 25 -27 25 -17 0 -29 -6 -31
-17z"/>
<path d="M2612 322 c-2 -160 -5 -194 -17 -198 -25 -10 -8 -21 25 -16 25 4 28
6 15 16 -12 9 -15 45 -18 201 l-2 190 -3 -193z"/>
<path d="M4570 485 c0 -14 -9 -24 -27 -31 l-27 -9 26 -17 27 -18 12 35 c9 23
19 35 32 35 29 0 14 23 -16 24 -21 1 -27 -3 -27 -19z"/>
<path d="M7187 462 c-24 -26 -21 -32 16 -31 35 0 85 17 56 18 -9 1 -22 8 -29
16 -16 19 -23 19 -43 -3z"/>
<path d="M937 463 c-4 -3 -7 -15 -7 -26 0 -15 5 -18 23 -13 12 3 32 6 45 6 12
0 22 5 22 11 0 5 -4 8 -9 5 -5 -3 -14 1 -21 9 -13 16 -42 20 -53 8z"/>
<path d="M2315 450 c-24 -27 -17 -31 40 -24 l47 7 -23 18 c-31 24 -42 24 -64
-1z"/>
<path d="M6953 433 c4 -6 0 -13 -8 -17 -40 -15 -5 -35 117 -66 45 -12 94 -28
109 -35 21 -11 29 -12 36 -2 14 18 10 40 -7 44 -13 4 -13 3 0 -7 13 -10 12
-11 -3 -6 -10 3 -21 6 -23 6 -3 0 -2 5 2 11 4 8 -1 9 -16 4 -12 -4 -20 -3 -17
1 3 5 -12 10 -33 10 -51 2 -152 33 -145 44 3 5 0 12 -6 16 -7 4 -9 3 -6 -3z"/>
<path d="M3247 412 c-10 -10 -17 -22 -17 -25 0 -9 47 -9 78 -1 23 6 22 7 -8
25 -37 23 -33 23 -53 1z"/>
<path d="M3685 410 c-25 -27 -14 -34 40 -26 l46 7 -25 20 c-30 24 -39 24 -61
-1z"/>
<path d="M6313 411 c-28 -24 -20 -31 34 -31 49 0 54 10 18 34 -29 19 -25 19
-52 -3z"/>
<path d="M6854 409 c-3 -5 0 -16 6 -24 7 -8 9 -15 5 -15 -4 0 -2 -7 5 -15 7
-8 17 -12 23 -8 6 3 7 1 3 -5 -4 -6 5 -17 21 -25 45 -23 204 -69 219 -63 7 3
16 0 20 -6 5 -7 2 -8 -6 -3 -9 5 -11 4 -6 -3 9 -16 46 3 46 23 0 23 -38 42
-140 70 -52 14 -116 39 -142 55 -28 17 -50 25 -54 19z"/>
<path d="M4569 393 c-8 -9 -34 -25 -59 -36 l-45 -20 33 -14 c31 -13 35 -12 77
17 48 33 52 39 33 58 -16 16 -23 15 -39 -5z"/>
<path d="M6606 381 c-10 -11 -31 -25 -47 -31 -37 -16 -37 -26 2 -34 34 -7 59
8 98 58 14 17 19 26 11 19 -9 -8 -19 -9 -30 -3 -13 7 -22 4 -34 -9z"/>
<path d="M6516 379 c3 -5 -1 -9 -10 -9 -8 0 -16 -6 -19 -12 -3 -10 -9 -10 -26
0 -11 6 -25 12 -29 12 -5 0 -9 -6 -9 -12 0 -19 73 -20 108 -3 35 19 36 21 4
27 -13 3 -22 1 -19 -3z"/>
<path d="M635 360 c-3 -5 1 -10 9 -10 9 0 16 5 16 10 0 6 -4 10 -9 10 -6 0
-13 -4 -16 -10z"/>
<path d="M845 360 c-3 -5 -2 -10 4 -10 5 0 13 5 16 10 3 6 2 10 -4 10 -5 0
-13 -4 -16 -10z"/>
<path d="M2025 360 c-3 -5 1 -10 9 -10 9 0 16 5 16 10 0 6 -4 10 -9 10 -6 0
-13 -4 -16 -10z"/>
<path d="M2226 361 c-3 -5 3 -11 14 -14 21 -5 32 1 24 14 -7 12 -31 11 -38 0z"/>
<path d="M6073 356 c0 -20 147 -21 172 -1 20 16 20 16 -2 6 -27 -14 -128 -14
-152 -2 -12 7 -18 6 -18 -3z"/>
<path d="M4280 333 c0 -17 59 -53 86 -53 15 0 33 -8 40 -17 12 -16 13 -15 4
10 -5 16 -6 26 -1 23 11 -7 36 22 27 32 -11 10 -156 15 -156 5z"/>
<path d="M620 319 c0 -6 9 -13 20 -16 11 -3 20 -10 20 -17 0 -12 233 -7 246 7
4 4 0 7 -8 7 -9 0 -21 7 -28 15 -10 12 -38 15 -131 15 -80 0 -119 -4 -119 -11z"/>
<path d="M1311 325 c0 -6 9 -28 19 -50 17 -34 18 -36 13 -10 -6 28 -34 80 -32
60z"/>
<path d="M2000 320 c0 -5 11 -12 25 -16 14 -3 22 -10 19 -15 -3 -5 43 -9 105
-9 113 0 139 9 105 35 -23 17 -254 21 -254 5z"/>
<path d="M6073 313 c-13 -8 -23 -19 -23 -24 0 -12 217 -12 225 0 3 5 -5 17
-17 25 -31 22 -154 21 -185 -1z"/>
<path d="M6425 310 c-17 -19 -17 -20 9 -30 36 -13 41 -13 27 4 -10 12 -8 13 8
9 25 -6 30 22 5 31 -24 9 -29 8 -49 -14z"/>
<path d="M4463 305 c-3 -9 -3 -18 -1 -21 3 -3 8 4 11 16 6 23 -1 27 -10 5z"/>
<path d="M6511 298 c0 -15 98 -207 98 -195 1 4 -19 48 -44 97 -25 49 -45 92
-45 94 0 3 8 7 18 9 13 4 11 5 -5 6 -13 0 -23 -5 -22 -11z"/>
<path d="M5855 292 c-3 -3 4 -15 15 -27 17 -19 21 -33 18 -81 -3 -55 -5 -59
-27 -58 l-24 1 22 -19 c13 -10 27 -18 32 -18 5 0 9 38 9 84 0 62 4 87 15 96 8
7 13 16 10 20 -6 9 -61 10 -70 2z m53 -11 c16 12 16 12 0 -6 -18 -19 -18 -19
-35 0 -17 18 -17 18 0 6 14 -11 20 -11 35 0z"/>
<path d="M4262 212 c-2 -75 -4 -83 -24 -91 l-22 -8 22 -12 c17 -9 22 -9 22 1
0 10 2 10 8 1 5 -8 12 -8 26 3 19 14 19 14 -2 14 -20 0 -21 6 -25 88 l-3 87
-2 -83z"/>
<path d="M588 198 c-2 -65 -6 -82 -17 -80 -12 3 -12 0 -1 -12 16 -20 44 -20
60 -1 10 12 10 15 -4 15 -13 0 -16 13 -16 80 0 106 -18 104 -22 -2z"/>
<path d="M1982 207 c-2 -68 -4 -79 -23 -85 -20 -8 -20 -8 4 -21 22 -11 29 -11
48 3 l23 16 -21 0 c-21 0 -22 5 -26 83 l-3 82 -2 -78z"/>
<path d="M4490 230 c11 -22 23 -40 25 -40 3 0 -4 18 -15 40 -11 22 -23 40 -25
40 -3 0 4 -18 15 -40z"/>
<path d="M7256 254 c-14 -10 -23 -11 -33 -3 -14 13 -16 9 -7 -15 8 -21 63 -21
71 0 9 23 -9 35 -31 18z"/>
<path d="M6321 234 c27 -29 24 -110 -4 -108 -15 2 -15 -1 5 -20 l23 -21 3 69
c2 56 0 71 -15 82 -15 12 -15 13 -2 8 10 -3 20 0 24 6 4 7 -4 10 -24 8 l-31
-2 21 -22z"/>
<path d="M4450 242 c0 -17 30 -75 36 -69 3 3 -4 22 -15 44 -11 21 -20 32 -21
25z"/>
<path d="M6855 230 c4 -7 16 -9 28 -6 19 5 19 4 4 -11 -14 -14 -18 -14 -33 -2
-16 13 -16 12 -3 -9 8 -12 20 -20 27 -17 8 3 18 5 23 5 5 0 7 10 5 23 -2 16
-11 23 -31 25 -19 3 -25 0 -20 -8z"/>
<path d="M1362 199 c6 -16 12 -29 13 -27 6 6 -8 58 -16 58 -4 0 -3 -14 3 -31z"/>
<path d="M945 200 c3 -5 14 -10 23 -10 12 0 13 -3 4 -12 -8 -8 -15 -8 -29 3
-17 13 -17 13 0 -7 21 -26 22 -40 0 -52 -14 -9 -14 -11 5 -21 21 -11 22 -10
22 27 0 23 6 45 15 52 20 16 10 30 -21 30 -14 0 -22 -4 -19 -10z"/>
<path d="M2316 201 c-3 -5 1 -14 9 -21 8 -7 15 -24 15 -37 0 -20 -4 -24 -20
-20 -11 3 -18 2 -15 -3 3 -4 16 -10 29 -12 23 -5 24 -3 19 24 -4 19 0 35 11
47 9 10 13 21 9 24 -9 10 -51 8 -57 -2z m42 -19 c-8 -9 -14 -9 -24 -1 -18 15
-18 14 10 14 18 0 22 -3 14 -13z"/>
<path d="M7220 200 c0 -5 -13 -10 -30 -10 -16 0 -30 -4 -30 -10 0 -5 7 -10 15
-10 9 0 20 -10 25 -22 5 -13 9 -20 9 -17 1 4 8 23 16 43 9 21 11 36 5 36 -5 0
-10 -4 -10 -10z"/>
<path d="M1422 148 c-18 -18 -14 -38 7 -38 27 0 37 19 19 36 -11 11 -16 11
-26 2z"/>
<path d="M2966 151 c-8 -12 21 -34 34 -26 8 5 8 11 -1 21 -13 16 -25 18 -33 5z"/>
<path d="M6960 154 c0 -4 8 -13 18 -20 16 -13 16 -14 0 -8 -10 3 -18 1 -18 -5
0 -15 39 -38 77 -46 42 -8 113 11 113 31 0 11 -5 14 -17 9 -10 -4 -27 -10 -38
-13 -11 -3 -24 -10 -28 -16 -6 -8 -10 -7 -14 2 -2 6 -11 12 -19 12 -9 0 -12 4
-9 10 4 6 -1 7 -11 3 -10 -3 -15 -2 -12 3 3 5 -5 17 -18 27 -13 10 -24 15 -24
11z"/>
<path d="M7276 135 c-4 -12 -10 -14 -25 -5 -14 7 -22 7 -27 -1 -3 -6 -27 -24
-52 -40 -65 -41 -138 -41 -215 1 -65 35 -67 35 -67 15 0 -9 11 -20 24 -26 17
-8 22 -17 18 -33 -3 -11 -2 -18 2 -15 4 4 33 1 64 -7 70 -16 146 -18 175 -3
35 18 87 71 80 82 -3 6 -1 7 5 3 11 -6 38 31 29 40 -2 3 -7 -2 -11 -11z"/>
<path d="M4874 108 c4 -13 8 -30 10 -38 2 -8 11 -14 20 -14 9 1 16 -2 16 -6 0
-13 139 -33 195 -27 58 6 185 67 185 89 0 6 -3 8 -7 5 -3 -4 -12 -2 -19 4 -10
8 -23 3 -51 -20 -47 -37 -118 -56 -183 -48 -54 7 -128 40 -137 62 -3 8 -12 15
-20 15 -11 0 -14 -6 -9 -22z"/>
<path d="M4974 106 c-18 -14 -18 -15 9 -25 38 -15 146 -14 176 2 26 13 26 30
-1 32 -9 1 -15 -2 -12 -6 2 -5 -14 -13 -36 -20 -31 -10 -49 -10 -80 0 -22 7
-38 16 -35 21 9 14 2 12 -21 -4z"/>
<path d="M489 96 c8 -10 25 -16 40 -14 26 3 33 19 10 27 -7 2 -9 -1 -5 -8 9
-14 -9 -14 -37 1 -20 10 -21 10 -8 -6z"/>
<path d="M1870 96 c13 -17 70 -22 70 -7 0 16 -18 22 -22 9 -4 -10 -10 -10 -33
0 -25 12 -27 11 -15 -2z"/>
<path d="M3373 98 c0 -8 16 -14 39 -16 21 -1 38 2 38 7 0 16 -18 22 -23 9 -3
-10 -9 -11 -26 0 -11 6 -22 12 -24 12 -2 0 -4 -6 -4 -12z"/>
<path d="M3537 104 c-11 -12 3 -24 27 -24 13 0 29 7 36 16 12 13 10 14 -14 3
-21 -10 -29 -10 -35 -1 -4 7 -10 9 -14 6z"/>
<path d="M4596 95 c-4 -12 2 -15 29 -15 18 0 37 5 41 11 4 8 -1 9 -15 4 -12
-4 -28 -2 -35 4 -10 9 -15 8 -20 -4z"/>
<path d="M640 88 c0 -5 65 -8 145 -8 80 0 145 3 145 8 0 4 -65 7 -145 7 -80 0
-145 -3 -145 -7z"/>
<path d="M2020 88 c0 -5 65 -8 145 -8 80 0 145 3 145 8 0 4 -65 7 -145 7 -80
0 -145 -3 -145 -7z"/>
<path d="M2506 88 c3 -5 21 -8 40 -8 19 0 34 3 34 8 0 4 -18 7 -39 7 -22 0
-37 -3 -35 -7z"/>
<path d="M2650 89 c0 -4 17 -9 38 -11 22 -2 39 1 39 7 0 6 -18 10 -39 10 -21
0 -38 -3 -38 -6z"/>
<path d="M4135 91 c-3 -2 -3 -7 0 -10 5 -9 85 -1 85 9 0 7 -78 9 -85 1z"/>
<path d="M4300 89 c0 -5 16 -9 35 -9 19 0 37 0 40 0 3 0 6 3 8 8 1 4 -17 8
-40 9 -24 1 -43 -3 -43 -8z"/>
<path d="M5486 88 c3 -4 18 -8 35 -8 16 0 29 4 29 8 0 4 -15 8 -34 8 -19 0
-32 -4 -30 -8z"/>
<path d="M5640 88 c0 -5 47 -8 105 -8 58 0 105 3 105 8 0 4 -47 7 -105 7 -58
0 -105 -3 -105 -7z"/>
<path d="M6050 96 c0 -2 8 -10 18 -17 15 -13 16 -12 3 4 -13 16 -21 21 -21 13z"/>
<path d="M6087 88 c2 -5 53 -8 114 -8 60 0 109 3 109 8 0 4 -51 7 -114 7 -63
0 -112 -3 -109 -7z"/>
<path d="M6640 88 c0 -11 47 -11 54 0 3 5 -8 9 -24 9 -17 0 -30 -4 -30 -9z"/>
<path d="M1397 60 c-6 -16 -15 -30 -20 -30 -4 0 -5 -4 -2 -10 3 -6 28 -10 54
-10 49 0 82 21 80 51 0 8 -5 3 -10 -11 l-10 -25 -21 33 c-26 41 -56 42 -71 2z"/>
<path d="M540 71 c-56 -8 -70 -17 -70 -42 0 -18 9 -19 244 -19 248 0 306 4
306 23 0 6 -3 7 -7 4 -3 -4 -15 1 -25 10 -16 14 -44 17 -186 18 -92 1 -178 4
-192 7 -14 3 -45 3 -70 -1z"/>
<path d="M1923 71 c-45 -8 -73 -26 -73 -47 0 -12 44 -14 249 -14 155 0 260 4
278 11 l28 11 -30 15 c-23 13 -66 16 -195 18 -91 1 -176 4 -190 7 -14 3 -44 3
-67 -1z"/>
<path d="M3431 70 c-24 -4 -49 -14 -56 -23 -7 -9 -15 -14 -18 -10 -4 3 -7 2
-7 -4 0 -24 273 -23 287 1 3 6 2 8 -2 3 -5 -4 -18 1 -29 12 -24 21 -109 32
-175 21z"/>
<path d="M4235 70 c-11 -5 -34 -9 -51 -9 -27 -1 -64 -26 -64 -44 0 -9 237 -9
267 -1 l23 6 -23 18 c-12 9 -40 19 -62 23 -22 3 -47 7 -55 10 -8 3 -24 2 -35
-3z"/>
<path d="M4538 56 c-8 -42 0 -46 88 -46 46 0 84 3 84 6 0 15 -48 43 -75 44
-17 0 -44 4 -62 9 -28 8 -32 7 -35 -13z"/>
<path d="M5532 66 c-48 -10 -71 -26 -72 -50 0 -14 478 -2 492 12 9 9 9 12 -1
12 -7 0 -24 9 -37 19 -21 16 -30 18 -61 9 -34 -9 -206 -6 -248 4 -11 3 -44 0
-73 -6z"/>
<path d="M2555 63 c-38 -4 -75 -26 -75 -45 0 -4 65 -8 145 -8 90 0 145 4 145
10 0 6 -5 10 -12 10 -6 0 -19 6 -27 14 -18 15 -113 25 -176 19z"/>
<path d="M6201 63 c-112 -4 -141 -12 -141 -39 0 -11 28 -14 139 -14 145 0 201
6 201 22 0 5 -4 7 -9 4 -4 -3 -16 3 -26 14 -10 11 -25 19 -34 18 -9 -1 -67 -4
-130 -5z"/>
<path d="M6594 56 c-12 -30 4 -46 44 -46 55 0 102 11 102 23 0 6 -3 7 -7 4 -3
-4 -13 -1 -22 7 -9 7 -37 17 -64 20 -38 6 -48 4 -53 -8z"/>
<path d="M6843 41 c-32 -27 -29 -30 20 -24 51 7 53 8 37 28 -16 20 -30 19 -57
-4z"/>
</g>
</svg>
